<?xml version="1.0" encoding="UTF-8" standalone="no"?>
<!-- Created with Inkscape (http://www.inkscape.org/) -->

<svg
   xmlns:dc="http://purl.org/dc/elements/1.1/"
   xmlns:cc="http://creativecommons.org/ns#"
   xmlns:rdf="http://www.w3.org/1999/02/22-rdf-syntax-ns#"
   xmlns:svg="http://www.w3.org/2000/svg"
   xmlns="http://www.w3.org/2000/svg"
   xmlns:sodipodi="http://sodipodi.sourceforge.net/DTD/sodipodi-0.dtd"
   xmlns:inkscape="http://www.inkscape.org/namespaces/inkscape"
   version="1.1"
   id="svg10"
   width="251.52"
   height="251.52"
   viewBox="0 0 251.52 251.52"
   sodipodi:docname="lightninghornunicorn svg.svg"
   inkscape:version="0.92.4 (5da689c313, 2019-01-14)">
  <metadata
     id="metadata16">
    <rdf:RDF>
      <cc:Work
         rdf:about="">
        <dc:format>image/svg+xml</dc:format>
        <dc:type
           rdf:resource="http://purl.org/dc/dcmitype/StillImage" />
        <dc:title></dc:title>
      </cc:Work>
    </rdf:RDF>
  </metadata>
  <defs
     id="defs14" />
  <sodipodi:namedview
     pagecolor="#ffffff"
     bordercolor="#666666"
     borderopacity="1"
     objecttolerance="10"
     gridtolerance="10"
     guidetolerance="10"
     inkscape:pageopacity="0"
     inkscape:pageshadow="2"
     inkscape:window-width="1280"
     inkscape:window-height="647"
     id="namedview12"
     showgrid="false"
     inkscape:zoom="2.6876355"
     inkscape:cx="61.571453"
     inkscape:cy="55.03511"
     inkscape:window-x="-8"
     inkscape:window-y="-8"
     inkscape:window-maximized="1"
     inkscape:current-layer="svg10" />
  <path
     style="fill:#000000;stroke-width:0.31999999"
     d="m 122.74242,231.30882 c -0.0964,-0.15605 -0.71197,-0.3844 -1.36783,-0.50744 -1.15957,-0.21753 -2.97151,-1.00337 -3.29459,-1.42885 -0.088,-0.1159 -0.81958,-0.59156 -1.62573,-1.05704 -2.12191,-1.22521 -5.50717,-5.51619 -6.21279,-7.87503 -0.16934,-0.56611 0.19827,-0.32743 1.48678,0.96532 1.25353,1.25766 2.2017,1.88272 3.54209,2.33506 1.00669,0.33972 1.92454,0.52348 2.03967,0.40835 0.11513,-0.11513 -0.0965,-0.7277 -0.47035,-1.36128 -0.91751,-1.55506 -0.85497,-1.94468 0.20033,-1.24814 2.68403,1.77157 5.51609,2.40218 7.10292,1.5816 1.19695,-0.61897 1.26166,-1.12883 0.14328,-1.12883 -0.4586,0 -1.23889,-0.34085 -1.73399,-0.75745 -0.84188,-0.7084 -0.8656,-0.79259 -0.36619,-1.30013 0.49925,-0.50739 0.48195,-0.58821 -0.26602,-1.24255 -0.77642,-0.67924 -0.8,-0.8225 -0.8,-4.85987 0,-4.00574 -0.04,-4.25493 -1.07985,-6.72 -1.42984,-3.38974 -3.83605,-8.20237 -4.39409,-8.78857 -0.38748,-0.40704 -0.44561,-0.36502 -0.4426,0.32 0.006,1.30074 0.80279,3.51793 2.23916,6.22857 1.29057,2.4355 2.87738,6.22816 2.87738,6.87726 0,0.16646 -0.21323,0.22083 -0.47384,0.12082 -0.28735,-0.11026 -0.80231,0.20854 -1.30844,0.81005 -0.80516,0.95687 -2.12989,1.33175 -2.51338,0.71125 -0.0954,-0.15434 -1.00389,-0.61276 -2.01889,-1.0187 -1.015,-0.40595 -2.7515,-1.3044 -3.8589,-1.99656 -1.58719,-0.99205 -2.19105,-1.60627 -2.85233,-2.9013 -0.83302,-1.63133 -1.42102,-3.61586 -1.4349,-4.84282 -0.0171,-1.5093 0.68642,-4.61571 1.30789,-5.77524 0.37003,-0.69041 0.67279,-1.40289 0.67279,-1.58331 0,-0.40029 2.43624,-2.94506 3.46523,-3.61959 0.44713,-0.29311 1.47171,-0.48853 2.56138,-0.48853 2.6172,0 4.31871,1.04991 2.45826,1.51685 -0.92517,0.23221 -1.32137,1.36032 -0.91057,2.59271 0.19894,0.59684 0.9931,1.21191 2.82392,2.18712 1.87292,0.99763 2.88789,1.7916 3.83446,2.99956 1.52757,1.94941 2.24961,2.18802 1.96822,0.65043 -0.21002,-1.14765 -0.004,-1.62221 0.8391,-1.9333 1.18626,-0.43768 0.45834,-3.73421 -1.20208,-5.44389 -0.61485,-0.6331 -1.11792,-1.21722 -1.11792,-1.29806 0,-0.0808 0.75336,0.21647 1.67414,0.66067 2.97164,1.43356 3.52735,2.51306 4.62001,8.97458 0.19333,1.14326 0.55418,1.32567 1.01026,0.51069 0.26041,-0.46532 0.36075,-0.43082 0.83003,0.2854 0.54237,0.82776 1.97734,1.35026 2.29531,0.83578 0.096,-0.15527 0.31483,-0.19556 0.48638,-0.0895 0.17155,0.10602 0.5216,0.0188 0.77789,-0.19396 0.32818,-0.27237 0.46598,-0.28052 0.46598,-0.0275 0,0.57175 1.21613,0.41576 1.56562,-0.20082 0.29796,-0.52568 0.34585,-0.52152 0.78127,0.0679 0.39994,0.5414 0.53664,0.56751 0.99211,0.1895 0.45263,-0.37564 0.52198,-1.13864 0.48442,-5.32959 -0.0241,-2.69016 0.0503,-5.04343 0.16526,-5.22951 0.13112,-0.21215 1.90962,-0.33832 4.76904,-0.33832 6.66953,0 6.5332,-0.19658 6.95189,10.02368 0.32489,7.93061 0.65441,9.75365 2.11054,11.6762 0.44151,0.58293 1.18459,1.21209 1.6513,1.39814 0.50433,0.20105 0.68196,0.39996 0.43788,0.49035 -0.81996,0.30365 -3.17411,-1.16792 -4.67057,-2.91953 -1.55139,-1.81593 -2.56664,-4.0976 -2.95203,-6.63443 -0.23635,-1.55572 -0.92293,-2.55718 -1.58023,-2.30495 -0.23835,0.0915 -0.86839,-0.0907 -1.40009,-0.40476 -1.30882,-0.77314 -1.56931,-0.36953 -0.54623,0.84634 0.4619,0.54893 0.85052,1.31101 0.8636,1.69351 0.0131,0.3825 0.0831,1.0123 0.15557,1.39956 0.0725,0.38726 0.0121,1.02765 -0.13419,1.4231 -0.22064,0.59646 -0.30262,0.44268 -0.48105,-0.90239 -0.31711,-2.39049 -1.5862,-3.62482 -3.72689,-3.62482 H 138.56 l 0.004,4.88 c 0.005,5.72664 0.11161,6.32 1.13407,6.32 0.40909,0 0.83279,-0.144 0.94156,-0.32 0.2663,-0.43088 3.73126,-0.36956 5.97986,0.10584 1.00092,0.21162 2.15292,0.69257 2.56,1.06878 0.81529,0.75349 2.32308,1.44442 5.17581,2.37179 2.10562,0.6845 3.67838,0.57432 5.57029,-0.39023 0.64315,-0.3279 1.32916,-0.59618 1.52446,-0.59618 0.1953,0 1.03138,-0.648 1.85796,-1.44 0.82657,-0.792 1.68939,-1.44 1.91737,-1.44 0.22799,0 0.81837,-0.42154 1.31198,-0.93675 0.4936,-0.51521 1.30553,-1.10577 1.80427,-1.31236 0.49874,-0.20659 1.13265,-0.7203 1.40869,-1.14158 0.27603,-0.42128 1.01603,-0.9808 1.64444,-1.24336 0.6284,-0.26257 1.21704,-0.76222 1.30807,-1.11033 0.091,-0.34812 0.65406,-0.92119 1.25116,-1.27349 0.59711,-0.3523 1.08564,-0.85324 1.08564,-1.11319 0,-0.25996 0.29456,-0.67897 0.65458,-0.93114 0.36002,-0.25216 1.0629,-1.10233 1.56196,-1.88926 0.49905,-0.78692 1.35649,-1.75058 1.90542,-2.14145 0.54892,-0.39087 0.99804,-0.9118 0.99804,-1.15762 0,-0.24583 0.288,-0.60109 0.64,-0.78947 0.352,-0.18838 0.64,-0.54364 0.64,-0.78947 0,-0.24582 0.432,-0.75456 0.96,-1.13053 0.528,-0.37597 0.96,-0.93974 0.96,-1.25283 0,-0.31308 0.288,-0.90131 0.64,-1.30717 0.352,-0.40586 0.64,-0.91426 0.64,-1.12978 0,-0.21552 0.216,-0.57112 0.48,-0.79022 0.31778,-0.26373 0.48,-0.97995 0.48,-2.11918 2e-5,-1.31629 -0.11282,-1.72082 -0.47998,-1.72082 -0.32987,0 -0.48,0.33087 -0.48,1.05783 0,0.60501 -0.31888,1.49005 -0.74494,2.06754 -1.40651,1.90641 -7.07879,7.11199 -7.75106,7.11333 -0.3608,6.4e-4 -0.8288,0.1741 -1.04,0.3853 -0.29259,0.29259 -0.384,0.29388 -0.384,0.005 0,-0.20824 -0.72564,-0.74632 -1.61253,-1.19575 l -1.61254,-0.81713 -1.24906,0.89174 c -1.46747,1.04769 -1.92587,1.90497 -1.92587,3.60173 0,1.09855 -0.24618,1.49235 -2.16,3.45526 -1.188,1.21848 -2.70034,2.61511 -3.36076,3.10364 -1.26359,0.93472 -1.65187,0.86716 -2.69331,-0.46868 -1.02782,-1.31838 -1.43546,-7.00653 -0.61444,-8.57375 0.91581,-1.74815 5.10739,-4.86644 6.54143,-4.86644 0.31062,0 0.83884,-0.20042 1.17384,-0.44537 0.52896,-0.38679 0.55043,-0.51605 0.1632,-0.98263 -0.30557,-0.36819 -0.45282,-1.46165 -0.46792,-3.47463 -0.0202,-2.69485 0.0519,-3.05123 0.87402,-4.31645 0.74144,-1.14112 0.87949,-1.66517 0.8,-3.03701 -0.11376,-1.96345 -0.78653,-2.32816 -2.08974,-1.13287 l -0.81658,0.74896 0.24724,-0.96 c 0.13598,-0.528 0.35371,-1.50413 0.48384,-2.16918 0.13013,-0.66505 0.48056,-1.47875 0.77874,-1.80823 0.6655,-0.73537 0.19357,-1.13558 -0.98907,-0.83876 -1.19203,0.29918 -0.80006,-0.49539 0.45472,-0.92179 1.65382,-0.56198 1.81863,-0.91765 1.82705,-3.94272 0.006,-2.32075 -0.079,-2.8014 -0.51342,-2.88773 -0.85113,-0.16913 -1.55884,0.82571 -1.55884,2.19127 0,1.50538 -0.36222,1.62133 -0.86918,0.27824 -0.36308,-0.96192 -0.38574,-0.9705 -1.30563,-0.49481 -0.88732,0.45885 -2.7373,3.59511 -3.00278,5.09061 -0.17272,0.97295 -0.7366,0.76302 -0.84091,-0.31307 -0.11103,-1.14553 -0.78025,-1.86488 -1.48376,-1.59492 -0.66113,0.2537 -2.14745,2.69883 -2.51087,4.1306 -0.34781,1.37025 -0.86687,1.60054 -0.86687,0.3846 0,-1.06712 -0.80518,-2.59874 -1.5858,-3.01651 -0.52558,-0.28128 -0.80152,-0.11324 -1.82529,1.1115 -1.26063,1.50812 -2.01581,3.44439 -2.02405,5.18964 -0.006,1.18013 0.50747,1.56094 2.54105,1.88612 1.38761,0.22189 1.23059,0.75033 -0.22591,0.76024 -0.55336,0.004 -0.72,0.19006 -0.72,0.8049 0,0.44 0.12516,0.8 0.27813,0.8 0.15297,0 0.368,0.468 0.47784,1.04 0.10983,0.572 0.28946,1.436 0.39917,1.92 0.18167,0.80146 0.11759,0.88018 -0.71783,0.88197 -0.50452,9.6e-4 -1.33512,0.21986 -1.84579,0.48617 -0.96015,0.50073 -9.58957,0.95212 -11.02513,0.57671 -0.64199,-0.16788 -0.68639,-0.3791 -0.68639,-3.2652 0,-3.62297 0.31806,-4.06312 2.68015,-3.7089 1.03597,0.15535 1.45734,0.0819 1.78317,-0.31065 0.38776,-0.46722 0.46793,-0.45511 0.8798,0.13291 0.37694,0.53816 0.80833,0.64699 2.56462,0.64699 2.07863,0 2.10261,0.01 1.54241,0.62879 -0.40997,0.453 -0.50609,0.87793 -0.34383,1.52 0.12388,0.49016 0.30177,1.44193 0.39533,2.11502 0.17956,1.2918 0.92466,1.8942 1.41354,1.14282 0.27919,-0.42911 0.99161,-2.69007 1.4248,-4.52182 0.17281,-0.73071 0.077,-0.92462 -0.58067,-1.17465 -0.73639,-0.27998 -0.79822,-0.48465 -0.94986,-3.14434 -0.15141,-2.65535 -0.5648,-4.13115 -1.28986,-4.60479 -0.42739,-0.27919 -2.48389,0.22612 -2.99324,0.73547 -0.23297,0.23297 -0.69022,1.28756 -1.01611,2.34354 l -0.59253,1.91996 -0.39895,-1.63067 c -0.50945,-2.08241 -1.88552,-3.64933 -3.20483,-3.64933 -1.28367,0 -1.49353,-0.49052 -1.36688,-3.19484 0.13419,-2.86527 0.58484,-3.139 2.22632,-1.3523 0.72711,0.79144 1.5977,1.37599 2.24818,1.50953 0.58385,0.11986 1.43629,0.41235 1.8943,0.64997 0.58882,0.30548 1.00819,0.33814 1.43167,0.1115 0.36615,-0.19596 1.76303,-0.23508 3.59417,-0.10067 3.56433,0.26164 4.87271,0.0627 5.94171,-0.90332 1.40798,-1.27238 2.45679,-1.68106 3.05023,-1.18855 0.43488,0.36091 0.68577,0.33606 1.60505,-0.15901 0.59929,-0.32273 1.30715,-0.9188 1.57304,-1.32459 0.29541,-0.45087 0.95107,-0.82334 1.68585,-0.95773 0.66996,-0.12253 1.7187,-0.68195 2.3683,-1.26329 0.64123,-0.57386 1.97323,-1.55984 2.96,-2.19106 2.409,-1.54102 2.34751,-2.55794 -0.22094,-3.65376 -1.56991,-0.66981 -1.9223,-0.52117 -1.69074,0.71317 0.27447,1.46301 -0.3268,1.79523 -1.22054,0.67438 -0.51073,-0.64052 -0.94752,-0.85483 -1.64455,-0.80689 -1.55494,0.10694 -1.71088,0.0396 -2.22911,-0.96254 -0.70556,-1.36439 -1.07006,-1.19177 -1.18247,0.56 -0.0536,0.836 -0.24153,1.52 -0.41753,1.52 -0.176,0 -1.13628,-1.21889 -2.13396,-2.70864 -1.26281,-1.88566 -1.87711,-3.14963 -2.0218,-4.16 -0.37937,-2.64918 -1.08609,-4.5079 -2.55291,-6.71431 -0.79823,-1.20072 -1.45133,-2.38375 -1.45133,-2.62897 0,-0.75341 1.3412,-1.66472 3.52,-2.39177 1.144,-0.38174 2.872,-1.00851 3.84,-1.39283 3.46208,-1.37454 5.88711,-1.51795 7.58874,-0.44879 0.38981,0.24492 0.99331,0.44531 1.34112,0.44531 0.3478,0 0.72137,0.144 0.83014,0.32 0.10877,0.176 0.59492,0.32 1.08032,0.32 0.4854,0 1.69394,0.41496 2.68564,0.92214 0.99171,0.50717 1.87858,0.84665 1.97084,0.7544 0.0923,-0.0923 0.40749,0.0312 0.70053,0.27444 0.29303,0.2432 1.91651,0.69361 3.60773,1.00091 1.69122,0.3073 3.72294,0.69857 4.51494,0.86948 1.89204,0.40831 5.03052,0.4223 5.27697,0.0235 0.10711,-0.1733 0.51465,-0.28862 0.90564,-0.25626 0.94652,0.0783 2.71482,-1.26415 3.24586,-2.46424 0.50948,-1.15137 1.1922,-3.65153 1.18086,-4.32439 -0.004,-0.264 -0.10756,-0.88336 -0.22914,-1.37635 -0.25668,-1.04081 0.56881,-2.12042 2.21865,-2.90167 1.34923,-0.6389 6.24321,-0.35322 6.52491,0.38089 0.1029,0.26814 -0.0704,1.99968 -0.38516,3.84785 -0.51884,3.0467 -0.73802,3.6314 -2.34848,6.2648 -0.97694,1.59746 -2.32837,3.57831 -3.00318,4.40189 -0.92935,1.13423 -1.23185,1.79393 -1.24721,2.72 -0.0175,1.05508 -0.0599,1.12394 -0.30969,0.50259 -0.15918,-0.396 -0.35224,-0.72 -0.42904,-0.72 -0.0768,0 -0.0998,2.46415 -0.0511,5.47589 0.0649,4.01788 0.19729,5.54312 0.49709,5.72841 0.46274,0.28599 0.20301,3.67711 -0.33091,4.32045 -0.16747,0.2018 -0.37647,1.56691 -0.46443,3.03358 -0.12707,2.11865 -0.35073,3.03235 -1.08835,4.44614 -0.51063,0.97872 -1.19726,1.92709 -1.52584,2.1075 -0.91386,0.50176 -1.03914,0.82236 -0.70072,1.79315 0.43914,1.25973 0.13312,8.73215 -0.44787,10.93607 -0.59444,2.25493 -1.70544,3.9852 -3.51541,5.47491 -0.75539,0.62173 -2.81343,2.30047 -4.57343,3.73053 -7.12658,5.79063 -14.67346,12.88518 -19.79852,18.61188 -3.85965,4.31273 -9.57484,8.26149 -11.95717,8.26149 -0.49605,0 -1.18595,0.19682 -1.53311,0.43737 -0.34716,0.24055 -1.6392,0.54321 -2.8712,0.67257 -1.232,0.12936 -2.3669,0.31272 -2.52199,0.40746 -0.1551,0.0948 -2.8191,0.23471 -5.92,0.31101 -3.10091,0.0763 -5.77481,0.27212 -5.94201,0.43516 -0.38873,0.37905 -9.6798,0.39096 -9.91358,0.0127 z m 42.30389,-27.47628 c -0.40875,-1.24656 -0.83267,-2 -1.12529,-2 -0.32307,0 -0.39641,0.17465 -0.23517,0.56 0.12888,0.308 0.33508,1.064 0.45821,1.68 0.12314,0.616 0.41049,1.46703 0.63856,1.89117 0.78222,1.45472 0.9623,-6.4e-4 0.26369,-2.13117 z m 1.99369,-2 c 0,-0.176 -0.144,-0.32 -0.32,-0.32 -0.176,0 -0.32,0.144 -0.32,0.32 0,0.176 0.144,0.32 0.32,0.32 0.176,0 0.32,-0.144 0.32,-0.32 z m -0.78795,-1.52 c -0.28907,-1.17045 -0.81205,-1.69222 -0.81205,-0.81017 0,0.92357 0.32155,1.69017 0.70893,1.69017 0.18894,0 0.23126,-0.36115 0.10312,-0.88 z m 1.42795,-2.31505 c 0,-0.95684 -0.72425,-1.78843 -1.26598,-1.45361 -0.4166,0.25747 -0.42416,0.84991 -0.0243,1.90172 0.40636,1.06881 1.29024,0.76183 1.29024,-0.44811 z m 8.32,0.97588 c 0,-0.16454 -0.14935,-0.69199 -0.33189,-1.17211 -0.42319,-1.11308 -1.12569,-0.5598 -0.82258,0.64785 0.19126,0.76207 1.15447,1.19947 1.15447,0.52426 z m -6.21198,-4.26083 c 0.0299,-2.47412 0.83967,-7.06723 1.35739,-7.69906 0.29812,-0.36382 0.49149,-1.29757 0.41024,-1.98094 -0.0581,-0.48858 -1.27597,1.63762 -1.80077,3.14382 -0.49045,1.4076 -0.688,8.85618 -0.23488,8.85618 0.132,0 0.25261,-1.044 0.26802,-2.32 z m 3.17198,1.52 c 0,-0.176 -0.324,-0.36602 -0.72,-0.42226 -0.49541,-0.0704 -0.72,0.0614 -0.72,0.42226 0,0.3609 0.22459,0.49262 0.72,0.42226 0.396,-0.0562 0.72,-0.24626 0.72,-0.42226 z m 4.0064,-3.08993 c -0.67489,-2.13841 -1.53162,-3.08248 -1.18886,-1.31007 0.36571,1.89115 0.88836,3.65051 1.2665,4.26335 0.39067,0.63314 0.39742,0.63232 0.50476,-0.0607 0.0598,-0.38635 -0.20224,-1.68799 -0.5824,-2.89253 z m -3.6048,-0.83007 c 0.0863,-0.262 -0.20868,-0.4 -0.85493,-0.4 -0.95069,0 -1.23529,0.28472 -0.75984,0.76017 0.34373,0.34372 1.46535,0.0935 1.61477,-0.36017 z m -27.6251,-3.36887 c 0.67893,-2.01106 0.57802,-2.28338 -0.95157,-2.56783 -1.67025,-0.31061 -1.94229,0.10664 -1.32191,2.02754 0.29534,0.91446 0.53698,1.87268 0.53698,2.12937 0,0.27144 0.23325,0.4218 0.55748,0.35936 0.35571,-0.0685 0.78243,-0.7737 1.17902,-1.94844 z m 27.95142,1.19012 c -0.10418,-0.10417 -0.59858,-0.13361 -1.09867,-0.0654 l -0.90925,0.12398 0.8,0.34667 c 0.75082,0.32535 1.64015,0.027 1.20792,-0.40522 z m -32.76267,-1.42773 c 0.77735,-1.94277 0.69314,-2.29127 -0.52525,-2.1738 -0.95521,0.0921 -1.04826,0.20086 -1.14132,1.33393 -0.19971,2.43154 0.82341,2.94714 1.66657,0.83987 z M 174.08,188.42678 c 0,-0.3597 -0.83236,-0.69522 -1.08871,-0.43886 -0.38521,0.38521 -0.17503,0.72462 0.44871,0.72462 0.352,0 0.64,-0.1286 0.64,-0.28576 z m 0.16,-1.95424 c -0.10877,-0.176 -0.33327,-0.32 -0.49889,-0.32 -0.16561,0 -0.30111,0.144 -0.30111,0.32 0,0.176 0.2245,0.32 0.49889,0.32 0.27438,0 0.40988,-0.144 0.30111,-0.32 z m 0.8,-1.76 c 0,-0.50855 -1.12394,-0.67139 -1.41242,-0.20463 -0.23631,0.38235 0.12827,0.68463 0.82575,0.68463 0.32267,0 0.58667,-0.216 0.58667,-0.48 z m -2.56,-0.92929 c 0,-0.22634 0.288,-0.67215 0.64,-0.99071 0.352,-0.31856 0.64,-0.7069 0.64,-0.86298 0,-0.15608 0.29445,-0.59984 0.65435,-0.98614 0.87356,-0.93766 1.59678,-2.42623 1.2753,-2.62491 -0.41225,-0.25479 -2.3136,2.35175 -3.35046,4.59311 -0.57457,1.24203 -0.63777,1.76434 -0.17919,1.48092 0.176,-0.10877 0.32,-0.38295 0.32,-0.60929 z m 3.2,-0.99071 c 0,-0.264 -0.2075,-0.48 -0.46111,-0.48 -0.61866,0 -0.92507,0.54414 -0.42088,0.7474 0.69857,0.28164 0.88199,0.22603 0.88199,-0.2674 z m 7.04,-0.96 c 0.72617,-1.17497 1.28,-1.45188 1.28,-0.64 0,0.264 0.144,0.48 0.32,0.48 0.176,0 0.32,0.288 0.32,0.64 0,0.88014 0.52093,0.80145 1.46941,-0.22198 0.96084,-1.03675 0.9081,-2.13577 -0.10941,-2.28028 -0.45411,-0.0645 -0.72,-0.32368 -0.72,-0.70185 0,-0.32978 -0.25422,-0.78777 -0.56493,-1.01775 -0.31071,-0.22997 -0.74332,-0.82226 -0.96136,-1.31618 -0.5328,-1.20697 -1.03135,-0.80737 -1.04416,0.83693 -0.006,0.73761 -0.28904,2.13311 -0.62955,3.10111 -0.71381,2.02922 -0.74638,2.24 -0.3461,2.24 0.16165,0 0.60539,-0.504 0.9861,-1.12 z m -6.08,-1.12 c 0,-0.176 -0.216,-0.32 -0.48,-0.32 -0.264,0 -0.48,0.144 -0.48,0.32 0,0.176 0.216,0.32 0.48,0.32 0.264,0 0.48,-0.144 0.48,-0.32 z m 13.79096,-3.1308 c 0.23065,-1.18206 0.38499,-2.27236 0.34297,-2.42288 -0.042,-0.15053 0.0746,-0.45559 0.25909,-0.67791 0.38487,-0.46374 0.94652,-5.68462 0.95872,-8.91187 0.007,-1.83152 -0.074,-2.16679 -0.50233,-2.08 -0.40185,0.0814 -0.53145,0.61457 -0.60857,2.50346 -0.10746,2.63231 -0.47027,5.43195 -1.24408,9.6 -0.27773,1.496 -0.50762,3.20563 -0.51086,3.79918 -0.01,1.80569 0.82567,0.64689 1.30506,-1.80998 z m -8.5452,1.34463 c 0.30894,-0.80508 0.22502,-3.01383 -0.1145,-3.01383 -0.50077,0 -0.97126,1.15239 -0.97126,2.37896 0,1.19609 0.7109,1.61176 1.08576,0.63487 z m 10.90578,-1.81326 c 0.11798,-1.10031 0.28376,-2.28857 0.3684,-2.64057 0.13482,-0.56069 0.0692,-0.54236 -0.52937,0.14798 -0.47813,0.55141 -0.64059,1.0787 -0.54113,1.75631 0.0782,0.53258 0.0312,1.35515 -0.10442,1.82793 -0.13559,0.47278 -0.1676,0.93853 -0.0711,1.03499 0.40664,0.40665 0.67601,-0.24605 0.87766,-2.12664 z M 177.0791,176.7776 c 0.89127,-1.19376 0.34551,-1.53165 -0.60175,-0.37255 -0.42588,0.52112 -0.77951,1.06749 -0.78584,1.21416 -0.021,0.48697 0.74051,0.0251 1.38759,-0.84161 z m 2.39781,-1.36139 c 0.10114,-0.52195 0.0472,-0.54546 -0.4,-0.1743 -0.6116,0.50758 -0.68775,1.10085 -0.11691,0.91078 0.22,-0.0733 0.45261,-0.40467 0.51691,-0.73648 z m 5.60901,-1.50367 c 0.64065,-2.32064 0.92009,-4.62907 0.58539,-4.83593 -0.15367,-0.095 -0.61614,1.15226 -1.0277,2.77163 -0.41156,1.61936 -0.81214,3.1243 -0.89019,3.3443 -0.078,0.22 0.0855,0.4 0.36341,0.4 0.33733,0 0.65946,-0.55843 0.96909,-1.68 z m -4.36244,-0.81043 c 0.0679,-0.20373 -0.35269,-0.65999 -0.93466,-1.01391 -0.92674,-0.56359 -1.11603,-0.58559 -1.52443,-0.1772 -0.25646,0.25647 -0.40287,0.50573 -0.32534,0.55392 1.95055,1.21251 2.54715,1.34903 2.78443,0.63719 z m 1.35652,-2.60347 c 0,-1.12113 -1.58595,-2.2661 -3.13889,-2.2661 -1.52901,0 -1.49746,0.54089 0.072,1.23516 0.78556,0.34749 1.6156,0.93174 1.84454,1.29832 0.60202,0.96399 1.2223,0.8283 1.2223,-0.26738 z m 11.52,-0.1861 c 0,-0.264 -0.144,-0.48 -0.32,-0.48 -0.176,0 -0.32,0.216 -0.32,0.48 0,0.264 0.144,0.48 0.32,0.48 0.176,0 0.32,-0.216 0.32,-0.48 z m -10.98664,-2.8 c 0.13813,-0.22 0.73066,-1.768 1.31674,-3.44 0.79042,-2.25497 1.08164,-3.65976 1.12775,-5.44 0.0577,-2.22764 0.0132,-2.40698 -0.61901,-2.49717 -0.73586,-0.10497 -0.7854,0.0341 -1.40304,3.93717 -0.41502,2.6227 -0.97781,4.67574 -1.48883,5.4312 -0.45399,0.67115 -0.56785,1.84125 -0.21364,2.19547 0.34312,0.34312 1.00832,0.24611 1.28003,-0.18667 z m -4.8365,-1.92 c -0.30065,-2.66292 -1.75002,-5.3614 -4.12501,-7.68 -1.0366,-1.012 -2.01234,-1.84 -2.16829,-1.84 -0.6841,0 -0.16424,0.94134 1.33205,2.41203 2.47018,2.42791 3.54696,4.44007 4.65999,8.70797 0.0574,0.22 0.19943,0.4 0.31569,0.4 0.11626,0 0.10977,-0.9 -0.0144,-2 z m -2.73686,-1.3328 c 0,-0.93284 -2.83553,-2.96869 -5.3565,-3.84585 -1.36593,-0.47526 -3.0595,-1.12371 -3.7635,-1.44099 -0.704,-0.31728 -1.64,-0.68631 -2.08,-0.82006 -1.3177,-0.40056 -3.68572,-1.6718 -4.69302,-2.51938 -0.65446,-0.5507 -1.08584,-0.70648 -1.40562,-0.5076 -0.38043,0.2366 -0.32102,0.42368 0.33864,1.06645 0.97401,0.94909 6.13727,3.56703 7.6695,3.88869 0.61022,0.12811 1.33022,0.34093 1.6,0.47295 0.26977,0.13201 1.0665,0.42262 1.7705,0.64579 1.26008,0.39945 4.73086,2.56316 5.11904,3.19125 0.29298,0.47404 0.80096,0.3908 0.80096,-0.13125 z m 17.98153,-2.2672 c -0.1129,-1.10067 -1.20188,-2.11749 -2.14153,-1.99963 -0.49845,0.0625 -0.62472,0.29254 -0.57091,1.03996 0.0805,1.11795 1.18191,2.15248 2.14508,2.01483 0.53242,-0.0761 0.6461,-0.28751 0.56736,-1.05516 z m -1.47499,-0.43705 c -0.13784,-0.22304 -0.16421,-0.49195 -0.0586,-0.59757 0.28639,-0.28639 0.59864,0.13481 0.44396,0.59886 -0.10839,0.32517 -0.18377,0.32492 -0.38538,-0.001 z M 159.68,161.19254 c 0,-0.176 -0.0635,-0.32 -0.14111,-0.32 -0.0776,0 -0.23012,0.144 -0.33889,0.32 -0.10877,0.176 -0.0453,0.32 0.14111,0.32 0.18639,0 0.33889,-0.144 0.33889,-0.32 z m 33.21684,-2.93888 c 0.0758,-0.6338 -0.0978,-0.88581 -0.8,-1.16095 -1.70492,-0.66806 -2.16886,-0.60885 -2.2733,0.29014 -0.081,0.69736 0.0983,0.90987 1.12,1.32715 1.52887,0.62443 1.8325,0.5535 1.9533,-0.45634 z m -15.26999,-0.42112 c 0.004,-0.176 -0.22506,-0.36818 -0.50864,-0.42706 -0.74973,-0.15569 -1.51294,0.20726 -1.26827,0.60314 0.2581,0.41763 1.76726,0.26808 1.77691,-0.17608 z m -7.83565,-1.51118 c 0.21895,-2.93326 0.1636,-3.44882 -0.3703,-3.44882 -0.82881,0 -1.05067,2.24853 -0.39952,4.04924 0.46925,1.29768 0.63796,1.1661 0.76982,-0.60042 z m -0.91279,-6.72882 c -0.0742,-0.22 -0.4332,-0.4 -0.79776,-0.4 -0.36455,0 -0.77183,-0.108 -0.90507,-0.24 -0.13323,-0.132 -0.93825,-0.24 -1.78891,-0.24 -1.13408,0 -1.54667,0.12314 -1.54667,0.4616 0,0.45426 0.86953,0.62225 3.94667,0.76249 0.85782,0.0391 1.18609,-0.0644 1.09174,-0.34409 z M 82.56,220.02613 c -3.427987,-0.47367 -8.558141,-3.32659 -11.339875,-6.30619 -2.670288,-2.86023 -4.183837,-5.84983 -2.054506,-4.05812 1.292128,1.08725 3.918547,2.427 5.554381,2.83331 1.79935,0.44693 5.787203,0.40179 7.656739,-0.0867 3.130906,-0.81801 5.948279,-2.85817 7.887978,-5.71196 0.514406,-0.75682 0.935283,-1.60604 0.935283,-1.88715 0,-0.64745 1.2828,-4.27928 1.70736,-4.83384 0.931232,-1.21637 1.514232,-8.1456 1.277442,-15.18297 -0.19146,-5.68974 -0.41797,-7.02575 -0.879455,-5.18706 -0.112221,0.44712 -0.70383,1.88046 -1.314691,3.1852 -0.610861,1.30475 -1.110656,2.43348 -1.110656,2.5083 0,0.33214 -2.218627,3.7684 -3.633021,5.62689 -0.85416,1.12236 -1.71816,2.50513 -1.92,3.07283 -0.599379,1.68582 -4.961789,5.11883 -8.846979,6.96214 -3.296915,1.56421 -5.105101,1.90707 -9.410202,1.78435 l -3.951952,-0.11262 -2.678924,-1.39749 c -3.469216,-1.80977 -4.611354,-2.66659 -6.668288,-5.00251 -1.639364,-1.86171 -3.762055,-5.81286 -3.334103,-6.20605 0.116099,-0.10667 0.286429,0.022 0.378509,0.28605 0.285773,0.81931 2.66415,2.80294 4.52679,3.77546 2.637322,1.377 4.750807,1.77924 8.307712,1.58113 3.426,-0.19082 6.821943,-1.30668 8.109098,-2.66455 0.396749,-0.41854 0.879514,-0.76347 1.072816,-0.76651 0.518922,-0.008 3.151878,-3.10256 4.361203,-5.12553 C 78.545642,184.84926 83.2,175.45607 83.2,174.98883 c 0,-0.73571 -0.807539,-0.30775 -2.220669,1.17684 -2.974704,3.12514 -7.915424,6.03121 -12.339331,7.25783 -1.056,0.2928 -2.28,0.68179 -2.72,0.86442 -1.25679,0.52165 -6.031165,1.2223 -8.32,1.22098 -3.728637,-0.002 -8.265293,-0.98376 -9.6,-2.07718 -0.264,-0.21627 -0.842349,-0.47886 -1.285222,-0.58353 -1.18576,-0.28025 -4.113271,-2.56959 -5.59369,-4.37432 -1.647917,-2.00893 -3.88145,-6.40133 -3.255069,-6.40133 0.08203,0 0.864576,0.70053 1.738986,1.55673 1.545245,1.51306 4.003776,2.88501 7.274995,4.0597 2.21711,0.79617 10.220202,0.85117 12.32847,0.0847 0.787341,-0.28623 1.833354,-0.61029 2.324471,-0.72014 1.284672,-0.28734 5.597341,-2.34792 7.164717,-3.42328 0.735708,-0.50476 1.448387,-0.91775 1.583728,-0.91775 0.260412,0 0.64,-0.35594 4.85647,-4.55384 2.687699,-2.67588 7.422144,-8.69899 7.422144,-9.44238 0,-0.65731 -0.531933,-0.46441 -1.331555,0.48288 -1.145008,1.35645 -6.384883,6.15334 -6.721591,6.15334 -0.16368,0 -1.046681,0.47834 -1.962227,1.06297 -2.299062,1.4681 -6.359968,2.96061 -10.711149,3.9367 -3.182035,0.71382 -4.202441,0.804 -7.710428,0.68139 -3.284724,-0.1148 -4.538218,-0.30484 -6.68305,-1.01319 -1.452,-0.47953 -2.64,-1.02398 -2.64,-1.20987 0,-0.22178 0.3576,-0.24785 1.04,-0.0758 1.292499,0.32584 3.477658,0.2856 6.8,-0.12523 2.867875,-0.35462 3.070723,-0.41504 5.76,-1.71542 3.414678,-1.65114 4.526211,-2.3375 6.923898,-4.27544 2.92504,-2.36418 4.50855,-3.55465 6.357206,-4.77931 3.324611,-2.20241 8.183088,-6.6561 9.86905,-9.04679 0.848432,-1.20308 0.61927,-1.29066 -0.789053,-0.30155 -3.174605,2.2296 -4.869021,3.32658 -5.721101,3.70386 -1.889062,0.83644 -2.899008,1.23112 -4.16,1.62571 -3.945363,1.23458 -7.085728,2.83065 -12.32,6.26152 -6.173667,4.04661 -11.226083,5.83828 -15.36,5.44689 -4.273776,-0.40463 -4.391501,-0.44108 -7.84,-2.42748 -1.24624,-0.71786 -4.966248,-4.61287 -5.231208,-5.47731 -0.07277,-0.2374 -0.300302,-0.64764 -0.505634,-0.91164 -0.32417,-0.4168 -1.335484,-2.84518 -1.899035,-4.56 -0.276671,-0.84188 0.408408,-0.67391 0.73295,0.1797 0.461207,1.21306 3.873625,4.09415 6.102927,5.15267 1.96512,0.93308 2.292086,0.98763 5.92,0.98763 2.890829,0 4.275037,-0.14649 5.6,-0.59264 3.581398,-1.20596 9.005334,-4.98057 8.05016,-5.60225 -0.236413,-0.15387 -1.050662,-0.20979 -1.80944,-0.12427 -2.954733,0.33304 -8.623293,-1.21877 -11.713213,-3.20658 C 38.891914,147.8431 36.16,145.45127 36.16,145.05293 c 0,-0.10438 1.188,0.4418 2.64,1.21371 1.452,0.77192 3.432,1.60005 4.4,1.8403 2.500566,0.62062 11.074717,0.54566 13.6,-0.11889 2.544413,-0.66959 8.505578,-3.15525 9.294234,-3.87547 0.344169,-0.31431 1.417766,-1.14156 2.385766,-1.83835 0.968,-0.69679 2.653251,-2.12829 3.745005,-3.18111 1.948774,-1.87928 5.854995,-6.45262 5.854995,-6.85494 0,-0.11254 0.946307,-1.6536 2.102906,-3.42457 2.4643,-3.77329 2.803382,-4.5542 2.554214,-5.88239 -0.152726,-0.8141 0.114797,-1.46602 1.520282,-3.7047 2.199299,-3.50308 5.449907,-7.51707 8.423913,-10.40222 1.297277,-1.25852 2.358687,-2.5118 2.358687,-2.78507 0,-0.27326 0.36814,-0.75556 0.81808,-1.07178 0.44995,-0.31622 1.56595,-1.1631 2.48,-1.88197 0.91406,-0.71887 2.453918,-1.71714 3.421918,-2.21837 6.11416,-3.165963 8.20261,-3.98467 10.18104,-3.991131 0.58357,-0.0019 1.34566,-0.155792 1.69355,-0.341971 0.34787,-0.186179 1.16641,-0.294179 1.81896,-0.24 l 1.18645,0.09854 -1.28,0.417146 c -5.40857,1.762624 -9.11533,4.672976 -9.1188,7.159616 -0.001,0.95798 1.29112,2.18323 2.30299,2.18323 0.33984,0 0.93242,0.1637 1.31685,0.36378 1.09909,0.57204 3.78299,2.57886 3.64007,2.72178 -0.0709,0.0709 -1.36467,-0.30719 -2.87498,-0.84026 -2.62683,-0.92715 -3.00046,-0.97261 -8.60846,-1.04726 l -5.862448,-0.078 -1.37086,1.12 c -0.75397,0.616 -1.885584,1.984 -2.514695,3.04 -1.079929,1.81272 -1.135158,2.04153 -0.988406,4.09504 0.193913,2.71341 0.978397,3.74496 2.848021,3.74496 1.08393,0 1.2856,-0.13183 1.8357,-1.2 0.3399,-0.66 1.34408,-1.73776 2.23152,-2.39502 2.484598,-1.84015 5.524588,-2.29935 9.084178,-1.37219 2.20259,0.5737 2.68758,0.95973 4.94213,3.93375 1.87948,2.47925 2.47628,2.95346 3.71697,2.95346 1.09888,0 1.66022,-0.8281 1.66022,-2.44918 0,-1.62319 0.47995,-1.66449 1.0033,-0.0863 0.56535,1.70481 1.0767,9.07675 1.0767,15.52244 0,3.55835 0.12553,5.93288 0.32,6.05307 0.176,0.10877 0.32,0.55777 0.32,0.99777 0,1.35625 -0.57621,0.52918 -0.97763,-1.40323 -0.67393,-3.24436 -2.4244,-7.98179 -4.28415,-11.59454 -0.4077,-0.792 -0.92041,-2.016 -1.13935,-2.72 -0.21895,-0.704 -0.74026,-1.73839 -1.15848,-2.29865 C 112.34218,122.65363 112,122.09665 112,121.97614 c 0,-0.34661 -1.89423,-2.41266 -3.25223,-3.54724 -2.24092,-1.87223 -8.10777,-3.1142 -8.10777,-1.71636 0,0.3592 0.52491,0.5252 2.08574,0.65961 2.12372,0.18288 4.74722,1.29196 6.34941,2.68419 0.77703,0.67521 2.33937,3.01944 3.32121,4.98336 0.50884,1.01781 2.47747,6.89778 2.48179,7.41272 0.002,0.27367 -2.28165,-0.0588 -2.71815,-0.39565 -0.176,-0.13583 -0.86129,-0.34811 -1.52286,-0.47174 -0.97179,-0.18161 -1.5558,-0.0488 -3.04,0.69136 -1.52176,0.75887 -2.24157,0.91615 -4.19297,0.91615 h -2.35582 l -1.324178,-1.46578 c -1.18737,-1.31434 -1.80985,-2.66202 -2.62055,-5.67356 -0.16848,-0.62587 -0.34211,-0.70791 -1.13132,-0.53458 -0.79649,0.17494 -0.9323,0.10784 -0.9323,-0.46065 0,-0.51798 -0.20174,-0.66543 -0.9104,-0.66543 -1.397164,0 -1.965957,0.87481 -1.992962,3.0652 -0.01286,1.04214 -0.164048,2.6868 -0.335997,3.6548 -0.171952,0.968 -0.361203,2.19727 -0.42056,2.73171 -0.178416,1.60641 -0.804605,6.78487 -1.314214,10.86829 -0.620349,4.97075 -0.589251,7.70054 0.145814,12.8 0.926592,6.42816 3.656049,12.63065 6.565239,14.91902 0.59654,0.46924 0.82308,0.52654 0.82308,0.20821 0,-0.24158 -0.1704,-0.60963 -0.37867,-0.8179 -0.58794,-0.58794 -0.15969,-0.73616 0.93412,-0.32329 1.31043,0.49463 1.853438,0.0393 2.483538,-2.08247 0.87622,-2.95054 0.52144,-10.41612 -0.6113,-12.86357 -0.937188,-2.02492 -1.452188,-3.68 -1.145098,-3.68 0.17457,0 0.3219,0.108 0.3274,0.24 0.005,0.132 0.860088,1.14391 1.899108,2.24869 1.41949,1.50933 2.47108,2.27485 4.23001,3.07932 3.23545,1.47976 3.9549,2.40266 4.49699,5.7686 0.17214,1.06887 0.3787,3.50647 0.45902,5.41691 0.11667,2.77524 0.0615,3.44538 -0.27455,3.33348 -0.23269,-0.0775 -0.59332,-1.0914 -0.80728,-2.26974 -0.2127,-1.17132 -0.52248,-2.38339 -0.68842,-2.69347 -0.16594,-0.31008 -0.40534,-1.25493 -0.532,-2.09964 -0.56162,-3.74552 -2.96813,-2.95265 -3.69555,1.21757 -0.41583,2.38386 -0.39071,6.424 0.0557,8.95828 0.29583,1.67945 2.08156,7.402 2.44633,7.8395 0.0731,0.0877 0.31709,-0.0923 0.5421,-0.4 0.22501,-0.30773 0.48189,-0.5595 0.57084,-0.5595 0.35146,0 0.46634,4.61769 0.14215,5.71375 -0.18972,0.64144 -1.18993,2.28735 -2.2227,3.65758 -1.03275,1.37023 -2.17026,3.15263 -2.5278,3.96089 -0.79134,1.78896 -1.13935,5.94485 -0.62765,7.49532 0.1983,0.60085 0.35523,1.20402 0.34872,1.34038 -0.006,0.13636 0.19908,0.64036 0.45685,1.12 0.77273,1.43788 1.79815,3.77336 1.79815,4.09547 0,0.69493 -4.64415,5.57661 -5.305278,5.57661 -0.13438,0 -0.47167,0.20398 -0.74952,0.4533 -0.27786,0.24931 -1.8012,1.10291 -3.3852,1.89688 -3.984472,1.99719 -7.861951,2.51207 -13.280002,1.76341 z m 31.04,-89.03679 c 0,-0.57071 -1.165,-1.33041 -2.48469,-1.62026 -1.63358,-0.35879 -1.30405,0.54703 0.48469,1.33234 1.87292,0.82227 2,0.84056 2,0.28792 z m -6.50812,-0.41524 c 2.18684,-0.68934 2.20266,-1.1575 0.0281,-0.83258 -0.924,0.13806 -2.59647,0.2438 -3.7166,0.23498 -1.98929,-0.0156 -2.06803,-0.0493 -3.3892,-1.4476 -0.743938,-0.78737 -1.427748,-1.64416 -1.519588,-1.90397 -0.0918,-0.25981 -0.28458,-0.36252 -0.42829,-0.22823 -0.14372,0.13429 0.0178,0.92629 0.35895,1.76 0.50156,1.22575 0.89531,1.6511 2.057498,2.22265 1.7679,0.86943 4.2379,0.94221 6.60911,0.19475 z M 105.6,129.03683 c 0,-0.0856 -0.54,-0.38093 -1.2,-0.65621 -1.35189,-0.56387 -3.28,-2.29264 -3.28,-2.9409 0,-0.23499 0.216,-0.51015 0.48,-0.61146 0.59959,-0.23008 0.61163,-0.77338 0.0346,-1.56248 -0.35049,-0.47931 -0.54152,-0.52929 -0.89665,-0.23455 -0.24821,0.20599 -0.753908,0.29539 -1.123778,0.19866 -0.95007,-0.24844 -1.17791,0.73155 -0.57041,2.45341 0.59251,1.67933 1.272938,2.49399 2.556208,3.06044 0.90758,0.40061 4,0.62721 4,0.29309 z m 3.19655,-5.44013 c 0.62107,-0.74834 0.1384,-2.08416 -0.75305,-2.08416 -1.06069,0 -1.80265,0.93612 -1.45837,1.84 0.32002,0.84018 1.59953,0.98145 2.21142,0.24416 z M 93.12,121.99254 c 0,-0.264 -0.135501,-0.48 -0.301114,-0.48 -0.403513,0 -0.692512,0.49971 -0.436854,0.75537 0.360381,0.36037 0.737968,0.21948 0.737968,-0.27537 z m 20.00573,94.88588 c -0.68428,-0.70078 -1.15713,-1.36114 -1.05079,-1.46749 0.18729,-0.18729 1.56499,1.03968 2.44961,2.18161 0.81869,1.05682 -0.15486,0.5598 -1.39882,-0.71412 z m 41.6001,-3.08577 c -0.64245,-0.64244 -0.51907,-1.69712 0.25356,-2.16743 0.47655,-0.29008 0.71813,-0.1931 1.36105,0.54639 0.62342,0.71705 0.71439,1.02478 0.44936,1.52 -0.40498,0.7567 -1.36149,0.80353 -2.06397,0.10104 z m 8.55939,-2.13162 c 0.48688,-0.38967 2.05289,-1.71649 3.48003,-2.94849 2.56464,-2.21396 2.8861,-2.40596 3.07573,-1.83707 0.11027,0.33081 -4.34913,4.11412 -5.82712,4.94366 -1.37296,0.77058 -1.77893,0.6825 -0.72864,-0.1581 z m 8.02255,-6.46102 c -1.59666,-1.11835 -1.01368,-3.68747 0.83675,-3.68747 1.76016,0 2.54087,1.87328 1.43734,3.4488 -0.57884,0.8264 -1.32342,0.90454 -2.27409,0.23867 z m -19.17421,-0.85026 c -0.99944,-1.61712 -1.49999,-10.74154 -0.62892,-11.46446 0.88406,-0.73371 1.64035,-0.0564 2.75917,2.47098 0.96683,2.18404 1.09619,2.79585 1.09619,5.18434 0,2.51692 -0.0527,2.73454 -0.74694,3.08294 -0.41082,0.20618 -0.90762,0.53555 -1.104,0.73193 -0.4593,0.4593 -1.08973,0.45667 -1.3755,-0.006 z m 3.8893,-8.46007 c -0.61329,-0.61328 -0.63515,-1.1139 -0.0817,-1.87078 0.61949,-0.84719 1.63755,-0.52609 1.76197,0.55573 0.0993,0.8632 -0.38358,1.81791 -0.91945,1.81791 -0.14187,0 -0.48424,-0.22628 -0.76081,-0.50286 z m 4.69714,-1.63047 c -0.22,-0.088 -0.4,-0.652 -0.4,-1.25334 0,-0.95976 0.1001,-1.09333 0.81932,-1.09333 0.74839,0 0.81072,0.10173 0.72,1.17526 -0.0993,1.17533 -0.38786,1.47199 -1.13932,1.17141 z m -6.48,-4.43874 c 0,-0.53104 0.19557,-1.24957 0.4346,-1.59673 0.23903,-0.34716 0.53856,-1.19788 0.66562,-1.8905 0.19342,-1.05429 0.12468,-1.3408 -0.42228,-1.76 -0.62265,-0.4772 -0.62761,-0.53422 -0.10563,-1.215 0.4558,-0.59446 0.74902,-0.6814 1.74769,-0.51814 1.37626,0.22499 1.50332,0.4676 0.48,0.91656 -0.59547,0.26124 -0.71849,0.56495 -0.71127,1.75588 0.005,0.792 0.12424,1.908 0.26542,2.48 0.20586,0.83402 0.15916,1.04 -0.23578,1.04 -0.27086,0 -0.8583,0.39453 -1.30542,0.87673 L 154.24,190.786 Z m 3.68183,-1.58793 c 0.11775,-0.352 0.52241,-1.55388 0.89924,-2.67083 0.67379,-1.99718 0.67497,-2.03828 0.0709,-2.48 -0.46695,-0.34144 -0.4987,-0.44917 -0.13238,-0.44917 0.26504,0 0.71319,-0.48504 0.99589,-1.07787 0.29862,-0.6262 0.82629,-1.15174 1.25927,-1.25416 0.4099,-0.097 1.06927,-0.27672 1.46527,-0.39946 1.13348,-0.35131 0.85354,0.38233 -0.29922,0.78418 -2.18695,0.76238 -2.7271,2.26034 -1.70078,4.71667 0.65572,1.56937 0.61829,1.71064 -0.45331,1.71064 -0.63687,0 -1.15337,0.27951 -1.62612,0.88 -0.50719,0.64421 -0.63546,0.70852 -0.47874,0.24 z m 4.82962,-3.8829 c 0.12224,-0.50441 0.35594,-1.2771 0.51931,-1.7171 0.28856,-0.77715 0.31008,-0.78226 0.75314,-0.17884 0.6397,0.87121 0.55593,1.19193 -0.53701,2.05594 l -0.95771,0.7571 z m -49.6841,-1.3171 c 0.10009,-0.308 0.41202,-1.424 0.69316,-2.48 0.28114,-1.056 0.78474,-2.856 1.11912,-4 1.18301,-4.04753 1.40541,-7.71057 0.961,-15.82844 -0.22457,-4.10224 -0.31236,-7.84093 -0.19509,-8.30818 0.35873,-1.42929 0.83381,-0.57809 0.84586,1.51551 0.0124,2.15448 0.70944,5.54995 1.25038,6.09089 0.21818,0.21818 0.33752,2.95602 0.33625,7.71422 -0.002,5.91766 -0.0965,7.55722 -0.48,8.29258 -0.26292,0.50412 -0.47803,1.17049 -0.47803,1.48082 0,0.31033 -0.216,0.7435 -0.48,0.9626 -0.264,0.2191 -0.48,0.5697 -0.48,0.7791 0,0.4 -2.82228,4.3409 -3.10874,4.3409 -0.0913,0 -0.084,-0.252 0.0161,-0.56 z m 31.32599,-9.73466 c -0.51991,-0.51991 -0.4961,-1.05841 0.0976,-2.20645 0.44122,-0.85323 0.44122,-1.0957 0,-2.39529 -0.61508,-1.81166 -0.61916,-2.3836 -0.017,-2.3836 0.59967,0 1.00473,1.9673 1.21747,5.913 0.073,1.35406 -0.52351,1.84686 -1.29803,1.07234 z m 8.00666,0.14624 c -0.26758,-0.0969 -0.4,-0.87907 -0.4,-2.36259 0,-1.21972 -0.12712,-2.46772 -0.28249,-2.77333 -0.29606,-0.58238 -1.63751,-4.92277 -1.63751,-5.29836 0,-0.11952 0.11871,-0.2173 0.26381,-0.2173 0.58627,0 3.55665,7.7436 3.57139,9.3104 0.006,0.64977 -0.98997,1.53145 -1.5152,1.34118 z m 7.28,-3.97252 c 0,-0.26892 -0.864,-2.24291 -1.92,-4.38665 -2.35943,-4.78978 -2.59509,-6.58617 -0.32171,-2.45241 1.89275,3.44164 3.02671,6.543 2.56218,7.00753 -0.21396,0.21396 -0.32047,0.15797 -0.32047,-0.16847 z m -11.62667,-0.17239 c -0.32337,-0.32337 -0.25511,-1.96308 0.0906,-2.17675 0.37471,-0.23159 0.97605,0.83366 0.97605,1.72904 0,0.63388 -0.62019,0.89418 -1.06667,0.44771 z m 7.57414,-1.56818 c -0.10585,-0.27583 -0.0283,-0.66566 0.17233,-0.86629 0.45038,-0.45038 1.51735,0.46992 1.17918,1.01709 -0.31939,0.51679 -1.13005,0.42634 -1.35151,-0.1508 z m 40.53253,-6.3596 c 0,-2.46973 0.12353,-4.01889 0.32045,-4.01889 0.41016,0 0.38702,7.60053 -0.0239,7.8545 -0.17602,0.1088 -0.29652,-1.44987 -0.29652,-3.83561 z m -57.04,2.67978 c -0.39517,-0.2332 -0.56,-0.73517 -0.56,-1.70541 0,-1.40898 0.76684,-3.39326 1.31136,-3.39326 0.97228,0 1.25251,5.19548 0.28864,5.35146 -0.264,0.0427 -0.732,-0.071 -1.04,-0.25279 z m 5.04,-4.75625 c -2.58123,-0.43856 -3.62568,-1.60811 -3.9118,-4.38032 -0.0988,-0.95748 -0.30309,-1.81714 -0.45394,-1.91037 -0.15084,-0.0932 -0.28058,-1.349 -0.2883,-2.79062 -0.008,-1.44161 -0.22156,-3.19711 -0.47519,-3.90111 -0.30937,-0.85876 -0.46272,-2.62498 -0.46595,-5.36686 -0.005,-4.05082 0.002,-4.09007 0.79518,-4.45136 1.14117,-0.51996 1.14747,-2.5205 0.0103,-3.26561 -0.98683,-0.64659 -0.74138,-1.47617 0.43674,-1.47617 0.55109,0 1.3598,0.4536 2.25809,1.26655 0.76974,0.6966 1.52688,1.18783 1.68255,1.09162 0.15566,-0.0962 0.18729,-0.84615 0.0703,-1.66654 -0.14632,-1.02585 -0.10923,-1.39171 0.11875,-1.17163 0.36738,0.35463 1.03862,3.36971 1.24673,5.6 0.0739,0.792 0.22072,1.656 0.32627,1.92 0.10554,0.264 0.16169,0.61002 0.12479,0.76892 -0.0369,0.15891 0.2132,1.23891 0.5558,2.4 0.34261,1.1611 0.79803,2.90308 1.01206,3.87108 0.47181,2.13394 1.29277,4.84262 1.60028,5.28 0.40976,0.5828 0.95752,3.30165 0.94725,4.7017 -0.007,0.9767 -0.22675,1.62419 -0.75361,2.22221 -1.35866,1.54216 -2.07288,1.72802 -4.83628,1.25851 z m 11.25333,0.0842 c -0.11733,-0.11734 -0.21333,-0.36214 -0.21333,-0.544 0,-0.20052 0.14905,-0.18162 0.37867,0.048 0.20826,0.20826 0.30426,0.45306 0.21333,0.544 -0.0909,0.0909 -0.26133,0.0693 -0.37867,-0.048 z m -46.53845,-5.40821 c 0.0998,-0.0999 -0.0991,-0.97994 -0.44205,-1.95577 -0.74786,-2.1278 -1.16968,-5.86269 -0.66213,-5.86269 0.18879,0 0.43899,0.828 0.556,1.84 0.11702,1.012 0.41538,2.55014 0.66302,3.41808 0.5481,1.92091 0.57114,2.74192 0.0769,2.74192 -0.20534,0 -0.29164,-0.0817 -0.19179,-0.18154 z m 43.58789,-0.16634 c -0.11825,-0.19134 -0.0673,-0.49559 0.11323,-0.67612 0.40372,-0.40372 1.024,-0.0628 1.024,0.56289 0,0.53875 -0.82356,0.62075 -1.13723,0.11323 z m 24.38683,-8.23732 c -0.32493,-0.35903 -0.5296,-1.1327 -0.5296,-2.00188 0,-1.26548 0.10219,-1.46192 0.9574,-1.84048 1.66066,-0.73508 3.27402,0.10575 4.58577,2.38995 0.11446,0.19931 -0.0884,0.73931 -0.45076,1.2 -0.56183,0.71426 -0.90732,0.83761 -2.34604,0.83761 -1.22811,0 -1.83128,-0.15923 -2.21677,-0.5852 z M 43.84,144.49853 c -2.555491,-1.05637 -3.237571,-1.4347 -5.182605,-2.87461 -3.067875,-2.27115 -6.405817,-7.01823 -7.278642,-10.35138 -0.398383,-1.52135 -0.413052,-10.28242 -0.01875,-11.2 0.210938,-0.49088 0.282914,-0.30448 0.308908,0.8 0.06066,2.57756 1.488263,7.42621 2.685226,9.12 1.00768,1.42594 3.157498,3.57206 4.471357,4.46367 1.848592,1.25449 3.263955,1.52244 7.420538,1.40482 3.669837,-0.10385 3.936717,-0.15904 6.233981,-1.28933 2.593395,-1.27598 5.11999,-3.23217 5.11999,-3.96409 0,-0.32902 -0.421021,-0.45612 -1.52,-0.45887 -2.808784,-0.007 -6.146896,-1.23149 -8.24,-3.02256 l -0.96,-0.82148 0.96,0.20819 c 0.528,0.1145 1.202534,0.33226 1.498963,0.48392 1.009754,0.51659 5.927552,0.30393 8.420467,-0.36412 2.559866,-0.68599 5.92057,-2.5989 5.92057,-3.36998 0,-0.38512 -0.638042,-0.47017 -3.527302,-0.47017 -3.24538,0 -3.724932,-0.0822 -6,-1.02865 -2.539367,-1.05637 -5.158183,-2.85653 -6.343357,-4.36037 C 46.413123,115.6319 44.8,113.18534 44.8,112.83939 c 0,-0.19784 -0.276512,-0.88332 -0.614467,-1.52328 -1.087117,-2.05858 -1.358471,-3.33228 -1.475031,-6.92357 -0.07504,-2.31205 -0.03024,-3.02584 0.130525,-2.08 0.213805,1.2578 1.048557,3.18783 2.643895,6.11292 0.440323,0.80735 1.899529,2.51435 3.413888,3.99364 0.406345,0.39693 1.887712,1.31942 3.291926,2.04997 2.522742,1.31247 2.586278,1.32671 5.341187,1.19644 2.94233,-0.13912 5.530407,-0.92237 9.129015,-2.76277 1.981273,-1.01326 2.426147,-0.85583 1.806812,0.63937 -0.216643,0.52303 -0.292665,1.05218 -0.168937,1.17591 0.294441,0.29444 1.187446,-0.87459 2.631939,-3.44548 1.201478,-2.13838 2.405728,-3.82158 4.100624,-5.73152 2.043898,-2.30323 5.185994,-5.672327 6.512771,-6.983295 1.351133,-1.335037 3.955607,-3.285178 4.387459,-3.285178 0.118964,0 0.741018,-0.408394 1.382346,-0.907539 2.586528,-2.013101 12.803598,-7.412461 14.026408,-7.412461 0.3255,0 2.04146,-0.696298 4.73964,-1.923235 3.13996,-1.427831 12.23203,-3.993203 16.96,-4.785344 1.232,-0.206413 2.672,-0.497741 3.2,-0.647392 0.528,-0.149651 2.472,-0.514794 4.32,-0.811427 1.848,-0.296634 3.792,-0.731876 4.32,-0.967204 1.43013,-0.637408 3.65191,-1.160531 4.0042,-0.942803 0.34816,0.215178 -0.9298,2.949587 -2.12,4.536055 -0.42031,0.560256 -0.7642,1.140576 -0.7642,1.289596 0,0.639178 -5.47039,5.485687 -7.52,6.662372 -3.36375,1.931129 -9.4789,4.16375 -13.12,4.790064 -0.704,0.121097 -2,0.358656 -2.88,0.52791 -0.88,0.169251 -2.536,0.431734 -3.68,0.583293 -1.144,0.151558 -3.448,0.649542 -5.12,1.106627 -1.672,0.457085 -3.44616,0.891709 -3.942578,0.96583 -0.49642,0.07412 -1.07242,0.2692 -1.28,0.433511 -0.20758,0.164307 -0.95342,0.478819 -1.65742,0.698915 -1.51675,0.474192 -3.957512,1.712685 -5.81766,2.952005 -0.735708,0.49017 -1.427372,0.89122 -1.53703,0.89122 -0.109658,0 -1.235712,0.77992 -2.502346,1.73316 -2.807881,2.11314 -8.075459,7.26872 -10.462966,10.24051 -0.968,1.20489 -1.90472,2.35173 -2.081603,2.54852 -0.929015,1.03361 -2.718397,3.95661 -2.718397,4.44058 0,0.38722 0.254662,0.55723 0.834691,0.55723 0.74632,0 0.811811,0.0912 0.618589,0.86102 -0.118858,0.47356 -0.705773,1.66156 -1.304256,2.64 -0.598486,0.97844 -1.451834,2.42698 -1.89633,3.21898 -2.271875,4.04802 -4.584531,6.94162 -8.092598,10.12546 -3.049926,2.76803 -5.094019,4.06044 -8.34024,5.27322 -2.129229,0.79548 -2.889965,0.91624 -5.659856,0.8985 -1.76,-0.0113 -3.56,-0.16931 -4,-0.35119 z m 24.59056,-28.56936 c 0.07072,-0.36481 -0.0446,-0.51867 -0.32,-0.42697 -0.236806,0.0789 -0.480314,0.40003 -0.54112,0.71371 -0.07072,0.36481 0.0446,0.51867 0.32,0.42697 0.236806,-0.0789 0.480314,-0.40003 0.54112,-0.71371 z m 85.48984,24.29545 c -3.13582,-1.22078 -4.4804,-2.49023 -4.4804,-4.23004 0,-0.63575 0.18746,-1.13406 0.46697,-1.24132 0.4662,-0.1789 2.6771,1.18819 4.49303,2.7782 0.528,0.46232 1.50784,1.16778 2.17742,1.56769 0.89281,0.53325 1.19145,0.9084 1.12,1.40699 -0.13765,0.96064 -0.69253,0.91928 -3.77702,-0.28152 z m 18.5596,0.21729 c -0.264,-0.15614 -1.92351,-0.37372 -3.6878,-0.48351 -1.76429,-0.10978 -4.35629,-0.49758 -5.76,-0.86176 -3.10353,-0.80518 -9.20839,-3.53053 -8.78953,-3.92384 0.0865,-0.0812 1.38133,0.43036 2.87733,1.13693 3.75598,1.77396 3.71028,1.75725 6.4,2.33933 1.66341,0.35998 4.75709,0.57072 10.08,0.68663 9.59664,0.20898 10.49256,0.0204 13.39484,-2.81955 1.05507,-1.03241 1.98128,-1.81414 2.05824,-1.73719 0.24328,0.24328 -1.32151,2.54032 -2.29816,3.37359 -0.51571,0.44 -1.45454,0.99722 -2.08629,1.23826 -2.0304,0.7747 -11.30384,1.57441 -12.18863,1.05111 z m -70.87234,-3.90525 c -0.81189,-0.24507 -2.057458,-1.38502 -2.080538,-1.90412 -0.004,-0.088 1.252878,-0.16 2.792878,-0.16 1.54,0 3.21926,-0.11658 3.73169,-0.25907 0.91273,-0.2538 0.92185,-0.24425 0.44807,0.4693 -1.08571,1.63518 -3.09462,2.39647 -4.8921,1.85389 z m 61.96593,-0.78232 c -1.11452,-0.22106 -2.33852,-0.54394 -2.72,-0.71752 -0.38147,-0.17358 -1.26959,-0.49149 -1.97359,-0.70648 -0.704,-0.21498 -1.712,-0.57914 -2.24,-0.80924 -4.76777,-2.07782 -6.13418,-3.05918 -7.37711,-5.29829 -1.00543,-1.81125 -1.14608,-1.95279 -1.58147,-1.59145 -0.46671,0.38733 -0.79856,-1.50732 -0.80632,-4.60348 -0.006,-2.48601 -0.34257,-3.11927 -1.2301,-2.31607 -0.61179,0.55367 -0.6466,0.55041 -0.99079,-0.0927 -0.44427,-0.83013 -1.21528,-0.83922 -2.25421,-0.0266 -1.0626,0.83117 -2.3802,0.80623 -3.18753,-0.0603 -0.35886,-0.38519 -0.65679,-0.81719 -0.66207,-0.96 -0.005,-0.14281 -0.01,-3.49966 -0.01,-7.45966 0,-3.96 0.004,-7.32395 0.01,-7.47543 0.005,-0.15148 0.6936,-0.35816 1.5296,-0.45928 0.836,-0.10111 2.62656,-0.69717 3.97903,-1.32457 1.35246,-0.6274 2.62207,-1.14072 2.82135,-1.14072 0.19928,0 0.8343,-0.36 1.41118,-0.799997 0.57687,-0.44 1.21721,-0.799999 1.42299,-0.799999 0.20577,0 0.62418,-0.137024 0.92979,-0.304499 0.83558,-0.457891 2.69299,-1.20449 3.59566,-1.445293 0.44,-0.117379 1.232,-0.334685 1.76,-0.482902 4.61482,-1.295459 5.9366,-1.593235 7.10111,-1.599773 0.73762,-0.0042 1.41887,-0.133331 1.51389,-0.287085 0.17637,-0.285373 4.37518,-0.659405 7.545,-0.672109 2.22952,-0.0089 4.95566,0.256391 6.4,0.622887 2.03809,0.517161 4.95249,1.388208 5.44,1.625891 0.264,0.12871 0.84,0.378029 1.28,0.554042 1.06426,0.425734 3.62296,2.31255 3.41629,2.51921 -0.0898,0.0898 -0.93117,-0.32754 -1.86976,-0.927383 -1.73031,-1.105824 -2.857,-1.568477 -6.75325,-2.773095 -1.89941,-0.587252 -2.97287,-0.669898 -8.70111,-0.669898 -3.68326,0 -6.61465,0.129853 -6.71833,0.297603 -0.10116,0.163683 -1.00966,0.390355 -2.01888,0.503712 -1.00923,0.11336 -2.37788,0.41144 -3.04144,0.662397 -0.66356,0.25096 -1.67156,0.457174 -2.24,0.458259 -0.56844,9.6e-4 -1.4156,0.201322 -1.88259,0.444973 -0.46698,0.243654 -1.40298,0.62105 -2.08,0.838659 -2.61865,0.841703 -5.13425,2.29371 -6.64346,3.83461 -1.45545,1.48602 -1.54226,1.66211 -1.16596,2.36523 0.30981,0.57888 0.79826,0.82077 2.05253,1.01644 2.22875,0.3477 9.06062,0.31663 10.44596,-0.0475 0.616,-0.16192 2.128,-0.22239 3.36,-0.13439 2.12966,0.15212 2.19271,0.17901 1.28,0.54596 -0.528,0.21229 -1.752,0.62979 -2.72,0.9278 -0.968,0.298 -1.976,0.71218 -2.24,0.92038 -0.264,0.20821 -0.9916,0.61198 -1.61689,0.89728 -1.19924,0.54716 -2.57446,1.82858 -1.96244,1.82858 0.19793,0 0.87262,-0.288 1.49933,-0.64 0.62671,-0.352 1.29959,-0.64 1.4953,-0.64 0.19571,0 1.63037,-0.504 3.18813,-1.12 1.55776,-0.616 3.16446,-1.12 3.57043,-1.12 0.40598,0 0.91352,-0.17538 1.12786,-0.38972 0.27016,-0.27016 2.27783,-0.42693 6.544,-0.511 5.45734,-0.10755 6.43979,-0.0459 8.67547,0.54472 1.38666,0.3663 2.68266,0.7924 2.88,0.94688 0.19735,0.15448 0.75254,0.3749 1.23376,0.48983 1.64037,0.39174 3.65559,1.87525 4.54291,3.34427 0.81812,1.35444 0.8865,1.75498 1.057,6.19157 0.13342,3.4713 0.0835,4.74345 -0.18628,4.74345 -0.23675,0 -0.36858,-0.67998 -0.36858,-1.90111 0,-1.59212 -0.37857,-2.66031 -0.78356,-2.21093 -0.0555,0.0616 -0.25073,2.34404 -0.43376,5.07204 -0.26186,3.90283 -0.47451,5.24658 -0.99774,6.30454 -0.36571,0.7395 -0.66494,1.46628 -0.66494,1.61506 0,0.14878 -0.54,0.78115 -1.2,1.40526 -3.24323,3.06688 -4.8864,3.48814 -13.40619,3.437 -3.64388,-0.0219 -7.21808,-0.20957 -8.38022,-0.44006 z m 7.43136,-8.82484 c 0.72328,-0.36467 1.78907,-1.2866 2.36842,-2.04873 1.86692,-2.4559 2.13808,-4.73665 0.86459,-7.27212 -0.96101,-1.91331 -1.70664,-2.60793 -3.87928,-3.61388 -2.16112,-1.00062 -3.99588,-0.89405 -6.42415,0.37314 -1.60078,0.83536 -1.98588,1.22616 -2.81453,2.8562 -1.24005,2.43932 -1.25913,4.41305 -0.0652,6.74034 1.35788,2.6468 3.01466,3.57639 6.43011,3.60781 1.62456,0.0149 2.5511,-0.15424 3.52,-0.64276 z M 165.6,125.54082 c -1.95686,-0.86974 -3.04,-2.70405 -3.04,-5.14828 0,-1.91271 0.40796,-2.83045 1.69441,-3.81167 0.90127,-0.68743 1.45481,-0.83963 3.13987,-0.86333 2.44344,-0.0344 3.35433,0.34201 4.52572,1.87009 0.73165,0.95445 0.88,1.46736 0.88,3.04258 0,1.69733 -0.11851,2.03925 -1.13805,3.28347 -1.64003,2.00143 -3.8719,2.60051 -6.06195,1.62714 z m 4.832,-2.23628 c 0.94328,-0.94328 1.088,-1.29799 1.088,-2.66667 0,-1.39682 -0.13823,-1.71737 -1.2,-2.78287 -1.14847,-1.1525 -1.27488,-1.19809 -2.94394,-1.0617 -1.54282,0.12607 -1.86572,0.28339 -2.8,1.36418 -1.25187,1.44822 -1.35024,2.58449 -0.3741,4.32132 0.82934,1.4756 1.56599,1.86384 3.59004,1.89208 1.3526,0.0189 1.69179,-0.11813 2.64,-1.06634 z m -3.392,-2.39282 c 0,-0.37355 0.1355,-0.67918 0.30111,-0.67918 0.55439,0 0.65696,0.56323 0.17537,0.96292 -0.39652,0.32908 -0.47648,0.28146 -0.47648,-0.28374 z m -24.96,-1.95918 c 0,-0.36881 -0.76841,-0.36881 -1.92,0 -0.67961,0.21765 -0.59533,0.261 0.56,0.2881 0.748,0.0175 1.36,-0.1121 1.36,-0.2881 z m 10.51918,15.14761 c -0.39823,-0.48275 -0.37205,-0.49662 0.28082,-0.14874 0.74463,0.39677 0.92798,0.68113 0.43918,0.68113 -0.15445,0 -0.47845,-0.23957 -0.72,-0.53239 z m 46.40248,-1.38993 c -0.90474,-0.52862 -1.63203,-1.95817 -2.24581,-4.41432 -0.59352,-2.37508 -0.81241,-6.61408 -0.35585,-6.89133 0.132,-0.0802 0.816,0.11681 1.52,0.4377 0.704,0.3209 1.93563,0.87266 2.73695,1.22613 l 1.45694,0.64269 -0.0777,1.54072 c -0.32045,6.35226 -1.20533,8.52717 -3.03451,7.45841 z M 143.36,130.45365 c 0,-0.18638 0.144,-0.24988 0.32,-0.14111 0.176,0.10877 0.32,0.26127 0.32,0.33889 0,0.0776 -0.144,0.14111 -0.32,0.14111 -0.176,0 -0.32,-0.1525 -0.32,-0.33889 z m 52.02654,-0.57816 c -0.13784,-0.22304 -0.16421,-0.49195 -0.0586,-0.59757 0.28639,-0.28639 0.59864,0.13481 0.44396,0.59886 -0.10839,0.32517 -0.18377,0.32492 -0.38538,-0.001 z m -0.50164,-2.52295 c 0.004,-0.8926 0.0844,-1.07704 0.3151,-0.72 0.40758,0.63068 0.40758,1.92 0,1.92 -0.176,0 -0.3178,-0.54 -0.3151,-1.2 z m -53.90606,-0.58148 c -0.34164,-0.25218 -0.95364,-0.45852 -1.36,-0.45852 -0.44341,0 -0.73884,-0.19193 -0.73884,-0.48 0,-0.33192 0.33342,-0.48 1.08082,-0.48 1.14867,0 1.92125,0.62101 1.74561,1.40315 -0.0928,0.41298 -0.18627,0.41496 -0.72759,0.0154 z M 201.28,121.82674 c -0.264,-0.17348 -1.43725,-0.60484 -2.60722,-0.95859 -2.27298,-0.68726 -2.51278,-0.96172 -2.51278,-2.87594 0,-0.67539 -0.23303,-2.1376 -0.51785,-3.24935 -0.28482,-1.11175 -0.63714,-2.74338 -0.78294,-3.62584 -0.1458,-0.88246 -0.56265,-2.68448 -0.92634,-4.00448 -0.57875,-2.10058 -1.03596,-4.64446 -1.9207,-10.686614 -0.26921,-1.838569 -0.21173,-3.092985 0.518,-11.304099 0.59779,-6.726538 0.61075,-6.750714 2.23737,-4.173978 0.75735,1.199732 2.04042,1.648477 2.51549,0.879789 0.30313,-0.490467 -2.74627,-4.475091 -3.42475,-4.475091 -0.40619,0 -0.57828,-0.242301 -0.57828,-0.814234 0,-1.061552 0.96832,-5.017814 1.32408,-5.409766 0.15175,-0.1672 0.27592,-0.712938 0.27592,-1.212749 0,-0.920329 1.01887,-3.244093 1.57239,-3.586185 0.16584,-0.1025 0.40331,0.139731 0.5277,0.538288 0.12439,0.398556 0.32347,0.796646 0.44238,0.884646 0.21031,0.155629 1.00774,2.654438 2.09347,6.56 0.29356,1.056 0.81561,2.876045 1.16011,4.044544 0.62525,2.120749 1.10914,5.237424 2.07976,13.395456 0.42116,3.539786 0.4803,6.37168 0.32747,15.679993 -0.22949,13.97681 -0.3975,15.31792 -1.80328,14.3942 z m -1.66428,-10.97692 c 0.74272,-2.05396 0.31111,-3.64607 -0.74974,-2.76565 -0.47408,0.39345 -0.67006,3.19763 -0.25265,3.61504 0.3994,0.39939 0.61772,0.2144 1.00239,-0.84939 z m 0.72587,-4.2433 c 0.534,-0.64343 0.61431,-4.97792 0.0956,-5.15717 -0.88835,-0.30696 -1.39714,0.88969 -1.39714,3.28605 0,2.47474 0.36507,2.99956 1.30159,1.87112 z m 0.45818,-6.21362 c 0.33591,-0.543497 0.20132,-6.352017 -0.19534,-8.429991 -0.43761,-2.292557 -0.8289,-3.187172 -1.27377,-2.912228 -0.4296,0.265508 -0.3392,10.733552 0.0973,11.261859 0.39712,0.48071 1.09901,0.52183 1.37185,0.0804 z m -2.95388,-15.491956 c 0.55128,-0.551283 0.34693,-2.428397 -0.26437,-2.428397 -0.2342,0 -0.82986,0.360438 -1.32368,0.800976 l -0.89784,0.800979 0.75545,0.639021 c 0.89735,0.759056 1.13325,0.784608 1.73044,0.187421 z m -3.67391,35.112786 c -0.19231,-0.86121 -0.39028,-1.03447 -1.27974,-1.12 -1.37702,-0.13242 -1.22249,-0.71328 0.22364,-0.84066 1.28375,-0.11308 1.54593,0.24794 1.38641,1.90901 l -0.1028,1.07046 z M 192.64,116.23254 c 0,-0.29333 0.1548,-0.48173 0.344,-0.41867 0.1892,0.0631 0.344,0.25147 0.344,0.41867 0,0.1672 -0.1548,0.3556 -0.344,0.41867 -0.1892,0.0631 -0.344,-0.12534 -0.344,-0.41867 z M 56.16,111.35997 c -0.528,-0.0752 -1.0968,-0.2696 -1.264,-0.43205 -0.1672,-0.16246 -0.673773,-0.29538 -1.125718,-0.29538 -0.659303,0 -3.210282,-1.35988 -3.210282,-1.71135 0,-0.0485 1.534006,-0.10701 3.408902,-0.1299 4.007447,-0.0489 4.765722,-0.27495 9.16577,-2.73209 2.369869,-1.32342 5.985328,-3.96056 5.985328,-4.36574 0,-0.13932 0.828,-0.49964 1.84,-0.8007 1.012,-0.30107 2.363606,-0.82478 3.003568,-1.163797 2.233731,-1.183344 3.048371,-0.58296 1.679005,1.237407 -1.169613,1.55482 -3.167232,3.96977 -4.762573,5.75754 -1.310035,1.46804 -4.742083,3.42588 -6.88,3.92474 -0.616,0.14373 -1.696,0.41148 -2.4,0.59498 -1.267853,0.33047 -3.587504,0.38008 -5.44,0.11634 z m 124.90096,-7.84902 c -1.8415,-1.54003 -1.70004,-5.065337 0.22261,-5.547891 2.4754,-0.621286 5.32811,3.799331 3.70998,5.749061 -0.65726,0.79194 -2.88111,0.67818 -3.93259,-0.20117 z m -42.08854,-1.45452 c -0.24857,-0.15796 -0.42073,-1.36196 -0.48,-3.356721 -0.0893,-3.003706 -0.55763,-4.222839 -0.89242,-2.322842 -0.2324,1.318934 -1.6035,2.210861 -3.43621,2.235334 l -1.52379,0.02035 -0.0985,-1.361462 c -0.094,-1.299792 -0.13749,-1.352218 -0.96,-1.157408 -0.47384,0.112227 -1.34712,0.400883 -1.94061,0.641459 -1.24922,0.506381 -4.04663,0.548925 -6.12092,0.09309 -0.792,-0.174045 -2.05531,-0.402873 -2.80735,-0.508509 -1.6581,-0.232905 -2.01692,-0.652364 -0.80574,-0.941916 0.4912,-0.117428 1.03709,-0.314196 1.21309,-0.437261 0.176,-0.123066 1.256,-0.558333 2.4,-0.967264 1.144,-0.408931 3.35442,-1.522256 4.91205,-2.474061 1.55762,-0.951802 3.00209,-1.665299 3.20991,-1.585546 0.20784,0.07975 0.63277,0.953623 0.94431,1.941936 0.57031,1.809239 1.08726,2.192276 1.79988,1.333629 0.27505,-0.331424 0.32096,-1.275661 0.16126,-3.317104 l -0.22325,-2.853798 1.19516,-1.322896 c 0.65736,-0.727587 1.40287,-1.322889 1.65671,-1.322889 0.73222,0 2.984,1.967635 2.984,2.607459 0,0.35216 -0.31455,0.659296 -0.8,0.781136 -0.92229,0.231482 -1.13876,1.621498 -0.30248,1.942407 0.91657,0.351721 4.30248,-1.750474 4.30248,-2.671271 0,-0.67591 -1.38175,-2.637929 -2,-2.83991 -0.76998,-0.251549 -0.70309,-0.799651 0.27312,-2.238176 0.77373,-1.14016 0.84286,-1.536784 0.96983,-5.564653 0.15866,-5.032605 0.26452,-5.221814 2.83705,-5.070874 l 1.6,0.09388 0.35413,2.72 c 0.38964,2.992662 0.42662,3.116339 1.79719,6.010342 1.16367,2.457156 1.83983,4.907898 1.84488,6.6868 0.004,1.497914 0.73615,2.509338 1.56506,2.162797 0.28531,-0.119277 1.09474,-0.408854 1.79874,-0.643507 0.704,-0.23465 1.856,-0.643018 2.56,-0.907488 1.57729,-0.592534 3.48906,-0.644595 3.93509,-0.107155 0.1834,0.220985 0.43291,0.798035 0.55446,1.282333 0.34357,1.368873 -0.46988,2.283104 -2.62269,2.947638 -1.02677,0.316947 -2.01086,0.681078 -2.18686,0.809181 -0.176,0.128105 -1.328,0.631161 -2.56,1.117904 -1.232,0.486742 -3.48874,1.515625 -5.01497,2.286406 -1.52624,0.770781 -3.20149,1.451079 -3.72279,1.511776 -1.67947,0.195546 -3.90224,0.971639 -3.90224,1.36249 0,0.349859 2.16706,0.34504 4.72,-0.0105 0.396,-0.05515 0.72,0.0061 0.72,0.136173 0,0.411578 -0.79776,0.923578 -3.48575,2.237121 -2.5732,1.25746 -3.65675,1.50779 -4.42183,1.02157 z M 145.28,81.512547 c 0,-0.176 -0.2245,-0.32 -0.49889,-0.32 -0.27438,0 -0.40988,0.144 -0.30111,0.32 0.10877,0.176 0.33327,0.32 0.49889,0.32 0.16561,0 0.30111,-0.144 0.30111,-0.32 z m -74.56,15.68032 c -4.549763,-0.157203 -4.677104,-0.181344 -6.547968,-1.241414 -3.008611,-1.704743 -4.443168,-2.9237 -5.547085,-4.713412 -1.296921,-2.102617 -1.304736,-2.657811 -0.02221,-1.578646 1.31944,1.110237 3.003248,1.95151 5.990112,2.992816 2.128906,0.742198 2.925741,0.84984 6.127159,0.827693 7.211024,-0.04988 13.569638,-2.778391 21.121996,-9.063527 1.715728,-1.427843 2.721788,-2.126768 6.579728,-4.571049 2.043468,-1.294682 4.950458,-2.695773 6.698278,-3.228403 0.88,-0.268173 2.65625,-0.929248 3.94723,-1.46906 1.29097,-0.539811 3.23497,-1.144748 4.32,-1.344304 1.08502,-0.199558 2.62077,-0.50376 3.41277,-0.676003 0.792,-0.172246 2.448,-0.418816 3.68,-0.547933 1.232,-0.129116 2.76555,-0.48558 3.40789,-0.79214 1.21694,-0.580797 1.44142,-0.581149 10.89073,-0.01702 3.14271,0.187622 4.05441,0.568998 3.68176,1.540121 -0.27976,0.729047 -5.4353,1.433248 -10.70472,1.462173 -1.98239,0.01088 -3.85439,0.15137 -4.16,0.312202 -0.30562,0.160828 -1.41966,0.457625 -2.47566,0.659545 -2.57555,0.492474 -9.09779,2.607575 -9.92,3.216963 -0.176,0.130442 -0.80549,0.341082 -1.39888,0.468087 -1.02202,0.218745 -5.93694,2.606905 -8.36112,4.062662 -0.616,0.369917 -1.983998,1.134336 -3.039998,1.698704 -3.00329,1.605079 -8.631694,5.146845 -11.840004,7.450519 -2.228807,1.600358 -5.933319,3.336537 -8.611178,4.035763 -2.247472,0.586848 -3.20063,0.654838 -7.228822,0.515657 z m 83.2,-1.454886 c 0,-0.233597 2.59133,-1.360624 3.84,-1.670103 7.57355,-1.877072 7.26218,-1.835798 13.76,-1.824 5.54808,0.01008 6.52386,0.09335 8.8,0.75105 1.408,0.406848 2.6968,0.869747 2.864,1.028669 0.39206,0.372649 0.16837,0.36455 -0.97907,-0.03545 -0.51182,-0.178419 -2.5853,-0.46273 -4.60775,-0.631802 -2.02245,-0.169072 -4.30378,-0.399609 -5.06963,-0.512307 -0.77455,-0.113977 -1.69756,-0.05649 -2.08,0.129546 -0.37815,0.183945 -2.12755,0.408048 -3.88755,0.498006 -3.53258,0.180554 -7.54855,0.74137 -8.79432,1.22809 -0.95764,0.374147 -3.84568,1.153894 -3.84568,1.038301 z M 66.894038,90.428278 c -3.355715,-0.556323 -5.481001,-1.554851 -7.428288,-3.490048 -2.321312,-2.306896 -2.839792,-3.560502 -3.038124,-7.345683 -0.128983,-2.461696 -0.04324,-3.37127 0.450761,-4.781405 0.775277,-2.213072 1.232112,-2.378733 1.09465,-0.396944 -0.320493,4.620512 1.676793,7.897511 6.02192,9.880314 2.380659,1.086358 2.447222,1.096838 6.565043,1.033475 3.327424,-0.0512 4.397616,-0.183238 5.347251,-0.659728 0.652989,-0.327642 1.402147,-0.595712 1.664797,-0.595712 0.704032,0 4.833613,-2.244144 7.27256,-3.952138 1.168534,-0.818323 2.262214,-1.487862 2.430403,-1.487862 0.168189,0 0.580115,-0.309789 0.915392,-0.688422 1.098016,-1.24 3.403882,-2.511578 4.554461,-2.511578 0.853208,0 1.349468,0.26497 2.214928,1.182627 l 1.11536,1.182624 -0.71303,0.577376 c -0.39216,0.317555 -0.89075,0.577373 -1.10798,0.577373 -0.21722,0 -0.65558,0.288 -0.974142,0.64 -0.318557,0.352 -0.699229,0.64 -0.845939,0.64 -0.146711,0 -0.520391,0.205725 -0.830403,0.457168 -3.204948,2.599459 -5.140493,4.010515 -6.409677,4.672803 -0.832691,0.434515 -2.107904,1.180509 -2.833811,1.657763 -1.222119,0.803495 -1.873213,1.092784 -4.92017,2.186096 -0.616,0.221034 -1.408,0.521616 -1.76,0.667965 -0.899395,0.373933 -4.58113,0.920208 -5.92,0.878378 -0.616,-0.01923 -1.905683,-0.165245 -2.865962,-0.324442 z M 190.81152,86.152547 c 0.003,-0.88 0.0645,-1.202019 0.13811,-0.7156 0.0735,0.486419 0.0716,1.206419 -0.004,1.6 -0.076,0.393581 -0.13613,-0.0044 -0.13373,-0.8844 z M 73.393616,79.57991 C 69.01287,78.712889 64.96,74.341353 64.96,70.483184 c 0,-1.582007 0.447456,-1.941363 0.777904,-0.624743 0.460794,1.835949 1.807107,3.299572 3.981667,4.328605 1.960845,0.927901 2.301053,0.989863 4.520429,0.823331 3.501216,-0.26272 7.094851,-1.832115 11.577581,-5.056105 0.999667,-0.718963 1.971667,-1.211978 2.16,-1.095581 0.188329,0.116394 0.342419,0.672275 0.342419,1.235286 0,0.563015 0.370422,1.719501 0.823165,2.569972 0.452739,0.85047 0.752121,1.73144 0.665293,1.957712 -0.167885,0.437497 -2.938877,2.410886 -3.385319,2.410886 -0.145625,0 -0.450944,0.22432 -0.678483,0.49849 -1.511613,1.821382 -8.033805,2.903328 -12.35104,2.048873 z M 191.36,78.971433 c 0,-0.538387 0.144,-0.978886 0.32,-0.978886 0.176,0 0.32,0.351501 0.32,0.781114 0,0.429612 -0.144,0.870112 -0.32,0.978886 -0.18669,0.115386 -0.32,-0.21001 -0.32,-0.781114 z m 0.34526,-2.125552 c 0.0154,-0.372784 0.0912,-0.448608 0.19334,-0.193334 0.0924,0.230998 0.0811,0.506998 -0.0252,0.613334 -0.10634,0.106333 -0.18197,-0.08267 -0.16807,-0.42 z m -94.211928,-0.02666 c -0.11733,-0.117344 -0.21333,-0.524729 -0.21333,-0.905312 0,-0.523046 0.41012,-0.881084 1.68,-1.466665 0.924,-0.426087 2.087488,-1.206701 2.585528,-1.734701 1.35689,-1.438502 2.77447,-3.566218 2.77447,-4.164323 0,-1.093242 0.80438,-0.2136 0.90443,0.989059 0.12846,1.544022 -0.46215,3.478675 -1.47936,4.845936 -1.2109,1.627594 -5.420038,3.26769 -6.251738,2.435994 z m -4.888993,-3.596188 c -1.199056,-0.731164 -2.139545,-2.011286 -2.662672,-3.624217 -0.410547,-1.265827 -0.266265,-1.846269 0.458928,-1.846269 0.913511,0 2.621261,-1.315059 3.318297,-2.555274 0.83391,-1.483734 1.384,-1.680787 1.12983,-0.404726 -0.1995,1.001526 0.32271,2.64 0.8414,2.64 0.59842,0 2.2106,-2.008128 2.75355,-3.429814 0.67426,-1.76552 0.41531,-3.344938 -0.83351,-5.083895 -0.53359,-0.743005 -0.97016,-1.508761 -0.97016,-1.701683 0,-0.573443 3.23965,1.295514 4.504038,2.598384 1.3976,1.440131 1.64404,2.575939 1.36163,6.275571 -0.16899,2.213712 -0.36199,2.898682 -1.15345,4.093575 -1.25008,1.887267 -2.574408,2.818547 -4.656628,3.274576 -2.31573,0.507168 -2.93031,0.47168 -4.091253,-0.23624 z M 106.24,73.680281 c 0,-0.08375 0.28746,-0.623747 0.6388,-1.2 0.8478,-1.390512 0.93487,-6.726051 0.12856,-7.877225 -0.28195,-0.402544 -0.43933,-0.805203 -0.34974,-0.894797 0.34376,-0.343754 2.07345,0.892243 4.30238,3.074378 2.5861,2.531801 2.90101,3.50015 1.6,4.919974 -0.99209,1.082691 -6.32,2.749914 -6.32,1.97767 z m 12.49409,-3.501411 c -0.24753,-0.462505 -1.0767,-1.233632 -1.84261,-1.713619 -0.76591,-0.479987 -1.66899,-1.337366 -2.00685,-1.90529 -0.5533,-0.930057 -0.5637,-1.060905 -0.10467,-1.317785 0.3172,-0.17752 0.76456,-0.145731 1.18483,0.08419 1.44384,0.789891 4.52062,2.866637 4.62188,3.119651 0.0587,0.146592 0.28834,0.266528 0.5104,0.266528 0.22206,0 0.66745,0.291402 0.98977,0.647562 0.75463,0.833856 0.37716,1.210118 -1.4677,1.462985 -1.31554,0.180314 -1.47248,0.126679 -1.88505,-0.644224 z M 131.2,69.14096 c -2.18944,-0.340544 -3.74828,-0.857856 -4.38874,-1.456426 -0.38981,-0.364317 -1.30598,-1.902051 -2.03593,-3.41719 -0.72996,-1.515139 -1.45503,-3.004842 -1.61126,-3.310455 -0.15624,-0.305612 -0.28421,-0.737612 -0.28439,-0.96 -3.2e-4,-0.594355 -3.06868,-6.572179 -3.99995,-7.793136 -0.43985,-0.576678 -0.79973,-1.153718 -0.79973,-1.282316 0,-0.49362 -4.7431,-4.799456 -5.94072,-5.39304 -0.6926,-0.343284 -1.47528,-0.797725 -1.73928,-1.009869 -0.86742,-0.697043 -4.3717,-1.030359 -6.35299,-0.604275 -2.69255,0.579046 -5.627448,2.287148 -7.619878,4.434758 -0.95748,1.032054 -1.80591,1.811427 -1.88539,1.731946 -0.0795,-0.07948 0.0969,-0.635895 0.39201,-1.236464 1.50421,-3.061431 5.179508,-6.749018 8.386278,-8.41433 0.63799,-0.331312 1.44797,-0.754902 1.79997,-0.941315 1.73399,-0.918279 9.20326,-1.317376 11.84,-0.632631 2.80694,0.728941 6.31247,3.105626 9.51094,6.448234 2.78082,2.906125 3.75786,3.521123 6.01951,3.788982 1.30821,0.154938 1.61223,0.09234 1.78903,-0.368364 0.46675,-1.216349 -2.87979,-9.567527 -5.64726,-14.092522 -2.21779,-3.626237 -2.27085,-3.85279 -2.03897,-8.706087 0.21713,-4.544285 0.52231,-5.539155 1.69635,-5.529882 0.56404,0.0045 2.90767,3.323565 2.91506,4.128373 0.009,1.003786 1.8199,5.257723 3.85778,9.063254 0.16366,0.305612 0.29756,0.7167 0.29756,0.913526 0,0.196829 0.37138,1.09727 0.82529,2.000979 0.4539,0.903709 1.3323,3.587146 1.952,5.963194 1.10315,4.229757 1.1237,4.422541 0.9824,9.219683 -0.0842,2.857798 -0.28712,5.042394 -0.487,5.242269 -0.18847,0.188473 -0.26948,0.53344 -0.18001,0.766589 0.0895,0.233152 -0.0658,1.209766 -0.345,2.170259 -0.27923,0.960489 -0.50768,2.033881 -0.50768,2.385318 0,0.351437 -0.35859,1.409274 -0.79687,2.350749 -0.43829,0.941478 -0.79829,2.075734 -0.8,2.520573 -0.002,0.444841 -0.2273,1.128841 -0.50127,1.52 -0.40407,0.576893 -0.78178,0.702973 -2,0.667625 C 132.67583,69.284999 131.64,69.209399 131.2,69.14096 Z m 12.11284,0.0044 c -0.72688,-0.202823 -0.9034,-1.077475 -0.90847,-4.501559 -0.004,-2.590396 0.0709,-2.988995 0.61459,-3.28 0.90614,-0.48495 3.3969,-0.410512 3.83266,0.114544 0.2449,0.295085 0.33928,1.674464 0.27918,4.08 l -0.0908,3.634202 -1.6,0.04996 c -0.88,0.02746 -1.83722,-0.01626 -2.12716,-0.09714 z M 191.68,66.792547 c 0,-1.10601 0.7975,-1.336093 1.11909,-0.322864 0.24187,0.762048 -0.0253,1.282864 -0.65798,1.282864 -0.29901,0 -0.46111,-0.337475 -0.46111,-0.96 z M 85.087894,66.155331 c -1.768857,-0.934909 -2.218627,-1.828678 -1.832144,-3.640787 0.230596,-1.081191 0.560407,-1.652592 1.172548,-2.031447 0.468435,-0.289916 1.228073,-0.86903 1.688086,-1.286918 l 0.836384,-0.759795 0.197126,0.985635 c 0.279287,1.396435 1.02185,1.550384 2.180676,0.452096 0.947865,-0.898352 0.968928,-0.983018 0.836172,-3.360819 -0.104972,-1.880173 -0.295545,-2.641843 -0.831465,-3.323155 -0.662199,-0.84185 -0.921418,-1.757594 -0.497523,-1.757594 0.108768,0 0.665766,0.396 1.237779,0.88 0.572016,0.484 1.550054,1.271789 2.173421,1.750643 1.704238,1.309139 2.319728,3.432096 1.832518,6.320637 -0.31247,1.852522 -0.58255,2.455213 -1.637098,3.653245 -0.694592,0.789097 -1.743724,1.731891 -2.331404,2.095101 -1.346762,0.832342 -3.475527,0.842153 -5.025076,0.02317 z m 34.624696,-0.290198 c -1.04899,-1.048986 -3.40999,-2.272672 -4.38071,-2.270477 -0.51253,0.0013 -1.36388,0.288211 -1.89188,0.637891 -1.36069,0.901152 -1.80905,0.813754 -3.6935,-0.72 -2.06773,-1.682915 -2.05314,-1.673661 -3.9065,-2.477085 -0.836,-0.3624 -1.52,-0.795993 -1.52,-0.963536 0,-1.081997 5.35504,-2.415267 7.83785,-1.95143 0.87546,0.163555 1.70208,0.229174 1.83694,0.145824 0.98618,-0.609491 -1.06386,-1.90344 -3.94617,-2.490759 -2.23237,-0.45488 -2.52508,-0.444736 -5.08862,0.17634 -4.30818,1.043756 -4.57543,1.05919 -5.259118,0.303721 -0.59676,-0.659414 -0.59464,-0.682025 0.1371,-1.460928 0.408788,-0.435129 1.044468,-0.884515 1.412628,-0.99863 0.36817,-0.114115 1.02939,-0.449757 1.46939,-0.745872 0.79909,-0.537779 2.19923,-1.003354 4.66985,-1.552823 1.58767,-0.3531 4.46021,-0.0043 5.83985,0.709165 1.27349,0.658551 4.85016,4.133443 4.85073,4.712711 2.3e-4,0.238316 0.64823,2.411094 1.44,4.828396 0.79176,2.417303 1.43957,4.469303 1.43957,4.56 0,0.368087 -0.67697,0.127936 -1.24741,-0.442508 z m 72.44817,-4.434612 c -2.58676,-2.908547 -9.08416,-9.357974 -9.42758,-9.357974 -0.42662,0 -2.89318,-1.681139 -2.89318,-1.971907 0,-0.339146 -4.47956,-2.508093 -5.18,-2.508093 -0.29823,0 -0.62353,-0.131539 -0.72289,-0.292314 -0.34678,-0.561107 -5.70777,-2.861465 -7.15239,-3.069036 -0.40441,-0.05811 -0.90841,-0.240455 -1.12,-0.405216 -0.2116,-0.164765 -1.53672,-0.489284 -2.94472,-0.721159 -1.408,-0.231872 -3.00381,-0.604819 -3.54625,-0.828768 -0.54244,-0.223949 -1.73504,-0.476733 -2.65022,-0.561744 -0.91518,-0.08501 -2.27137,-0.438227 -3.01375,-0.784928 -1.50963,-0.705011 -2.63927,-0.993382 -4.60507,-1.175555 -0.98363,-0.09116 -1.99492,-0.588931 -3.84,-1.890112 -1.37759,-0.971504 -3.11145,-2.167949 -3.85303,-2.658768 -0.74157,-0.490819 -1.35357,-1.009306 -1.36,-1.152189 -0.0152,-0.337693 11.09029,-0.05128 13.58832,0.350445 1.056,0.169821 2.712,0.546435 3.68,0.836915 0.968,0.29048 2.624,0.760631 3.68,1.044778 1.056,0.284147 2.69392,0.856611 3.63982,1.272141 0.9459,0.415529 2.00484,0.75551 2.3532,0.75551 0.52208,0 3.694,1.434982 5.68698,2.572803 0.264,0.15072 1.056,0.583011 1.76,0.960643 0.704,0.377632 2.02982,1.249092 2.94627,1.93658 0.91645,0.687484 1.80929,1.249974 1.9841,1.249974 0.1748,0 0.43298,0.185754 0.57373,0.412784 0.14074,0.227034 0.74987,0.718858 1.35362,1.092947 2.53024,1.567779 11.79116,11.603072 13.17682,14.278634 0.107,0.206598 0.431,0.829853 0.72,1.385008 0.67802,1.302425 0.6656,1.391021 -0.19454,1.388601 -0.48437,-0.0013 -1.3481,-0.708259 -2.63924,-2.16 z M 78.711203,60.174134 C 77.195568,59.142749 76.195965,57.869667 75.97439,56.688576 75.765629,55.575776 75.836189,55.429113 77.075667,54.399533 77.804051,53.794496 78.4,53.03191 78.4,52.704893 c 0,-0.327015 0.149459,-0.686948 0.332134,-0.799844 0.217655,-0.134518 0.300378,0.38288 0.24,1.501114 -0.088,1.629773 -0.05455,1.710746 0.745015,1.803504 1.20631,0.139949 2.398749,-1.39145 2.680905,-3.442973 0.196634,-1.429699 0.118634,-1.775728 -0.68814,-3.052739 C 81.209462,47.921811 80.692,47.273433 80.56,47.27312 c -0.132,-3.17e-4 -0.24,-0.144573 -0.24,-0.320573 0,-0.638198 0.959379,-0.292342 2.930134,1.05631 1.682388,1.151316 2.106269,1.63521 2.59289,2.96 0.391267,1.0652 0.525667,2.055136 0.410509,3.02369 -0.09417,0.792 -0.196016,1.728 -0.226333,2.08 -0.0303,0.352 -0.537939,1.31152 -1.128058,2.132269 -0.80847,1.124441 -1.440233,1.617421 -2.563046,2 -1.895094,0.645725 -2.640176,0.639417 -3.624893,-0.03069 z M 143.04,55.912547 c 0,-0.189472 1.16704,-0.32 2.86111,-0.32 1.57362,0 2.95012,0.144 3.05889,0.32 0.12658,0.20481 -0.90334,0.32 -2.86111,0.32 -1.82593,0 -3.05889,-0.128986 -3.05889,-0.32 z m -72.638906,-3.12 C 68.175613,50.612 68.117418,50.119462 69.879936,48.381875 c 1.611811,-1.589008 2.194691,-1.785187 2.107542,-0.709328 -0.105369,1.300838 0.0037,1.52 0.756743,1.52 1.279427,0 2.135779,-1.254787 2.135779,-3.129488 0,-1.379126 -0.158496,-1.828762 -0.970739,-2.753853 -1.210445,-1.378621 -0.715104,-1.798246 0.712633,-0.603705 0.583117,0.487875 1.347738,1.044134 1.699159,1.236131 1.15112,0.628912 1.726985,2.324317 1.743577,5.133267 l 0.01536,2.602355 -1.317648,1.317645 c -1.221555,1.221565 -1.444963,1.317648 -3.063779,1.317648 -1.652057,0 -1.829734,-0.0819 -3.297469,-1.52 z M 174.08,49.325888 c -0.44,-0.244147 -1.0952,-0.446029 -1.456,-0.448624 -0.3608,-0.0026 -0.7928,-0.126 -0.96,-0.274237 -0.47221,-0.418646 -5.16668,-1.987523 -6.98849,-2.335533 -2.19587,-0.419465 -4.57574,-0.853757 -6.03551,-1.101395 -0.66,-0.111965 -1.2,-0.321414 -1.2,-0.46544 0,-0.326438 3.14333,-0.07179 5.28,0.427744 0.88,0.205738 1.744,0.387782 1.92,0.404544 0.99913,0.09516 4.33037,1.148141 6.12836,1.937117 0.5546,0.243366 1.17234,0.442483 1.37275,0.442483 0.50984,0 2.81321,1.202483 3.05606,1.595427 0.26484,0.428515 -0.13387,0.36353 -1.11717,-0.182086 z m -25.69225,-1.218579 c -1.46338,-1.356208 -1.43758,-4.562183 0.0416,-5.165095 1.79685,-0.732425 2.47362,-0.784736 3.44319,-0.266147 1.31331,0.702442 1.80518,1.555376 1.78395,3.093491 -0.0377,2.734499 -3.28562,4.175603 -5.26869,2.337751 z m -82.381372,-0.09976 c -0.97912,-0.189127 -1.974951,-1.54576 -2.208983,-3.009328 -0.184009,-1.150727 -0.271677,-1.229594 -1.585776,-1.426656 -1.704637,-0.255626 -2.240829,-0.787549 -1.739027,-1.725175 0.457674,-0.855171 0.177158,-1.293843 -0.82737,-1.293843 -0.438352,0 -1.237497,-0.227786 -1.775875,-0.506192 -0.833545,-0.431043 -0.951971,-0.640685 -0.797689,-1.412093 0.218208,-1.091049 -0.208896,-1.511776 -1.680672,-1.655571 -1.416637,-0.138403 -1.969428,-0.961776 -1.209488,-1.801501 0.352204,-0.389181 0.830518,-0.56007 1.310688,-0.468281 0.415852,0.0795 1.060233,-0.01824 1.431955,-0.217172 0.701741,-0.375558 0.913545,-1.434521 0.355859,-1.77919 -0.47225,-0.291866 -0.388691,-0.8 0.131555,-0.8 0.48688,0 2.177107,1.835786 2.013683,2.187094 -0.05447,0.117098 -0.366057,0.734106 -0.692409,1.371127 -0.715162,1.395955 -0.486791,2.201779 0.623987,2.201779 1.096339,0 1.704845,-1.251184 1.17455,-2.415056 -0.204252,-0.448282 -0.371366,-0.880282 -0.371366,-0.96 0,-0.354957 0.953894,-0.09248 1.617882,0.44519 0.991801,0.803111 1.000806,3.035181 0.01894,4.699287 -1.270944,2.154089 -0.284516,2.756873 1.668352,1.019494 1.129852,-1.005181 1.172422,-1.116992 0.974633,-2.56 -0.242006,-1.765645 0.101968,-1.931997 1.307223,-0.632185 0.938604,1.012243 1.099443,3.03758 0.322774,4.064432 -0.981814,1.298076 -0.210988,3.378838 1.251706,3.378838 0.895245,0 1.518237,-1.949238 1.27754,-3.9972 -0.260804,-2.219037 0.304332,-2.369821 1.569433,-0.418746 1.732915,2.672554 0.801677,6.32801 -1.899613,7.456679 -0.630876,0.263597 -1.237459,0.459657 -1.347964,0.435689 -0.110509,-0.02397 -0.522052,-0.105609 -0.914544,-0.18142 z M 52.009168,33.718822 c -0.717136,-0.524381 -0.456166,-1.471139 0.472448,-1.713978 0.992349,-0.259505 0.758845,-0.836389 -0.256358,-0.633348 -0.797546,0.159509 -1.218621,-0.150883 -3.876096,-2.857239 -3.831722,-3.902199 -3.561901,-4.444559 0.610838,-1.227829 0.968,0.746223 2.192339,1.57363 2.720755,1.838683 0.528416,0.265052 1.234733,0.784656 1.569597,1.154675 0.346941,0.383366 1.000461,0.672761 1.519245,0.672761 0.74392,0 0.910403,0.138402 0.910403,0.756845 0,1.873065 -2.205923,3.080598 -3.670832,2.00943 z"
     id="path3762"
     inkscape:connector-curvature="0" />
</svg>
