<?xml version="1.0" encoding="UTF-8" standalone="no"?>
<!-- Created with Inkscape (http://www.inkscape.org/) -->

<svg
   xmlns:dc="http://purl.org/dc/elements/1.1/"
   xmlns:cc="http://creativecommons.org/ns#"
   xmlns:rdf="http://www.w3.org/1999/02/22-rdf-syntax-ns#"
   xmlns:svg="http://www.w3.org/2000/svg"
   xmlns="http://www.w3.org/2000/svg"
   xmlns:sodipodi="http://sodipodi.sourceforge.net/DTD/sodipodi-0.dtd"
   xmlns:inkscape="http://www.inkscape.org/namespaces/inkscape"
   width="210mm"
   height="297mm"
   viewBox="0 0 210 297"
   version="1.1"
   id="svg8"
   inkscape:version="0.92.4 (5da689c313, 2019-01-14)"
   sodipodi:docname="lightninghornunicorn.svg">
  <defs
     id="defs2" />
  <sodipodi:namedview
     id="base"
     pagecolor="#ffffff"
     bordercolor="#666666"
     borderopacity="1.0"
     inkscape:pageopacity="0.0"
     inkscape:pageshadow="2"
     inkscape:zoom="0.7"
     inkscape:cx="485.52891"
     inkscape:cy="563.30176"
     inkscape:document-units="mm"
     inkscape:current-layer="layer1"
     showgrid="false"
     inkscape:window-width="1280"
     inkscape:window-height="647"
     inkscape:window-x="-8"
     inkscape:window-y="-8"
     inkscape:window-maximized="1" />
  <metadata
     id="metadata5">
    <rdf:RDF>
      <cc:Work
         rdf:about="">
        <dc:format>image/svg+xml</dc:format>
        <dc:type
           rdf:resource="http://purl.org/dc/dcmitype/StillImage" />
        <dc:title></dc:title>
      </cc:Work>
    </rdf:RDF>
  </metadata>
  <g
     inkscape:label="Ebene 1"
     inkscape:groupmode="layer"
     id="layer1">
    <path
       style="fill:#000000;stroke-width:0.26458332"
       d="m 99.823505,254.93649 c -0.50932,-0.14542 -1.35762,-0.37675 -1.8851,-0.51407 -1.07801,-0.28065 -4.13785,-2.23978 -5.48349,-3.51093 -1.97503,-1.8657 -4.24947,-5.33708 -4.26726,-6.51293 -0.003,-0.21122 0.63139,0.25245 1.4102,1.03038 1.41543,1.41382 3.86219,2.92535 4.73555,2.92546 0.60613,8e-5 0.58751,-0.13788 -0.19991,-1.48152 -0.37135,-0.63366 -0.55235,-1.19955 -0.41152,-1.28659 0.13828,-0.0855 0.8302,0.20076 1.5376,0.63603 0.70741,0.43527 2.03584,0.96628 2.95208,1.18002 1.50147,0.35027 1.75461,0.34631 2.564915,-0.0401 1.10504,-0.52696 1.15213,-0.85987 0.1216,-0.85987 -0.48107,0 -1.085155,-0.28107 -1.584705,-0.73734 l -0.80729,-0.73734 0.57438,-0.4918 0.57438,-0.4918 -0.72949,-0.62748 c -0.59515,-0.51192 -0.69838,-0.76913 -0.56055,-1.39666 0.0929,-0.42305 0.0207,-1.26381 -0.16038,-1.86835 -0.26789,-0.89415 -0.26467,-1.13911 0.0173,-1.31336 0.19063,-0.11782 0.26358,-0.34853 0.16212,-0.51269 -0.10146,-0.16416 -0.28933,-0.23367 -0.4175,-0.15446 -0.12816,0.0792 -0.36225,-0.0975 -0.52019,-0.39256 -0.29441,-0.55011 -1.0623,-0.74672 -1.0623,-0.272 0,0.51556 -1.06814,1.32292 -1.75022,1.32292 -0.83356,0 -5.61088,-2.27212 -7.17228,-3.41117 -1.14932,-0.83844 -1.87527,-1.99331 -2.60611,-4.14596 -0.64058,-1.88678 -0.23351,-5.95912 0.79178,-7.92099 0.22815,-0.43657 0.41555,-0.91855 0.41645,-1.07109 7.9e-4,-0.15254 0.63955,-0.94657 1.41923,-1.76452 2.21447,-2.32316 4.64277,-2.77889 7.34931,-1.37928 0.90411,0.46753 0.80594,0.89394 -0.16316,0.70868 -0.94765,-0.18115 -1.46,0.35764 -1.46,1.53533 0,1.23538 0.35728,1.61155 2.61106,2.74914 1.73313,0.87479 3.35332,2.2237 4.17242,3.47381 0.449635,0.68622 1.154025,0.86858 1.154025,0.29876 0,-0.18918 -0.13089,-0.47485 -0.29087,-0.63483 -0.40693,-0.40692 -0.0599,-1.31822 0.56422,-1.48142 0.87198,-0.22802 0.68686,-2.10335 -0.40825,-4.13573 -0.50415,-0.93562 -0.86611,-1.75166 -0.80436,-1.81341 0.2679,-0.2679 3.08236,2.01634 3.58448,2.90918 0.69758,1.24041 1.23471,3.08388 1.46765,5.03715 0.19564,1.64045 0.28393,1.76078 0.78706,1.07271 0.29925,-0.40925 0.38664,-0.38054 0.99518,0.32693 0.55296,0.64285 0.85788,0.77058 1.78169,0.74636 0.62431,-0.0164 1.21985,-0.18927 1.35393,-0.39308 0.1963,-0.29839 0.28847,-0.28055 0.51226,0.0992 0.15009,0.25466 0.40642,0.46302 0.56963,0.46302 0.16322,0 0.53188,-0.20836 0.81926,-0.46302 0.38299,-0.33938 0.5534,-0.37471 0.6382,-0.13229 0.0636,0.1819 0.34389,0.33073 0.6228,0.33073 0.48099,0 0.50712,-0.24541 0.50712,-4.7625 v -4.7625 h 1.70415 c 1.54632,0 2.31916,-0.2982 1.88863,-0.72873 -0.0904,-0.0904 -0.87813,-0.21598 -1.75052,-0.27909 -0.87238,-0.0631 -1.64319,-0.20702 -1.71291,-0.31982 -0.0697,-0.1128 -0.0455,-0.78297 0.0538,-1.48925 0.14622,-1.04011 0.21103,-1.15871 0.34102,-0.62408 0.20382,0.83825 0.87428,0.97477 1.5023,0.30589 0.26789,-0.28532 0.77672,-0.55986 1.13073,-0.61008 0.76024,-0.10784 1.20084,-1.28393 0.71876,-1.91859 -0.31622,-0.4163 -2.73844,-0.66535 -3.27084,-0.33631 -0.31702,0.19593 -0.71445,-1.01731 -0.4653,-1.42044 0.0858,-0.13883 1.15682,-0.25242 2.38003,-0.25242 1.85439,0 2.26215,-0.077 2.45334,-0.46302 0.36018,-0.72731 -0.28618,-6.9283 -0.75295,-7.22359 -0.71903,-0.45488 -1.50498,-0.38341 -2.15304,0.19579 -0.76362,0.68246 -0.96332,0.16842 -0.91918,-2.36598 l 0.0426,-2.44632 0.92495,0.076 c 0.63839,0.0524 1.22321,0.36722 1.88762,1.016 0.67893,0.66295 1.22514,0.95249 1.85318,0.98235 0.79538,0.0378 0.88575,-0.0283 0.84604,-0.61911 -0.0245,-0.36381 -0.23096,-1.37584 -0.45889,-2.24896 -0.46138,-1.76736 -0.5637,-4.63021 -0.1655,-4.63021 0.14146,0 0.44727,0.68461 0.67959,1.52135 0.23231,0.83675 0.59283,2.04858 0.80114,2.69297 0.20831,0.64439 0.37875,1.62665 0.37875,2.18281 0,0.99045 0.0204,1.0114 0.99219,1.02058 0.5457,0.005 1.28984,0.17953 1.65364,0.3875 0.87085,0.49782 1.8265,0.49111 3.05317,-0.0214 0.62862,-0.26266 1.32884,-0.35682 1.88191,-0.25307 0.61931,0.11619 1.34511,-0.0223 2.44495,-0.46656 1.08486,-0.4382 1.69806,-0.55687 2.00109,-0.38729 0.57715,0.32299 1.73138,-0.42261 1.73138,-1.11842 0,-0.34492 0.12873,-0.46536 0.39016,-0.36504 0.21459,0.0823 0.79419,-0.1 1.288,-0.40518 0.49381,-0.30519 1.19663,-0.5549 1.56182,-0.5549 0.94298,0 1.16023,-0.38954 1.53956,-2.76057 0.26684,-1.66794 0.48777,-2.25812 1.07557,-2.87319 0.56259,-0.5887 0.78056,-1.13489 0.91021,-2.28079 0.15041,-1.32949 0.27606,-1.57907 1.0682,-2.12185 0.49375,-0.33832 0.89773,-0.77838 0.89773,-0.9779 0,-0.80251 -1.10621,-0.11355 -1.84927,1.15175 -0.32268,0.54946 -0.75297,1.09423 -0.95621,1.21061 -0.20323,0.11637 -0.36952,0.50494 -0.36952,0.86348 0,0.35855 -0.11037,0.85865 -0.24527,1.11133 -0.1349,0.25269 -0.29972,0.64165 -0.36627,0.86436 -0.0863,0.28868 -0.53517,0.42225 -1.56376,0.46529 -1.83032,0.0766 -2.4155,-0.45973 -2.43891,-2.23531 -0.0212,-1.60623 0.58811,-2.0723 1.54002,-1.17802 0.35957,0.3378 0.77047,0.54206 0.9131,0.4539 0.49755,-0.3075 -0.004,-1.14316 -0.95965,-1.59888 -0.52956,-0.25253 -1.12235,-0.68687 -1.3173,-0.96521 -0.74267,-1.06031 -1.48042,-0.35432 -0.85361,0.81687 0.24043,0.44927 0.0454,1.89984 -0.66843,4.97174 -0.23361,1.0053 -0.59802,0.42867 -1.43485,-2.2704 -0.64086,-2.06701 -0.92428,-2.62764 -1.45025,-2.86875 -0.35955,-0.16482 -0.71425,-0.23916 -0.78822,-0.16519 -0.074,0.074 -0.0609,1.08825 0.029,2.25396 0.13544,1.75632 0.0996,2.09741 -0.20928,1.99074 -0.29804,-0.10292 -0.35544,-0.72703 -0.28649,-3.11438 0.0474,-1.64211 0.19171,-3.26306 0.32062,-3.60212 0.14802,-0.38933 0.13461,-0.67814 -0.0364,-0.78383 -0.49461,-0.30568 -0.7175,-1.32276 -0.523,-2.38643 0.10566,-0.57776 0.14351,-1.19624 0.0841,-1.37438 -0.1583,-0.4749 -1.32066,-0.39507 -1.60338,0.11012 -0.30138,0.53853 -0.78936,0.26736 -1.12967,-0.62773 -0.32148,-0.84555 0.20212,-1.72235 1.4149,-2.36936 0.72339,-0.38592 1.72327,-0.46572 6.3969,-0.51053 3.21719,-0.0308 6.60027,0.0848 8.06979,0.27575 1.39167,0.18087 2.58805,0.28092 2.65864,0.22234 0.0706,-0.0586 -0.16754,-0.33955 -0.52917,-0.62438 l -0.6575,-0.51787 0.79375,0.1645 c 0.43656,0.0905 1.38906,0.44166 2.11666,0.78042 0.77447,0.36059 2.09074,0.68155 3.175,0.7742 1.01865,0.087 2.14974,0.21045 2.51354,0.27424 1.89815,0.33283 2.98325,0.63307 3.2492,0.89901 0.40934,0.40934 1.69198,0.37255 1.85536,-0.0532 0.0856,-0.22317 0.65415,-0.36311 1.5734,-0.3873 1.79857,-0.0473 2.66348,-0.37202 4.07763,-1.53081 1.21122,-0.9925 2.01869,-2.48265 3.10471,-5.72957 0.52329,-1.56453 0.62408,-2.20067 0.42969,-2.71198 -0.30529,-0.80296 -0.29074,-0.80165 -1.58258,-0.1426 -1.32732,0.67714 -1.41707,0.84386 -1.61796,3.00546 -0.15076,1.62229 -0.26773,1.91049 -1.12214,2.7649 -0.52461,0.52461 -1.01791,0.88976 -1.09622,0.81145 -0.0783,-0.0783 -0.0233,-0.77039 0.12228,-1.53794 0.14556,-0.76756 0.19871,-2.00722 0.11809,-2.75481 -0.11705,-1.08555 -0.0374,-1.53287 0.39565,-2.22155 1.0728,-1.70612 3.74499,-2.60387 4.06848,-1.36685 0.1227,0.46918 0.22516,0.50529 0.70505,0.24845 0.56294,-0.30127 2.94896,0.0343 4.01792,0.56511 0.66191,0.32868 0.79367,1.92737 0.38981,4.72985 -0.40944,2.84124 -0.91188,3.9895 -3.32285,7.59394 -0.88195,1.31852 -1.70552,2.67301 -1.83017,3.00997 -0.12465,0.33695 -0.17072,1.689 -0.10237,3.00453 0.0907,1.74562 -0.0211,3.14253 -0.41367,5.17002 -0.29586,1.52797 -0.61952,3.61156 -0.71923,4.6302 -0.0997,1.01865 -0.31842,2.01916 -0.486,2.22336 -0.33157,0.40401 -0.36811,0.63295 -0.51171,3.20598 -0.1342,2.40468 -1.57866,5.37785 -2.67445,5.50491 -0.68811,0.0798 -0.73063,0.14999 -0.56091,0.92604 0.42234,1.93115 0.4384,6.93882 0.0298,9.27944 -0.64335,3.68505 -1.36102,4.67044 -6.28235,8.6259 -7.21801,5.80139 -14.58507,12.66808 -19.49226,18.16835 -4.37531,4.9041 -8.51204,7.20433 -14.64192,8.14165 -1.25926,0.19256 -2.39372,0.41448 -2.52104,0.49316 -0.12731,0.0787 -3.32373,0.2708 -7.10316,0.42691 -3.77942,0.15612 -7.8837,0.33663 -9.12063,0.40114 -1.23692,0.0645 -2.66567,-0.002 -3.175005,-0.1471 z M 133.77044,243.195 c 0.75622,-0.34096 1.95346,-1.10551 2.66052,-1.69899 0.70707,-0.59348 1.39134,-1.07905 1.5206,-1.07905 0.12925,0 0.68184,-0.39512 1.22796,-0.87805 0.54612,-0.48293 1.43943,-1.14749 1.98514,-1.47679 0.5457,-0.3293 0.99241,-0.67832 0.99269,-0.77559 2.7e-4,-0.0973 0.59291,-0.58061 1.31694,-1.07408 0.72403,-0.49348 1.37916,-1.08879 1.45584,-1.32292 0.0767,-0.23413 0.5601,-0.69761 1.07427,-1.02997 0.51417,-0.33234 1.04262,-0.8877 1.17433,-1.23413 0.1317,-0.34642 0.47156,-0.70352 0.75522,-0.79355 0.28367,-0.09 0.59111,-0.36811 0.6832,-0.61795 0.38864,-1.05435 1.0339,-1.95543 1.88868,-2.63746 0.50128,-0.39997 0.91142,-0.8733 0.91142,-1.05185 1e-5,-0.17854 0.29767,-0.51966 0.66147,-0.75803 0.3638,-0.23837 0.66146,-0.59224 0.66146,-0.78639 0,-0.19413 0.41672,-0.67082 0.92604,-1.0593 0.57656,-0.43977 0.92604,-0.93188 0.92604,-1.30399 0,-0.32871 0.17998,-0.74702 0.39995,-0.92959 1.05411,-0.87483 2.00941,-5.02452 1.15669,-5.02452 -0.16249,0 -0.23573,0.22834 -0.16275,0.50742 0.0735,0.2811 -0.17825,1.0369 -0.56445,1.69453 -0.86337,1.47015 -5.92617,6.24665 -7.38736,6.96958 l -1.07772,0.53321 -0.75936,-0.75936 c -1.06601,-1.06601 -2.33534,-1.22024 -3.50739,-0.42617 -1.16743,0.79095 -1.58254,1.61378 -1.58746,3.14669 -0.004,1.1878 -0.0617,1.27103 -2.59831,3.73617 -1.42693,1.38671 -2.86151,2.60606 -3.18796,2.70967 -1.60258,0.50865 -2.94888,-2.33646 -2.94888,-6.2318 v -2.16462 l 1.91823,-1.8811 c 1.77551,-1.74115 2.7666,-2.3533 4.82865,-2.98244 0.6835,-0.20854 0.78072,-0.35098 0.69999,-1.02562 -0.28901,-2.41491 -0.13527,-3.7469 0.57171,-4.95327 0.39197,-0.66884 0.71267,-1.3658 0.71267,-1.54879 0,-0.18299 0.24251,-0.59085 0.53891,-0.90635 0.48499,-0.51625 0.51371,-0.72974 0.28701,-2.13372 -0.21763,-1.34791 -0.18297,-1.67908 0.25485,-2.4351 0.2787,-0.48126 0.50673,-0.96686 0.50673,-1.07911 0,-0.46391 -1.6664,-2.67607 -2.01586,-2.67607 -0.3892,0 -0.81608,0.87254 -1.08696,2.22175 -0.14383,0.71635 -0.10917,0.75531 0.52928,0.59507 0.64235,-0.16122 1.51521,0.33035 1.51521,0.85332 0,0.78305 -2.00536,1.16112 -2.28557,0.4309 -0.0838,-0.21828 -0.32225,-0.39688 -0.52998,-0.39688 -0.29778,0 -0.34227,0.2669 -0.21033,1.26156 0.14069,1.06052 0.0762,1.36622 -0.40475,1.91823 l -0.57211,0.65667 0.11781,-1.77341 c 0.0956,-1.43866 0.0324,-1.8507 -0.33457,-2.18281 -0.6926,-0.6268 -1.24493,-0.49448 -1.98475,0.47547 -0.90603,1.18787 -0.91148,2.60678 -0.0135,3.5048 0.3638,0.36381 0.66145,0.82443 0.66145,1.02362 0,0.37313 -2.60521,2.12385 -2.82837,1.90069 -0.0687,-0.0687 0.004,-0.36541 0.1611,-0.65935 0.15732,-0.29393 0.28603,-1.37569 0.28603,-2.40391 0,-1.81772 -0.0183,-1.86947 -0.66146,-1.86947 -1.48183,0 -2.43039,2.33878 -1.59991,3.94475 0.23258,0.44976 0.59138,0.81775 0.79734,0.81775 0.66092,0 0.72245,0.52213 0.0909,0.77121 -0.33617,0.13258 -1.03422,0.4218 -1.5512,0.6427 -1.29875,0.55494 -1.75643,0.23633 -1.20164,-0.8365 0.24966,-0.4828 0.42182,-1.46898 0.42182,-2.41636 0,-1.51955 -0.0326,-1.60064 -0.64423,-1.60064 -0.35433,0 -0.96327,0.1213 -1.35321,0.26955 -0.70071,0.26641 -0.70676,0.29032 -0.51915,2.05053 0.1044,0.97953 0.30683,2.00056 0.44983,2.26895 0.40962,0.76876 -0.67584,1.76097 -1.92647,1.76097 -1.31641,0 -1.8276,0.22202 -1.8276,0.79375 0,0.733 1.85992,1.15865 2.2568,0.51647 0.10506,-0.16999 0.64855,-0.21226 1.40468,-0.10925 1.25904,0.17153 2.42393,1.06372 2.42393,1.85649 0,0.65135 0.39838,0.42128 0.71277,-0.41162 0.21762,-0.57657 0.4724,-0.79375 0.93113,-0.79375 0.74361,0 1.26652,0.45136 1.26652,1.09323 0,0.57537 -1.40837,1.60473 -1.92457,1.40664 -0.22976,-0.0882 -0.66637,0.18648 -1.08235,0.68085 -0.63024,0.749 -0.69725,1.03886 -0.69725,3.01628 0,2.37845 -0.10644,2.58461 -1.76917,3.42651 -0.86462,0.43778 -1.66926,0.34492 -1.67189,-0.19297 -0.004,-0.79789 -0.58407,-2.28318 -0.832,-2.12995 -0.31941,0.19741 -0.0596,6.89644 0.31712,8.17753 0.12838,0.43656 0.29846,1.1176 0.37794,1.51342 0.14009,0.6976 1.49564,2.23625 2.80484,3.1837 l 0.64087,0.46379 -0.79375,-0.16647 c -1.14606,-0.24035 -3.30366,-1.60635 -4.28902,-2.71543 -0.87265,-0.98222 -2.45785,-4.36848 -2.45785,-5.25041 0,-0.27205 -0.1099,-0.60775 -0.24423,-0.746 -0.13432,-0.13824 -0.28315,-0.60854 -0.33072,-1.0451 -0.0692,-0.63512 -0.2187,-0.80093 -0.74797,-0.82969 -0.3638,-0.0198 -0.98888,-0.16564 -1.38906,-0.32418 -0.86879,-0.34417 -0.87978,-0.29914 -0.19943,0.81675 0.38768,0.63585 0.5263,1.32376 0.52112,2.58608 -0.007,1.79826 -0.30159,1.76481 -0.63154,-0.0718 -0.0986,-0.54882 -0.54292,-1.41202 -0.98738,-1.91823 -0.73512,-0.83726 -0.93707,-0.92039 -2.23591,-0.92039 h -1.4278 v 4.35318 c 0,4.05667 0.23247,5.70099 0.80598,5.70099 0.10553,0 0.5329,-0.17786 0.94971,-0.39525 1.80926,-0.94359 5.43514,-0.29856 8.82764,1.57042 3.72515,2.05222 6.24478,2.35029 9.0761,1.0737 z m -4.78237,-3.89728 c -0.6368,-0.30689 -1.01296,-1.26026 -0.75869,-1.92287 0.0884,-0.23031 0.48353,-0.39747 0.93957,-0.39747 1.33982,0 2.17264,1.79737 1.09904,2.37194 -0.5928,0.31726 -0.50742,0.3207 -1.27992,-0.0516 z m 6.55419,-1.51313 c 0,-0.13811 0.44649,-0.58288 0.99219,-0.98836 0.5457,-0.40549 1.9433,-1.60217 3.10578,-2.6593 2.05475,-1.86855 2.7812,-2.2816 2.7812,-1.58138 0,0.62947 -4.01096,4.15329 -5.74155,5.04423 -0.97834,0.50367 -1.13762,0.52955 -1.13762,0.18481 z m 8.26266,-6.27596 c -0.18496,-0.0744 -0.51993,-0.49043 -0.74438,-0.92447 -0.52305,-1.01146 -0.27231,-2.21945 0.57607,-2.77532 1.16923,-0.76612 2.75357,0.29224 2.75357,1.83942 0,1.35765 -1.37519,2.34724 -2.58526,1.86037 z m -8.94297,-11.04861 c -0.21944,-0.87433 0.0742,-1.67912 0.74343,-2.03725 0.45427,-0.24312 0.62102,-0.2095 0.90812,0.18314 0.51098,0.6988 0.43362,1.26891 -0.26069,1.92118 -0.7946,0.7465 -1.19147,0.72736 -1.39086,-0.0671 z m -36.580395,15.77029 c -0.14692,-0.38948 -0.33942,-1.03883 -0.42778,-1.44301 -0.289,-1.32188 -4.375,-9.97744 -4.711,-9.97952 -0.62289,-0.004 0.29809,2.87171 2.12047,6.62077 0.88222,1.81493 1.87571,3.98769 2.20775,4.82835 0.46961,1.18896 0.65635,1.43442 0.84069,1.10502 0.14311,-0.25574 0.13118,-0.70396 -0.0301,-1.13161 z m 40.171125,-4.31065 c 0,-0.53263 -0.91321,-2.87978 -1.12044,-2.87978 -0.33533,0 -0.22853,1.19593 0.19795,2.21665 0.3799,0.90924 0.92249,1.29928 0.92249,0.66313 z m 0.79375,-4.73187 c 0,-0.14552 -0.11907,-0.26458 -0.26459,-0.26458 -0.14552,0 -0.26458,0.11906 -0.26458,0.26458 0,0.14553 0.11906,0.26459 0.26458,0.26459 0.14552,0 0.26459,-0.11906 0.26459,-0.26459 z m 8.46261,-1.78593 c -0.002,-0.25466 -0.11946,-0.64162 -0.26053,-0.8599 -0.19463,-0.30116 -0.25746,-0.1895 -0.26053,0.46302 -0.002,0.47295 0.11501,0.8599 0.26053,0.8599 0.14552,0 0.26276,-0.20836 0.26053,-0.46302 z m -7.53258,-0.0726 c 0.27372,-0.4429 -0.14747,-1.84563 -0.55418,-1.84563 -0.398,0 -0.47217,0.53967 -0.20909,1.52135 0.16986,0.63382 0.48833,0.76913 0.76327,0.32428 z m 4.8908,-2.3748 c 0,-0.14552 -0.17859,-0.26458 -0.39687,-0.26458 -0.21829,0 -0.39688,0.11906 -0.39688,0.26458 0,0.14552 0.17859,0.26459 0.39688,0.26459 0.21828,0 0.39687,-0.11907 0.39687,-0.26459 z m -2.53141,-3.64155 c 0.20525,-1.75711 0.50913,-3.44876 0.67528,-3.75921 0.16615,-0.31046 0.25959,-0.76659 0.20764,-1.01363 -0.0805,-0.38284 -0.14123,-0.36445 -0.41133,0.12452 -0.63272,1.14545 -1.11518,3.6876 -1.11518,5.87602 0,1.2306 0.0608,2.17662 0.1352,2.10226 0.0744,-0.0744 0.30314,-1.57284 0.50839,-3.32996 z m 6.76311,2.91395 c -7.9e-4,-0.25466 -0.17949,-0.80406 -0.39687,-1.22087 -0.21739,-0.41682 -0.39525,-0.97534 -0.39525,-1.24116 0,-0.26582 -0.13632,-0.56756 -0.30294,-0.67054 -0.21552,-0.13319 -0.24907,0.0341 -0.11626,0.5797 0.10268,0.42181 0.24784,1.12412 0.32259,1.56068 0.0747,0.43656 0.18285,0.94258 0.24025,1.12448 0.15706,0.49785 0.65035,0.39722 0.64848,-0.13229 z m -27.56482,-2.37821 c -0.13282,-0.6897 -1.00855,-0.76662 -1.00855,-0.0886 0,0.37865 0.16993,0.54857 0.54857,0.54857 0.37865,0 0.52113,-0.14248 0.45998,-0.45998 z m 23.73,-0.33377 c -0.0899,-0.14552 -0.39463,-0.26458 -0.67708,-0.26458 -0.28245,0 -0.51355,0.11906 -0.51355,0.26458 0,0.14552 0.30468,0.26458 0.67707,0.26458 0.38401,0 0.6063,-0.11452 0.51356,-0.26458 z m 0.39687,-1.71979 c 0,-0.24695 -0.24988,-0.39688 -0.66146,-0.39688 -0.69193,0 -0.89986,0.38887 -0.33073,0.61852 0.63013,0.25427 0.99219,0.17339 0.99219,-0.22164 z m -24.36782,-0.55601 c 0.69499,-0.88354 0.95456,-2.26989 0.56223,-3.00295 -0.24387,-0.45569 -0.50428,-0.55548 -1.28098,-0.49088 -0.91501,0.0761 -0.97987,0.14094 -1.05596,1.05572 -0.10722,1.28901 0.40162,3.12641 0.86582,3.12641 0.20211,0 0.61111,-0.30974 0.90889,-0.6883 z m 4.0979,-0.24625 c 0.45777,-0.45777 0.78113,-1.85653 0.64755,-2.80111 -0.0732,-0.51736 -0.26644,-0.64465 -1.08127,-0.71208 l -0.99219,-0.0821 v 2.00032 c 0,1.79927 0.0513,2.00035 0.51027,2.00035 0.28064,0 0.69269,-0.18242 0.91564,-0.40538 z m 20.39091,-0.89925 c 0.19567,-0.3166 -0.30205,-0.6303 -0.65447,-0.41249 -0.2959,0.18287 -0.10165,0.65879 0.2689,0.65879 0.12834,0 0.30185,-0.11084 0.38557,-0.2463 z m 0.93734,-3.42956 c 0,-0.2974 -0.68821,-0.57482 -0.90017,-0.36285 -0.3185,0.31849 -0.14472,0.59913 0.37101,0.59913 0.29104,0 0.52916,-0.10633 0.52916,-0.23628 z m -22.04776,-0.62131 c 0.40913,-0.40914 0.42161,-0.70267 0.13471,-3.17009 -0.32158,-2.76568 -0.81377,-3.94761 -1.71799,-4.12553 -0.76981,-0.15148 -2.81423,0.94067 -3.0827,1.6468 -0.1393,0.36639 -0.33585,1.75997 -0.43677,3.09686 -0.16643,2.2046 -0.13661,2.46578 0.32049,2.8078 0.72476,0.5423 4.16834,0.35808 4.78226,-0.25584 z m 4.8777,-0.74482 c 0.25601,-0.13701 0.54109,-0.48737 0.63352,-0.77856 0.17241,-0.54324 0.66154,-0.73907 0.66154,-0.26487 0,0.65712 2.52059,-0.0807 3.56827,-1.04455 0.29303,-0.26956 0.7709,-0.53299 1.06194,-0.58538 0.3051,-0.0549 0.5645,-0.34258 0.6126,-0.67932 0.0716,-0.50114 0.15421,-0.53985 0.58201,-0.27269 0.39635,0.24752 0.69123,0.21952 1.43793,-0.13656 0.76088,-0.36284 0.93934,-0.59543 0.93934,-1.22433 0,-1.04316 0.24379,-1.61342 0.68976,-1.61342 0.20271,0 0.36857,-0.17859 0.36857,-0.39687 0,-0.21828 0.11906,-0.39688 0.26458,-0.39688 0.14552,0 0.26459,0.11907 0.26459,0.26459 0,0.14552 0.29287,0.26458 0.65083,0.26458 0.52593,0 0.70946,-0.19564 0.95624,-1.01932 0.22551,-0.75268 0.22828,-1.16339 0.0106,-1.5701 -0.16213,-0.30294 -0.29857,-0.82651 -0.30319,-1.1635 -0.019,-1.38494 -1.33311,-2.01229 -2.2026,-1.05151 -0.41438,0.45788 -0.40092,0.53041 0.22358,1.20425 0.70505,0.76077 0.75865,0.93033 0.50391,1.59416 -0.23104,0.6021 -0.71724,0.51635 -1.37743,-0.24294 -0.31632,-0.3638 -0.85512,-0.66146 -1.19733,-0.66146 -1.06549,0 -1.46077,0.74173 -1.52254,2.85698 -0.0309,1.05831 -0.1394,1.97563 -0.24112,2.0385 -0.10171,0.0629 -0.40086,-0.59885 -0.66476,-1.47047 -0.4913,-1.62265 -0.9682,-2.0202 -2.15032,-1.79255 -0.63076,0.12148 -1.52809,1.76145 -1.91861,3.50649 -0.1729,0.77257 -0.47245,1.62088 -0.66568,1.88514 -0.31082,0.42508 -0.35424,0.33462 -0.37671,-0.78479 -0.0312,-1.55589 -0.77422,-3.1686 -1.50824,-3.2737 -0.85559,-0.1225 -2.49629,1.4851 -2.77899,2.72294 -0.36315,1.59011 -0.31692,4.29381 0.0764,4.468 0.44375,0.19653 2.81878,-0.0701 3.40128,-0.38186 z m 16.09545,-1.10957 c 0.12936,-0.32743 0.54313,-1.0054 0.91949,-1.50661 0.37636,-0.50122 0.67945,-1.037 0.67354,-1.19063 -0.0145,-0.37538 -1.57675,1.46865 -1.57675,1.8611 0,0.16957 -0.17859,0.45654 -0.39687,0.6377 -0.45668,0.37901 -0.52238,0.79375 -0.12575,0.79375 0.14912,0 0.37697,-0.26789 0.50634,-0.59531 z m 8.35065,-0.60056 c 0.76049,-1.13459 1.3275,-1.58534 1.03482,-0.82262 -0.0766,0.19952 0.0462,0.5482 0.27289,0.77485 0.22665,0.22665 0.41209,0.53966 0.41209,0.69557 0,0.46307 0.75423,0.323 1.32291,-0.24568 0.7928,-0.7928 0.68218,-1.51185 -0.26458,-1.71979 -0.51107,-0.11225 -0.79375,-0.33831 -0.79375,-0.63477 0,-0.25323 -0.29766,-0.71924 -0.66146,-1.03556 -0.3638,-0.31632 -0.66146,-0.81404 -0.66146,-1.10605 0,-0.92177 -0.49828,-0.57458 -0.66202,0.46127 -0.13553,0.85748 -0.63651,2.82905 -1.10931,4.36563 -0.25894,0.84154 0.30357,0.47013 1.10987,-0.73285 z m 6.43604,-2.17757 c 0.7892,-2.03242 1.66533,-8.14896 1.73386,-12.10469 0.0252,-1.4552 0.13964,-2.9123 0.25428,-3.23798 0.14187,-0.40305 0.056,-0.85021 -0.26892,-1.40025 -0.39469,-0.66816 -0.41465,-0.84686 -0.11522,-1.03192 0.48053,-0.29698 0.13764,-0.81214 -0.54056,-0.81214 -0.49266,0 -0.5264,0.11965 -0.3917,1.38907 0.21972,2.07068 0.17818,7.21931 -0.0753,9.32656 -0.12251,1.01864 -0.47502,3.102 -0.78336,4.62968 -0.60908,3.0177 -0.68775,3.96928 -0.32814,3.96928 0.12787,0 0.35962,-0.32743 0.51501,-0.72761 z m -7.46581,0 c 0.47262,-0.62259 0.48299,-2.44739 0.0139,-2.44739 -0.65277,0 -1.29826,2.22789 -0.79212,2.73402 0.26639,0.26639 0.39412,0.21934 0.77821,-0.28663 z m 9.53938,-0.92604 c -0.0734,-0.1819 -0.13346,-0.0331 -0.13346,0.33073 0,0.3638 0.0601,0.51263 0.13346,0.33073 0.0734,-0.1819 0.0734,-0.47956 0,-0.66146 z m -13.95514,-0.82498 c 0.30291,-0.49012 0.55015,-0.99613 0.54943,-1.12448 -0.002,-0.35927 -1.30128,1.30913 -1.31209,1.68488 -0.0153,0.53035 0.17489,0.39064 0.76266,-0.5604 z m 14.36955,-0.36987 c 0.0672,-0.25698 0.0299,-0.70347 -0.0828,-0.99219 -0.15617,-0.39985 -0.20946,-0.28851 -0.22362,0.46725 -0.0199,1.06315 0.10828,1.28276 0.30646,0.52494 z m -11.96672,-1.15148 c 0,-0.14552 -0.11907,-0.191 -0.26459,-0.10107 -0.14552,0.0899 -0.26458,0.28259 -0.26458,0.42811 0,0.14552 0.11906,0.191 0.26458,0.10106 0.14552,-0.0899 0.26459,-0.28258 0.26459,-0.4281 z m 4.8546,-1.32207 c 0.48993,-1.517 0.55777,-2.35087 0.19124,-2.35087 -0.13521,0 -0.38732,0.68155 -0.56025,1.51456 -0.17293,0.83301 -0.3727,1.66645 -0.44394,1.85209 -0.0712,0.18563 -0.0158,0.33752 0.12318,0.33752 0.13898,0 0.44938,-0.60899 0.68977,-1.3533 z m -3.79627,-0.73097 c 0,-0.38779 -0.66541,-0.81371 -1.54657,-0.98994 -1.00811,-0.20163 -1.17484,0.39901 -0.23937,0.86231 0.73684,0.36493 1.78594,0.4399 1.78594,0.12763 z m 1.32292,-2.23524 c 0,-0.98274 -1.1463,-1.86274 -2.45128,-1.88182 -1.51294,-0.0221 -1.63578,0.38515 -0.25498,0.84542 0.6216,0.2072 1.33598,0.65987 1.58749,1.00592 0.58547,0.80553 1.11877,0.82006 1.11877,0.0305 z m 10.31875,-0.23133 c 0,-0.42741 -0.0782,-0.50384 -0.29445,-0.28763 -0.16194,0.16194 -0.21445,0.42388 -0.11668,0.58208 0.27369,0.44283 0.41113,0.34439 0.41113,-0.29445 z m -7.16235,-0.67468 c -0.0165,-0.64475 -0.0445,-0.66735 -0.24599,-0.19844 -0.31054,0.72268 -0.31054,0.92604 0,0.92604 0.14552,0 0.25622,-0.32742 0.24599,-0.7276 z m -2.67881,-2.38125 c 0.7979,-2.09427 0.90887,-2.76033 0.56645,-3.40013 -0.32721,-0.6114 -0.36306,-0.57368 -1.08808,1.1448 -0.75585,1.7916 -0.89706,2.48281 -0.57332,2.80654 0.37482,0.37482 0.82931,0.14602 1.09495,-0.55121 z m -4.42526,-1.17209 c -0.13697,-0.33762 -0.32031,-0.94614 -0.4074,-1.35228 -0.0871,-0.40613 -0.26756,-0.67093 -0.40103,-0.58844 -0.14003,0.0865 -0.0808,0.60878 0.14005,1.23471 0.21049,0.5966 0.38633,1.33765 0.39076,1.64678 0.007,0.49384 0.0395,0.5081 0.26736,0.11756 0.16463,-0.2822 0.16838,-0.6686 0.0103,-1.05833 z m -5.47519,-0.0219 1.08848,-0.46635 -1.14613,0.0785 c -1.11792,0.0766 -1.14347,0.0604 -1.03801,-0.65813 0.13904,-0.94731 -0.26007,-0.95346 -0.61895,-0.01 -0.15204,0.39992 -0.45545,0.92492 -0.67423,1.16667 -0.35588,0.39325 -0.34727,0.46781 0.0818,0.70791 0.33553,0.18777 0.59053,0.1751 0.84907,-0.0422 0.20324,-0.1708 0.85934,-0.52041 1.45801,-0.7769 z m 22.10426,-0.26126 c -0.0102,-0.32742 -0.12092,-0.83344 -0.24599,-1.12448 -0.17611,-0.40983 -0.23158,-0.27558 -0.24598,0.59531 -0.0102,0.61846 0.10046,1.12448 0.24598,1.12448 0.14552,0 0.25622,-0.26789 0.24599,-0.59531 z m -18.76682,-0.74965 c 0,-0.64481 -0.61827,-0.55366 -0.747,0.11012 -0.0506,0.26108 0.0843,0.44109 0.33073,0.44109 0.24543,0 0.41627,-0.22622 0.41627,-0.55121 z m 12.76375,-1.69775 c -0.0377,-0.58208 -0.10666,-1.68185 -0.15325,-2.44393 -0.0701,-1.14695 -0.21782,-1.50007 -0.85751,-2.0502 -0.42503,-0.36553 -0.84819,-0.66474 -0.94036,-0.66492 -0.0922,-1.8e-4 -0.23256,-0.2488 -0.31198,-0.5525 -0.0934,-0.35711 -0.31459,-0.51988 -0.62617,-0.46074 -0.3667,0.0696 -0.49939,0.37528 -0.55551,1.27978 -0.0406,0.65359 -0.2535,2.17457 -0.4732,3.37995 -0.2197,1.20539 -0.32534,2.31154 -0.23474,2.45813 0.0945,0.15289 1.02943,0.23374 2.19299,0.18964 l 2.02827,-0.0769 z m 4.27357,0.50753 c 0.20983,-0.54682 0.20259,-4.16067 -0.0139,-6.94216 l -0.17135,-2.20129 -0.68696,0.16818 c -0.37783,0.0925 -0.8532,0.33084 -1.05637,0.52964 -0.31533,0.30853 -0.2669,0.48327 0.3308,1.1936 0.91931,1.09253 1.10176,1.91713 0.63238,2.85802 -0.33514,0.67182 -0.33478,0.86133 0.003,1.50575 0.36828,0.70288 0.34005,1.79861 -0.0733,2.84375 -0.13749,0.34767 -0.0513,0.46302 0.34606,0.46302 0.29104,0 0.60144,-0.18833 0.68976,-0.41851 z m -17.3019,-0.89936 c 0,-0.33766 -1.20235,-0.63709 -1.73597,-0.43232 -0.22783,0.0874 -0.34013,0.27886 -0.24956,0.42541 0.21212,0.34322 1.98553,0.34939 1.98553,0.007 z m 2.49123,-0.17461 c 0.19253,-0.50171 -0.0427,-1.41793 -0.36409,-1.41793 -0.33485,0 -0.57027,0.80961 -0.39552,1.36019 0.193,0.60809 0.53835,0.63434 0.75961,0.0577 z m 0.83163,-3.13772 c 0.50596,-0.39098 0.50605,-0.40271 0.006,-0.78927 -0.59682,-0.46148 -1.21234,-0.11148 -1.21234,0.68937 0,0.59858 0.50657,0.64054 1.2062,0.0999 z m 11.27773,-1.51254 c -0.18986,-0.18985 -0.31309,-0.20548 -0.31309,-0.0397 0,0.35316 0.31289,0.66606 0.48948,0.48948 0.0752,-0.0752 -0.004,-0.27759 -0.17639,-0.44979 z m -15.13143,-1.59632 c 0.002,-0.28397 -1.52516,-0.24606 -1.70337,0.0423 -0.0818,0.13239 -0.0802,0.41952 0.004,0.63806 0.13374,0.34854 0.24742,0.34334 0.92523,-0.0423 0.42501,-0.24179 0.7735,-0.52892 0.77442,-0.63806 z m -3.59184,-1.15279 c 0.38577,-0.14803 0.61027,-0.89773 0.26882,-0.89773 -0.34443,0 -1.17323,0.5673 -1.17323,0.80306 0,0.29317 0.30415,0.32501 0.90441,0.0947 z m 1.21226,-4.29965 c 0,-0.26009 -4.93407,-0.65554 -5.30659,-0.42531 -0.68728,0.42476 -5.3e-4,0.59315 2.52847,0.61998 1.52796,0.0162 2.77812,-0.0714 2.77812,-0.19467 z m 26.41823,-7.51214 c 0.46225,-1.77251 0.46824,-2.15715 0.035,-2.24702 -0.2211,-0.0459 -0.60708,0.0689 -0.85775,0.255 -0.37261,0.27665 -0.42529,0.59174 -0.28875,1.72744 0.20414,1.69813 0.70647,1.8177 1.11151,0.26458 z M 63.477755,244.61454 c -3.58647,-0.46053 -6.9687,-2.26974 -10.08663,-5.39551 -1.971,-1.97596 -3.83639,-4.71316 -3.46505,-5.0845 0.0887,-0.0887 0.48747,0.13993 0.88613,0.50808 2.31496,2.13777 4.71558,3.11599 8.14324,3.31824 2.07617,0.1225 2.68636,0.0503 4.63021,-0.548 1.43875,-0.44283 2.70928,-1.0478 3.55509,-1.69279 1.56734,-1.1952 3.84318,-3.9391 3.84318,-4.63358 0,-0.27126 0.48046,-1.76545 1.0677,-3.32042 1.70174,-4.50617 1.98355,-6.5579 1.89611,-13.805 -0.0412,-3.4184 -0.17588,-6.31617 -0.29919,-6.43948 -0.12332,-0.12331 -0.6757,0.94715 -1.22753,2.37882 -0.55183,1.43166 -1.20237,2.96021 -1.44565,3.39677 -0.9923,1.78065 -3.29603,5.33427 -3.85927,5.95313 -0.33111,0.3638 -0.77839,1.07817 -0.99397,1.5875 -0.66475,1.57057 -4.68036,5.01422 -7.30903,6.26796 -2.84473,1.35679 -4.5251,1.74859 -8.02109,1.8702 -3.93021,0.13672 -4.90099,-0.0522 -8.10262,-1.57649 -1.82155,-0.86726 -2.68506,-1.49842 -4.41184,-3.22468 -1.77076,-1.77023 -2.36193,-2.58899 -3.37344,-4.67211 -0.67453,-1.38916 -1.22643,-2.61694 -1.22643,-2.72839 0,-0.11146 0.8632,0.67188 1.91823,1.74073 1.95597,1.98161 3.48964,2.90889 6.20128,3.7494 1.50414,0.46622 4.73572,0.56489 6.01691,0.18371 4.83537,-1.43861 5.61619,-1.89102 8.53754,-4.94667 1.41922,-1.48447 2.03954,-2.51242 4.61554,-7.64859 1.63678,-3.2635 2.89568,-6.01392 2.79756,-6.11204 -0.0981,-0.0981 -1.0631,0.66195 -2.14439,1.68907 -3.48535,3.31074 -6.64429,4.96019 -13.11206,6.8465 -9.09152,2.65152 -17.8842,0.58665 -22.82711,-5.3607 -1.06239,-1.27828 -3.116,-5.14814 -3.116,-5.87185 0,-0.20628 0.74787,0.32454 1.66194,1.1796 1.89499,1.77267 4.56283,3.26938 7.06931,3.966 2.32065,0.64498 8.61544,0.6413 11.1125,-0.007 3.44561,-0.89388 8.04414,-3.15223 10.45104,-5.13255 1.53649,-1.26417 5.30394,-4.97467 6.37471,-6.27835 1.92211,-2.34021 3.858,-5.14862 3.75729,-5.45074 -0.0539,-0.16176 -1.26789,0.84387 -2.69772,2.23473 -3.95188,3.84417 -6.3555,5.3325 -11.34738,7.02633 -4.59083,1.55776 -7.01153,1.95063 -11.25443,1.82657 -3.10611,-0.0908 -3.92598,-0.21136 -5.7959,-0.85214 -3.53586,-1.21165 -3.47603,-1.33724 0.65181,-1.36811 4.15643,-0.0311 5.84224,-0.39328 9.19912,-1.9764 2.63484,-1.24259 4.86414,-2.68028 7.49058,-4.83071 1.11893,-0.91615 2.92739,-2.28491 4.0188,-3.0417 3.24344,-2.24904 3.98323,-2.8593 6.54843,-5.40192 2.40352,-2.38236 3.13186,-3.48964 1.85209,-2.81569 -0.32742,0.17243 -0.65485,0.39392 -0.72761,0.49219 -0.0728,0.0983 -0.84666,0.6588 -1.71979,1.24561 -1.46136,0.98214 -2.86826,1.59672 -8.73125,3.81411 -2.93547,1.1102 -4.1202,1.71849 -6.87271,3.52878 -4.28392,2.81749 -6.51833,4.09069 -8.70448,4.95997 -2.11545,0.84117 -2.21982,0.85493 -6.51552,0.85889 l -4.36562,0.004 -1.95243,-1.03539 c -1.07384,-0.56946 -2.58449,-1.61305 -3.357,-2.31908 -2.08484,-1.90543 -4.50799,-5.9767 -4.96278,-8.33825 -0.2033,-1.05565 0.19908,-1.12612 0.71653,-0.12549 1.00424,1.94199 4.34774,4.46251 6.90618,5.20627 1.77162,0.51502 6.38129,0.53657 8.2517,0.0386 2.67573,-0.71241 8.23237,-4.16556 7.96895,-4.95227 -0.0426,-0.12714 -1.38742,-0.27381 -2.98856,-0.32595 -4.99081,-0.16251 -8.79038,-1.81171 -12.50082,-5.42596 -1.38961,-1.35358 -1.44553,-1.79841 -0.13229,-1.05242 3.0278,1.71997 3.8357,2.08335 5.75995,2.59072 5.45437,1.43817 11.83068,0.70179 17.90574,-2.06786 0.68324,-0.31149 1.32213,-0.56635 1.41976,-0.56635 0.3188,0 2.84682,-1.9225 5.14319,-3.91127 4.00641,-3.46976 7.95482,-8.50944 10.66319,-13.61028 0.60331,-1.13626 0.71143,-1.60336 0.58081,-2.50922 -0.14973,-1.03841 -0.05,-1.27798 1.48727,-3.57188 0.90628,-1.35235 2.04184,-2.93506 2.52347,-3.51714 2.92237,-3.53186 4.60216,-5.43051 5.68718,-6.42815 0.67675,-0.62225 1.30284,-1.41974 1.3913,-1.77221 0.0908,-0.36193 0.70684,-1.01105 1.41537,-1.49147 0.69,-0.46785 1.63249,-1.17571 2.09444,-1.57303 0.87064,-0.74885 5.62857,-3.23237 8.41314,-4.39146 0.87718,-0.36513 2.36878,-0.76867 3.31466,-0.89674 0.94589,-0.12808 2.24779,-0.34337 2.89312,-0.47842 0.64533,-0.13505 1.41924,-0.15037 1.71979,-0.0341 0.63399,0.24536 0.57812,0.27421 -1.83478,0.94754 -4.12833,1.15203 -7.54062,3.84811 -7.54062,5.9579 0,0.99162 0.51716,1.51864 2.04943,2.08851 0.83734,0.31142 1.99869,0.84461 2.58077,1.18487 1.02967,0.60189 2.53153,1.99192 2.15217,1.99192 -0.10396,0 -1.40464,-0.40663 -2.89039,-0.90362 -2.52635,-0.84507 -3.00133,-0.91464 -7.33157,-1.07384 -2.78179,-0.10228 -4.96885,-0.0671 -5.47849,0.0881 -1.39022,0.42331 -2.98641,1.90422 -3.81072,3.5355 -0.65109,1.28849 -0.76495,1.82468 -0.76495,3.60234 0,2.64242 0.51753,3.48281 2.14479,3.48281 0.91347,0 1.11689,-0.11667 1.58411,-0.90855 0.29483,-0.49971 1.26824,-1.50818 2.16312,-2.24105 1.90347,-1.55887 2.60921,-1.72565 6.60936,-1.56192 3.50936,0.14364 4.71014,0.72841 7.28058,3.5456 1.60769,1.76203 2.00219,2.40608 2.96108,4.83425 0.71442,1.80908 1.18713,3.51022 1.33451,4.8025 0.12553,1.10062 0.54096,3.54423 0.92317,5.43025 0.92254,4.55226 1.14238,6.85125 0.63933,6.68579 -0.20479,-0.0674 -0.41265,-0.47048 -0.46191,-0.89582 -0.0493,-0.42534 -0.18462,-0.89241 -0.30081,-1.03793 -0.11619,-0.14552 -0.29552,-0.80036 -0.39851,-1.45521 -0.19422,-1.23486 -1.39398,-4.95528 -1.75122,-5.43044 -0.35728,-0.47522 -0.9855,-2.58344 -1.29896,-4.35914 -0.94068,-5.32865 -2.55965,-7.64372 -6.39714,-9.14762 -1.88729,-0.73962 -6.82942,-1.23296 -6.82942,-0.68173 0,0.1913 0.5232,0.30435 1.40858,0.30435 2.21553,0 6.87226,1.52723 8.05801,2.64272 1.53735,1.44626 2.7711,4.41984 3.07973,7.42278 0.0966,0.93965 0.24066,2.15494 0.32018,2.70065 0.14439,0.99079 0.14325,0.99218 -0.81542,0.99218 -0.53756,0 -1.27548,0.22994 -1.6769,0.52253 -1.47409,1.07444 -5.49422,0.84437 -8.20283,-0.46945 -1.18859,-0.57653 -1.58897,-0.9795 -2.64583,-2.66292 -0.68492,-1.09097 -1.42566,-2.52764 -1.64607,-3.1926 -0.32099,-0.96837 -0.50531,-1.18935 -0.92604,-1.11022 -0.28891,0.0543 -1.25937,0.0896 -2.15658,0.0782 -0.97372,-0.0123 -1.73742,0.10789 -1.89459,0.29809 -0.14482,0.17524 -0.32254,1.15206 -0.39494,2.17071 -0.24083,3.38849 -0.73099,7.39832 -1.00263,8.20208 -0.14754,0.43657 -0.33617,1.98438 -0.41919,3.43959 -0.083,1.4552 -0.2841,2.81297 -0.44685,3.01726 -0.44142,0.55404 -0.40922,12.85028 0.0348,13.2943 0.1819,0.1819 0.33073,0.75438 0.33073,1.27217 0,1.37648 1.93809,6.68938 3.14084,8.61001 0.80199,1.28068 2.68438,3.30885 3.06581,3.30325 0.17414,-0.003 0.16699,-0.0756 -0.0194,-0.19844 -0.16229,-0.10691 -0.37867,-0.46228 -0.48085,-0.7897 -0.13618,-0.43636 -0.0792,-0.59531 0.21331,-0.59531 0.2195,0 0.47267,0.11906 0.56261,0.26458 0.30172,0.4882 1.43224,0.28101 1.83695,-0.33665 0.51195,-0.78135 1.20575,-4.0991 1.20575,-5.76595 0,-1.65963 -0.70041,-5.91528 -1.17292,-7.12657 -0.19867,-0.50932 -0.61253,-1.5698 -0.91966,-2.35661 -0.30714,-0.78681 -0.50853,-1.48047 -0.44754,-1.54147 0.061,-0.061 0.62432,0.46371 1.25184,1.16599 2.32482,2.60182 3.59797,3.66467 5.1471,4.2969 1.59917,0.65266 2.84114,1.59222 3.35256,2.53624 0.64544,1.19141 1.30875,10.71562 0.74628,10.71562 -0.15107,0 -0.34866,-0.32742 -0.43911,-0.7276 -0.0904,-0.40019 -0.39281,-1.56105 -0.67192,-2.57969 -0.27912,-1.01865 -0.63352,-2.32834 -0.78756,-2.91042 -0.70233,-2.65398 -1.59657,-3.13417 -2.46364,-1.32292 -0.27865,0.58209 -0.6063,1.26508 -0.72812,1.51777 -0.4173,0.86563 -0.26065,8.04727 0.20821,9.54502 1.31439,4.19872 1.91633,5.85881 2.15298,5.93769 0.14553,0.0485 0.34805,-0.24429 0.45004,-0.65067 l 0.18544,-0.73887 0.36593,0.6612 c 0.49614,0.8965 0.49934,4.68777 0.005,5.87102 -0.20885,0.49985 -1.03787,1.76062 -1.84226,2.80171 -1.77474,2.29698 -2.38296,3.45897 -2.7725,5.2968 -0.64555,3.04567 -0.26161,5.60056 1.36326,9.07168 l 0.91827,1.96165 -0.73061,1.05834 c -1.71396,2.48279 -4.72494,4.77848 -8.60796,6.56304 -3.05785,1.40532 -6.73298,1.79666 -11.32964,1.20641 z m 24.44155,-81.32504 c 1.47087,-1.01931 1.66793,-1.45635 1.18153,-2.62048 -0.21831,-0.52248 -0.45968,-0.94997 -0.53638,-0.94997 -0.0767,0 -0.47015,0.24449 -0.87433,0.54331 -0.43953,0.32496 -1.34258,0.60603 -2.24697,0.69938 -1.32475,0.13672 -1.59035,0.0826 -2.14357,-0.43716 -0.34729,-0.32627 -0.78104,-0.95437 -0.96388,-1.39578 -0.31543,-0.76151 -0.28606,-0.84143 0.57404,-1.56222 0.51556,-0.43205 1.11461,-0.7107 1.38913,-0.64614 0.47397,0.11146 1.50171,-0.6732 1.50171,-1.14654 0,-0.2652 -2.09223,-1.34652 -2.60538,-1.34652 -0.1769,0 -0.39176,0.18273 -0.47746,0.40607 -0.0857,0.22334 -0.64752,0.74581 -1.24847,1.16105 -1.75998,1.21611 -2.54785,2.06608 -2.54785,2.74871 0,0.35031 0.36924,1.35288 0.82054,2.22793 0.82113,1.59214 1.82114,2.41848 3.63144,3.00077 1.34722,0.43334 3.37516,0.12892 4.5459,-0.68241 z m 3.16162,78.54646 c -1.22455,-1.14542 -1.58457,-1.68872 -1.11315,-1.67985 0.22749,0.004 2.145,1.7513 2.68214,2.44366 0.73019,0.94119 -0.26322,0.45759 -1.56899,-0.76381 z m -0.51784,-29.96859 c 0,-0.14872 0.24263,-0.88593 0.53916,-1.63825 0.29653,-0.75231 0.81882,-2.45336 1.16064,-3.78011 1.21189,-4.70389 1.34991,-6.04736 1.22634,-11.93726 -0.19469,-9.27942 -0.168,-12.03641 0.11657,-12.04224 0.14552,-0.003 0.33888,0.97891 0.42968,2.18196 0.0908,1.20305 0.41876,3.05101 0.7288,4.10657 0.47515,1.61769 0.59073,2.9085 0.73571,8.21647 0.15588,5.70705 0.12566,6.44471 -0.32239,7.87038 -0.63543,2.0219 -1.43344,3.51053 -2.91178,5.43175 -1.24146,1.61337 -1.70273,2.0443 -1.70273,1.59073 z m 37.580155,-10.59135 c -0.15064,-0.28147 -0.2739,-0.86311 -0.2739,-1.29253 0,-0.42942 -0.1971,-1.39107 -0.43802,-2.13701 -0.46568,-1.4419 -0.29519,-2.08462 0.32718,-1.23347 0.61373,0.83932 1.43376,3.27505 1.43376,4.25867 0,1.03396 -0.59029,1.26149 -1.04902,0.40434 z m 6.12883,-3.06718 c -0.71743,-1.47668 -0.71831,-1.44813 0.0445,-1.44813 0.54041,0 0.6623,0.1816 0.88797,1.32292 0.34002,1.71967 -0.12734,1.78243 -0.93248,0.12521 z m -10.49086,-0.21534 c -0.36403,-0.26619 -0.44194,-0.53946 -0.30705,-1.07691 0.24319,-0.96895 1.05628,-0.82405 1.17472,0.20935 0.11153,0.97303 -0.24116,1.32567 -0.86767,0.86756 z m 6.77863,-0.74623 c 0.0482,-0.34037 0.26622,-0.61885 0.4845,-0.61885 0.57381,0 0.49477,1.03224 -0.0876,1.1444 -0.37572,0.0724 -0.46483,-0.0456 -0.39687,-0.52555 z m -15.23983,-3.01952 c -0.32151,-0.32151 -0.41525,-1.00825 -0.41525,-3.04219 0,-2.43915 0.0373,-2.62693 0.52237,-2.62693 0.32248,0 0.69116,0.32906 0.96345,0.8599 0.2426,0.47294 0.65369,1.1328 0.91354,1.46635 0.45548,0.58466 0.45268,0.65407 -0.0778,1.93054 -0.64468,1.5513 -1.28957,2.02907 -1.90631,1.41233 z m 4.58942,-4.54464 c -1.35446,-0.69672 -2.13076,-1.29526 -2.60687,-2.0099 -0.3729,-0.55974 -0.98637,-1.36113 -1.36326,-1.78086 -0.68206,-0.7596 -0.68606,-0.79104 -0.85989,-6.76411 -0.21819,-7.49703 -0.22414,-13.4161 -0.014,-13.96359 0.52218,-1.3608 3.26404,0.43941 4.67966,3.07252 1.84253,3.42717 2.27329,4.33387 2.28809,4.81617 0.0135,0.44078 0.42934,1.80674 1.37751,4.52508 0.86475,2.47919 1.39053,3.74903 1.69999,4.1058 0.19161,0.2209 0.57659,0.91135 0.85551,1.53434 0.61366,1.37065 0.40982,2.96174 -0.60024,4.68528 -0.78337,1.33673 -2.35444,2.77146 -3.03481,2.77146 -0.27103,0 -1.36077,-0.44649 -2.42164,-0.99219 z m 8.48908,-4.27784 c 0,-0.92988 0.23532,-1.60914 0.55748,-1.60914 0.26979,0 0.30508,0.90688 0.0695,1.78594 -0.22752,0.849 -0.62699,0.73635 -0.62699,-0.1768 z m -41.309945,-1.21226 c -1.08846,-2.66772 -1.65025,-6.97302 -0.8911,-6.82896 0.14552,0.0276 0.3592,0.56339 0.47485,1.19062 0.11565,0.62723 0.39525,2.03339 0.62134,3.12479 0.22608,1.09141 0.36959,2.34157 0.31889,2.77813 l -0.0922,0.79375 z m 54.089115,-7.56868 c -1.01636,-0.29393 -1.39148,-0.7657 -0.60882,-0.7657 0.82724,0 2.89781,0.55852 3.06331,0.82629 0.1833,0.29661 -1.35026,0.25875 -2.45449,-0.0606 z M 27.616705,175.99535 c -4.83075,-1.79361 -9.05053,-6.38473 -10.60874,-11.54233 -0.74503,-2.46598 -0.75021,-8.38574 -0.009,-10.6871 0.28107,-0.87312 0.52144,-1.52797 0.53416,-1.4552 0.0127,0.0728 0.0611,1.32291 0.10743,2.77812 0.13722,4.3059 1.30535,7.34284 3.80152,9.88329 0.83619,0.85102 1.8927,1.80087 2.34779,2.11077 1.79695,1.22367 6.03638,1.72253 9.38905,1.10482 1.89373,-0.34891 4.87106,-1.873 6.47657,-3.31534 1.55505,-1.39701 1.36152,-1.70284 -1.08265,-1.71085 -2.08049,-0.007 -4.74426,-0.95023 -6.31331,-2.23596 -0.67502,-0.55312 -1.22731,-1.10399 -1.22731,-1.22414 0,-0.12016 0.65029,0.005 1.4451,0.27872 2.15581,0.74171 3.57485,0.88015 5.67763,0.55389 2.47899,-0.38463 4.85403,-1.21535 6.54027,-2.28761 2.12764,-1.35293 2.05883,-1.4378 -1.16563,-1.4378 -4.03072,0 -6.94983,-1.01277 -10.0311,-3.48026 -2.20363,-1.76467 -4.64296,-5.55124 -5.76896,-8.95515 -0.5503,-1.66357 -0.91074,-7.40834 -0.46482,-7.40834 0.14731,0 0.35056,0.56555 0.45165,1.25677 0.22857,1.56277 1.69698,4.63299 3.17814,6.64501 1.24412,1.69001 2.85059,2.96764 5.41376,4.30556 1.57214,0.82062 1.88988,0.88915 4.10104,0.88453 2.68724,-0.006 5.10721,-0.71789 8.40927,-2.47512 2.04502,-1.08828 2.46698,-0.96508 1.93472,0.56491 -0.5054,1.45282 -0.12567,1.40026 0.78518,-0.10868 1.97094,-3.2651 3.33781,-5.23823 4.65851,-6.72474 0.78422,-0.88269 2.31883,-2.64181 3.41023,-3.90917 1.09141,-1.26735 2.68459,-2.85727 3.5404,-3.53314 4.59185,-3.62636 12.71648,-8.27212 17.22939,-9.85198 1.30969,-0.45848 2.73844,-0.99453 3.175,-1.1912 2.06505,-0.93033 2.83714,-1.22647 5.42396,-2.08043 1.52797,-0.50442 3.6711,-1.12639 4.7625,-1.38217 1.09141,-0.25577 2.81781,-0.68187 3.83646,-0.94687 1.01865,-0.265 2.625995,-0.61198 3.571885,-0.77106 4.40415,-0.7407 7.68494,-1.43096 11.1125,-2.33801 1.14048,-0.30181 2.08657,-0.42669 2.22467,-0.29364 0.42747,0.4118 -1.74936,4.20927 -3.75453,6.54975 -2.31448,2.70152 -3.41302,3.58871 -6.56283,5.30016 -2.89628,1.57369 -8.392565,3.52446 -10.857895,3.85373 -0.41848,0.0559 -1.65385,0.28871 -2.74526,0.51736 -1.0914,0.22866 -2.63922,0.49284 -3.43958,0.58707 -0.80036,0.0942 -2.80752,0.51568 -4.46034,0.93655 -1.65282,0.42088 -3.21393,0.76523 -3.46913,0.76523 -0.79622,0 -6.8109,2.82166 -8.91504,4.18231 -3.09417,2.00086 -5.53724,4.01906 -8.29091,6.84905 -4.2944,4.41345 -7.99055,9.06811 -8.35554,10.52234 -0.15331,0.61084 -0.0944,0.6713 0.65394,0.6713 0.45234,0 0.82244,0.12302 0.82244,0.27338 0,0.39841 -1.24238,2.78653 -2.41909,4.65 -0.56127,0.88885 -1.0205,1.69935 -1.0205,1.80112 0,0.38867 -3.65735,5.40265 -4.791,6.56813 -5.30816,5.4572 -9.54541,7.61332 -14.92045,7.59225 -2.1171,-0.008 -2.98463,-0.13616 -4.34118,-0.63983 z m 22.72972,-25.27213 c 0,-0.14553 -0.11906,-0.26459 -0.26458,-0.26459 -0.14552,0 -0.26459,0.11906 -0.26459,0.26459 0,0.14552 0.11907,0.26458 0.26459,0.26458 0.14552,0 0.26458,-0.11906 0.26458,-0.26458 z m 99.675765,22.93718 c -1.24844,-0.3493 -1.12954,-0.8553 0.19081,-0.81208 0.62385,0.0204 1.19789,0.24052 1.55269,0.59532 l 0.56291,0.56291 -0.65411,-0.0334 c -0.35976,-0.0184 -1.10329,-0.15911 -1.6523,-0.31271 z m -21.59021,-1.63933 c -3.23728,-1.2165 -4.53139,-2.53476 -4.53139,-4.61597 0,-1.32878 0.3196,-1.36206 1.87481,-0.19522 2.49941,1.87524 4.10885,3.04194 4.81969,3.49384 0.55384,0.35209 0.72116,0.64538 0.66146,1.15946 -0.10614,0.91396 -0.7211,0.94834 -2.82457,0.15789 z m 15.31236,-0.50476 c -1.39467,-0.32983 -1.2406,-0.34959 3.70417,-0.47512 6.81766,-0.17307 8.10785,-0.59361 10.94471,-3.5674 1.36513,-1.43103 1.68607,-1.06449 0.58925,0.67297 -0.88371,1.39989 -2.00423,2.27791 -3.79077,2.97037 -1.30961,0.5076 -2.12455,0.60204 -5.75882,0.6673 -2.8069,0.0504 -4.72366,-0.0399 -5.68854,-0.26812 z m -5.15937,-0.4393 c -4.90704,-0.56739 -10.7788,-3.16818 -13.34143,-5.90934 -0.63906,-0.68358 -0.37325,-0.99585 0.2918,-0.34281 0.77096,0.75702 2.90626,2.06798 5.20145,3.19341 2.40346,1.17852 4.75732,1.89636 8.44349,2.57497 1.05503,0.19423 1.91823,0.44637 1.91823,0.56031 0,0.11394 -0.14883,0.19152 -0.33073,0.17239 -0.1819,-0.0191 -1.16417,-0.13114 -2.18281,-0.24893 z m -58.218185,-2.51859 c -1.52425,-0.5412 -2.94795,-1.81023 -3.70343,-3.3011 -0.7898,-1.55861 -0.8131,-1.99404 -0.12633,-2.36159 0.46868,-0.25082 0.65678,-0.0775 1.72571,1.59014 0.98006,1.52899 1.4206,1.96633 2.40633,2.38887 0.66366,0.28447 1.31966,0.51722 1.45779,0.51722 0.13813,0 0.67861,0.17861 1.20107,0.39691 0.79979,0.33417 0.89786,0.45962 0.62056,0.79375 -0.41435,0.49926 -2.14026,0.4876 -3.5817,-0.0242 z m 56.630685,-0.76951 c -2.05384,-0.43175 -4.2897,-1.0486 -5.29167,-1.45991 -0.43656,-0.17921 -1.03187,-0.42378 -1.32291,-0.54348 -4.13767,-1.70175 -6.25679,-3.29574 -7.28251,-5.47788 -0.53765,-1.1438 -0.60465,-1.19632 -0.94039,-0.73716 -0.28284,0.3868 -0.3876,0.41357 -0.48143,0.12304 -0.26006,-0.80525 -0.47959,-2.32458 -0.64621,-4.47239 -0.096,-1.23693 -0.29353,-2.24896 -0.43905,-2.24896 -0.36332,0 -0.49639,4.63652 -0.1432,4.98971 0.33591,0.33592 0.36937,2.28633 0.0392,2.28633 -0.43758,0 -0.62226,-0.91222 -0.74991,-3.70416 -0.17341,-3.7925 -0.79362,-4.68838 -2.3812,-3.43958 -0.91793,0.72204 -2.21452,0.68531 -2.9365,-0.0832 -0.55897,-0.595 -0.57528,-0.79985 -0.57528,-7.22313 0,-4.78892 0.0875,-6.69826 0.3175,-6.92826 0.17462,-0.17462 0.87935,-0.3175 1.56606,-0.3175 0.6867,0 1.58563,-0.17382 1.9976,-0.38626 1.59723,-0.82364 7.46928,-3.58249 7.62511,-3.58249 0.0904,0 0.68618,-0.23768 1.32387,-0.52819 1.08285,-0.49329 2.02305,-0.78513 5.69069,-1.7664 1.84717,-0.4942 5.2085,-1.05311 8.59896,-1.4298 6.83406,-0.75928 14.59948,1.08542 18.32239,4.35254 1.17313,1.0295 0.55973,0.8872 -1.49251,-0.34623 -1.36853,-0.82251 -3.12325,-1.56579 -5.09323,-2.15743 l -3.0054,-0.90261 -5.55625,0.0254 c -4.59142,0.021 -6.03129,0.12418 -8.2919,0.59432 -1.50461,0.31292 -2.84233,0.63488 -2.97273,0.71547 -0.1304,0.0806 -0.91286,0.25651 -1.73879,0.39093 -2.40513,0.39145 -7.80954,2.73723 -8.90858,3.86676 -0.31767,0.32649 -0.92159,0.945 -1.34205,1.37448 l -0.76446,0.78085 0.55215,0.59267 c 0.524,0.56245 0.73863,0.59083 4.20916,0.55662 2.22099,-0.0219 4.38226,-0.19852 5.50398,-0.4498 1.01583,-0.22756 2.02556,-0.40319 2.24384,-0.39028 0.21829,0.0129 1.18891,0.0135 2.15695,0.001 1.70545,-0.0214 2.62345,0.37419 1.63014,0.70254 -3.00485,0.99329 -6.85045,2.72113 -7.98995,3.58991 -0.65385,0.49851 -0.36957,0.65858 0.43614,0.2456 1.0637,-0.54523 5.05724,-2.12562 6.28027,-2.48534 3.0909,-0.9091 4.22243,-1.05757 9.01269,-1.18253 4.01978,-0.10488 5.336,-0.0498 6.48229,0.27119 0.79109,0.22153 1.89949,0.48269 2.46311,0.58036 0.56362,0.0977 1.21846,0.27791 1.45521,0.40052 0.23674,0.12262 1.12869,0.55756 1.9821,0.96654 2.21375,1.0609 3.8723,3.17776 3.8723,4.94233 0,0.50112 0.18547,1.355 0.41214,1.89751 0.22668,0.54251 0.38549,1.24166 0.35292,1.55367 -0.0326,0.312 0.0893,1.09225 0.27086,1.73389 0.37746,1.33406 0.20127,2.7212 -0.41009,3.22859 -0.6155,0.51081 -1.15409,-0.35664 -1.15861,-1.86608 -0.004,-1.47494 -0.2326,-2.39682 -0.59326,-2.39682 -0.17084,0 -0.21007,0.51095 -0.10641,1.38616 0.18191,1.53595 -0.27908,6.27579 -0.64875,6.6704 -0.1295,0.13825 -0.23546,0.567 -0.23546,0.95278 0,0.94614 -1.15137,3.07264 -2.31668,4.27877 -1.1393,1.1792 -2.80438,2.01366 -4.95937,2.48538 -2.07575,0.45438 -11.81685,0.43305 -14.02291,-0.0307 z m 12.8456,-1.69487 c 2.01667,-0.41363 2.48145,-0.62064 3.67846,-1.63829 1.77732,-1.51101 2.47728,-2.74948 3.19288,-5.64926 0.32138,-1.30227 0.7345,-2.79343 0.91805,-3.31368 0.18356,-0.52025 0.42052,-2.27423 0.52657,-3.89774 0.17872,-2.73571 0.14977,-3.03807 -0.39528,-4.12944 -0.66204,-1.32561 -3.22367,-3.71387 -4.60051,-4.28915 -1.36164,-0.56893 -7.8989,-1.71407 -9.76724,-1.71094 -1.45958,0.002 -6.37471,0.74622 -8.11832,1.2285 -0.77816,0.21523 -1.65899,0.68552 -6.05659,3.2337 -5.74015,3.32612 -6.09653,3.80668 -6.17854,8.33135 -0.0453,2.49687 0.004,2.78799 0.68344,4.00284 2.20946,3.95315 5.54907,6.42736 9.96419,7.38212 1.0914,0.23602 2.57968,0.60732 3.30729,0.82513 1.77122,0.5302 9.53742,0.3034 12.8456,-0.37514 z m -10.39306,-4.7999 c -1.88593,-0.2197 -3.96172,-1.2063 -5.64196,-2.68158 -0.7353,-0.6456 -0.91468,-1.04718 -1.18582,-2.6547 -0.36462,-2.1617 -0.22819,-4.79537 0.30678,-5.92207 0.82785,-1.74356 5.27506,-3.83146 8.09159,-3.79888 2.19353,0.0254 4.74564,1.65536 6.03403,3.85383 0.65667,1.12052 0.68114,1.29808 0.5167,3.74862 -0.24762,3.69008 -0.48864,4.41771 -1.92617,5.81516 -1.96152,1.90682 -2.55441,2.06374 -6.19515,1.63962 z m 3.32451,-1.5823 c 0.6276,-0.295 1.58075,-0.98663 2.11812,-1.53694 1.41232,-1.44635 2.5705,-4.9677 1.79211,-5.44877 -0.12902,-0.0797 -0.31557,-0.57664 -0.41454,-1.10422 -0.22687,-1.20932 -2.4191,-3.48349 -3.58223,-3.71611 -0.4437,-0.0887 -0.87081,-0.26503 -0.94913,-0.39176 -0.22336,-0.36141 -2.24528,-0.26271 -3.48824,0.17027 -2.4089,0.83913 -3.57851,2.03174 -4.41825,4.50513 -0.69139,2.03645 0.009,4.71191 1.64308,6.27324 1.82801,1.747 5.06239,2.30054 7.29908,1.24916 z m -4.18955,-1.10502 c -1.14173,-0.39801 -2.23394,-1.4917 -2.80851,-2.81231 -1.40649,-3.23272 0.32856,-6.21745 3.82398,-6.57821 1.87898,-0.19393 3.10363,0.24387 4.25874,1.52244 0.90427,1.00091 0.9435,1.12654 0.9435,3.02155 0,1.4437 -0.1296,2.19032 -0.48028,2.76698 -1.18633,1.95075 -3.5987,2.82512 -5.73743,2.07955 z m 3.37344,-3.15121 c 1.13842,-1.37116 0.20674,-3.47818 -1.67073,-3.77839 -0.81365,-0.13011 -1.05419,-0.27409 -0.94281,-0.56434 0.24187,-0.6303 -0.98479,-0.4748 -1.6222,0.20565 -0.74966,0.80028 -1.09785,1.79338 -0.93234,2.65922 0.13308,0.69614 0.60401,1.0162 0.60401,0.41051 0,-0.16705 0.26923,0.0958 0.59829,0.58408 0.94218,1.3981 2.99821,1.64865 3.96578,0.48327 z m -2.80503,-0.45569 c -0.58871,-0.65052 -0.54918,-1.44654 0.10106,-2.035 0.83425,-0.75498 1.94925,-0.26526 2.06178,0.90557 0.0975,1.0149 -0.11961,1.31992 -1.06127,1.49067 -0.42732,0.0775 -0.8215,-0.0518 -1.10157,-0.36124 z m -22.47857,-2.57046 c 0.0563,-0.17189 -0.26355,-0.23673 -0.83737,-0.16974 -0.51064,0.0596 -0.85861,0.22137 -0.77328,0.35944 0.20095,0.32514 1.49186,0.1731 1.61065,-0.1897 z m 51.27891,12.85715 c -0.43657,-0.28373 -1.26933,-0.85413 -1.85059,-1.26754 l -1.05683,-0.75167 -0.09,-2.14164 c -0.0566,-1.34789 0.0164,-2.20736 0.19694,-2.31896 0.18524,-0.11448 0.28691,0.15026 0.28691,0.74712 0,1.08471 0.46007,2.43919 0.735,2.1639 0.10507,-0.1052 0.14874,-1.60999 0.097,-3.34398 -0.0768,-2.57465 -0.0259,-3.15271 0.27743,-3.15271 0.20428,0 1.4372,0.47287 2.73983,1.05081 l 2.3684,1.0508 -0.0619,1.52889 c -0.14922,3.68576 -0.40572,5.7565 -0.78471,6.33491 -0.50961,0.77776 -1.7481,0.82114 -2.85756,0.10007 z m -49.78266,-2.53627 c -0.21426,-0.55836 0.14337,-0.85981 0.4482,-0.3778 0.32391,0.51217 0.31741,0.78609 -0.0186,0.78609 -0.15009,0 -0.3434,-0.18373 -0.42957,-0.40829 z m -2.18499,-3.13591 c -0.16853,-0.20306 -0.71889,-0.44657 -1.22303,-0.54115 -0.67449,-0.12654 -0.91661,-0.30857 -0.91661,-0.68914 0,-0.42305 0.18421,-0.51717 1.01221,-0.51717 1.088,0 2.16279,0.83024 2.16279,1.67069 0,0.54037 -0.6129,0.58582 -1.03536,0.0768 z m 47.27129,-2.2021 c -0.25466,-0.28219 -0.46302,-0.73852 -0.46302,-1.01406 0,-0.47444 0.0294,-0.47158 0.55493,0.0539 0.30521,0.30521 0.51357,0.76153 0.46302,1.01405 -0.0845,0.42233 -0.12902,0.418 -0.55493,-0.0539 z m 7.3824,-1.59697 c -0.0678,-0.10973 -0.99758,-0.49341 -2.06613,-0.8526 -1.06856,-0.3592 -2.00032,-0.69401 -2.07058,-0.74403 -0.0703,-0.05 -0.2085,-0.82721 -0.30719,-1.72708 -0.0987,-0.89988 -0.37485,-2.46958 -0.61368,-3.48823 -0.23884,-1.01864 -0.53436,-2.38786 -0.65672,-3.0427 -0.54304,-2.90636 -0.88406,-4.39842 -1.10305,-4.82624 -0.12968,-0.25333 -0.36581,-1.26536 -0.52472,-2.24896 -0.2911,-1.80174 -1.01408,-6.85329 -1.05116,-7.3446 -0.0788,-1.04435 0.62859,-11.0125 0.82752,-11.66045 0.1372,-0.44689 0.24946,-1.32002 0.24946,-1.94027 0,-1.45328 0.38607,-1.34068 1.55699,0.4541 0.65122,0.99817 1.06202,1.37267 1.50574,1.37267 1.05595,0 0.9669,-0.45793 -0.45973,-2.36431 -1.19073,-1.59116 -1.47466,-1.83027 -2.01287,-1.69519 -0.59835,0.15018 -0.61867,0.11105 -0.45097,-0.86818 0.0966,-0.564 0.27581,-1.38264 0.39827,-1.8192 0.12245,-0.43656 0.35529,-1.38906 0.51741,-2.11666 0.5919,-2.65653 0.74109,-3.19274 1.14688,-4.12211 0.22745,-0.52091 0.59752,-1.0998 0.82239,-1.28642 0.35213,-0.29224 0.48699,-0.16082 0.97193,0.9471 0.77292,1.76583 1.87602,5.28681 2.59967,8.29788 0.33225,1.38245 0.70938,2.71844 0.83808,2.96887 0.1287,0.25043 0.30464,1.322 0.39098,2.38125 0.0863,1.05926 0.22889,2.10452 0.31679,2.3228 0.61406,1.52485 0.91021,6.77956 0.98417,17.4625 0.0729,10.53631 -0.0375,13.28872 -0.64464,16.07344 -0.0354,0.16221 -1.05425,0.0455 -1.16484,-0.13338 z m -1.27703,-10.11069 c 0.49506,-1.1184 0.31811,-2.2575 -0.35068,-2.2575 -0.45861,0 -0.53975,0.20284 -0.60851,1.52136 -0.09,1.72633 0.36598,2.07631 0.95919,0.73614 z m 0.74558,-4.64085 c 0.40626,-1.34819 0.4459,-3.4848 0.069,-3.71775 -0.58143,-0.35935 -0.98635,0.59365 -1.16963,2.7528 -0.17418,2.05193 -0.15316,2.20135 0.29747,2.11456 0.30033,-0.0578 0.60605,-0.49543 0.80318,-1.14961 z m 0.35895,-7.69532 c 0,-1.51031 -0.11787,-3.25375 -0.26192,-3.8743 -0.14406,-0.62055 -0.35242,-1.582 -0.46302,-2.13656 -0.11061,-0.55455 -0.32017,-0.97127 -0.46569,-0.92604 -0.36447,0.11329 -0.16769,9.54791 0.20401,9.7812 0.78014,0.48963 0.98662,-0.10562 0.98662,-2.8443 z m -2.82035,-11.15414 c 0.0667,-0.10914 0.16303,-0.55341 0.21405,-0.98728 0.12078,-1.02715 -0.62941,-1.21471 -1.51835,-0.37961 -0.7874,0.73973 -0.79223,0.88085 -0.0425,1.24241 0.7209,0.34767 1.18423,0.3905 1.34684,0.12448 z m -3.36981,31.92879 c -0.16286,-1.01845 -0.21353,-1.06894 -0.9177,-0.91427 -1.15271,0.25317 -1.43857,-0.30203 -1.21765,-2.36495 0.2051,-1.91521 0.65051,-2.60498 0.6562,-1.01623 0.006,1.59684 0.25211,2.19843 0.90038,2.19843 0.88516,0 1.21268,0.5145 1.21268,1.905 0,1.55008 -0.39749,1.67049 -0.63391,0.19202 z m -0.95359,-3.40432 c 0,-0.29963 0.11906,-0.54478 0.26458,-0.54478 0.14552,0 0.26459,0.17157 0.26459,0.38126 0,0.20969 -0.11907,0.45484 -0.26459,0.54478 -0.14552,0.0899 -0.26458,-0.0816 -0.26458,-0.38126 z M 37.244015,145.74867 c -1.48522,-0.51356 -3.11222,-1.56914 -2.91369,-1.89037 0.0713,-0.11542 0.63828,-0.11424 1.25988,0.003 2.03536,0.38268 6.3177,-0.41049 8.69528,-1.61053 1.34979,-0.68129 5.88252,-3.74296 6.85469,-4.63007 0.3638,-0.33197 1.19724,-0.78426 1.85208,-1.00509 0.65485,-0.22082 1.72641,-0.6466 2.38125,-0.94616 1.29819,-0.59386 2.25776,-0.70557 2.51302,-0.29255 0.22492,0.36393 -0.56792,1.4351 -5.00154,6.75736 -0.98614,1.18379 -3.00537,2.33961 -5.93099,3.39494 -1.6949,0.61139 -2.3248,0.69541 -5.15615,0.68783 -2.3571,-0.006 -3.583,-0.13229 -4.55383,-0.46799 z m 115.052275,-7.33572 c -0.46242,-0.3645 -0.97915,-1.08203 -1.14829,-1.59452 -0.27982,-0.84787 -0.24458,-1.01432 0.39121,-1.84788 0.56241,-0.73736 0.87933,-0.91608 1.62445,-0.91608 1.25496,0 2.32404,0.60002 2.99056,1.67846 0.69509,1.12469 0.69652,1.61257 0.008,2.58017 -0.47132,0.6619 -0.71894,0.76804 -1.78594,0.76552 -0.91883,-0.002 -1.4559,-0.1741 -2.07952,-0.66567 z m -38.25142,-0.53867 c -0.10914,-0.11211 -0.19844,-1.49368 -0.19844,-3.07016 0,-1.73449 -0.10448,-2.86632 -0.26458,-2.86632 -0.14553,0 -0.26459,0.27538 -0.26459,0.61196 0,1.1835 -2.32529,2.69435 -3.87416,2.51721 -0.69985,-0.08 -0.76204,-0.17988 -0.83669,-1.34323 -0.093,-1.44947 -0.15005,-1.46751 -2.30061,-0.72761 -1.94321,0.66857 -3.90325,0.66802 -6.697495,-0.002 -1.20976,-0.29002 -2.44008,-0.52731 -2.73402,-0.52731 -1.07928,0 -0.28226,-0.61163 1.76901,-1.35755 1.15844,-0.42125 2.481435,-0.94297 2.939995,-1.15939 0.45855,-0.21641 0.91298,-0.39348 1.00984,-0.39348 0.0969,0 0.56635,-0.29766 1.04332,-0.66146 0.47697,-0.3638 0.94349,-0.66146 1.03671,-0.66146 0.0932,0 0.76628,-0.36721 1.4957,-0.81602 0.72941,-0.44882 1.46608,-0.76941 1.63703,-0.71242 0.17095,0.057 0.57451,0.81115 0.89681,1.67592 1.06576,2.85963 2.222,1.86849 1.65789,-1.42115 -0.16808,-0.98019 -0.22506,-2.10306 -0.12663,-2.49526 0.23352,-0.93041 2.06508,-2.84767 2.7116,-2.83849 0.2772,0.004 0.95048,0.42226 1.49618,0.9296 1.20081,1.1164 1.33363,2.12152 0.33073,2.50282 -0.67816,0.25784 -0.90815,1.13923 -0.38211,1.46433 0.4492,0.27763 2.98276,-0.89751 3.52224,-1.63372 0.43602,-0.595 0.45162,-0.75572 0.13229,-1.36291 -0.1991,-0.37861 -0.75402,-1.08279 -1.23316,-1.56485 -0.86988,-0.87519 -0.87052,-0.8778 -0.43864,-1.78791 0.23787,-0.50128 0.60013,-1.05055 0.805,-1.22058 0.28942,-0.24019 0.3725,-1.17802 0.3725,-4.2045 0,-3.37995 0.0613,-3.94866 0.46303,-4.29831 0.60059,-0.52269 3.38079,-0.81024 3.73167,-0.38596 0.14102,0.17052 0.3417,1.32207 0.44596,2.559 0.10425,1.23692 0.31961,2.48708 0.47856,2.77812 0.15896,0.29104 0.42725,0.91583 0.59621,1.38841 0.51685,1.44568 2.00905,3.17524 3.14812,3.64889 0.58208,0.24204 1.44932,0.60665 1.9272,0.81024 0.47788,0.20359 1.19226,0.37854 1.5875,0.38877 0.39525,0.0102 0.95675,0.11478 1.2478,0.23233 0.59182,0.23905 0.79668,0.1084 -2.04612,1.30495 -2.29782,0.96717 -3.99549,2.68105 -2.65024,2.67556 0.25466,-0.001 1.56546,-0.41775 2.91289,-0.92604 3.02975,-1.1429 4.30618,-1.20003 5.07155,-0.22701 0.30161,0.38343 0.54837,0.9696 0.54837,1.30262 0,0.91953 -1.15378,2.09707 -2.43062,2.48067 -1.97728,0.59403 -6.33611,2.4072 -8.94646,3.72152 -1.38245,0.69607 -3.03265,1.34154 -3.66711,1.43438 -1.71052,0.25031 -3.22674,0.77517 -3.11336,1.07773 0.0549,0.14638 0.25912,0.2279 0.45392,0.18116 0.19479,-0.0467 1.28124,-0.13803 2.41432,-0.20287 2.80442,-0.16048 2.72341,0.2886 -0.33722,1.86935 -2.32036,1.19842 -4.84804,1.81939 -5.34169,1.31228 z m -66.380475,-4.99115 c -1.99599,-0.8295 -4.2228,-2.51109 -5.55595,-4.19561 -1.9509,-2.46508 -2.08375,-3.51062 -0.26283,-2.06842 1.15916,0.91806 3.29622,1.93151 5.72269,2.71385 3.49617,1.12722 8.99542,0.86154 12.34747,-0.59653 0.97027,-0.42205 1.90666,-0.76737 2.08086,-0.76737 0.85403,0 6.73713,-3.73406 9.38416,-5.95623 1.70012,-1.42723 6.50987,-4.63474 8.5063,-5.67266 0.85133,-0.44259 2.38131,-1.09441 3.39995,-1.44849 1.01865,-0.35408 2.68552,-0.98895 3.70417,-1.41082 2.33623,-0.96756 4.5949,-1.49794 9.21121,-2.16297 2.3424,-0.33745 4.072155,-0.7349 4.816675,-1.10673 1.13154,-0.56512 1.24966,-0.5715 4.54713,-0.24565 1.86197,0.18399 4.21884,0.38399 5.23749,0.44445 2.41408,0.14326 2.95221,0.27288 3.13751,0.75578 0.48491,1.26365 -0.78096,1.58685 -7.76772,1.9832 -4.55448,0.25837 -6.629185,0.51368 -8.598965,1.05819 -3.00562,0.83085 -4.07353,1.15861 -4.83762,1.48478 -0.47788,0.204 -0.98448,0.3709 -1.12578,0.3709 -0.14129,0 -0.85654,0.28927 -1.58942,0.64283 -0.73289,0.35356 -1.69787,0.72308 -2.1444,0.82115 -0.94286,0.20709 -2.96651,1.12215 -4.85486,2.1953 -8.76697,4.98226 -10.68013,6.09896 -12.17083,7.10411 -9.11672,6.1472 -10.56909,6.70566 -17.39301,6.68793 -3.89705,-0.0101 -4.44347,-0.0696 -5.79423,-0.63099 z m 80.085885,-0.90536 c 0.44399,-0.39676 4.06239,-1.61634 6.02312,-2.03008 1.04563,-0.22065 2.556,-0.54774 3.35636,-0.72689 0.88699,-0.19853 3.52147,-0.32571 6.74688,-0.32571 5.38506,0 7.87765,0.33089 10.41349,1.38238 1.25639,0.52096 0.87117,0.68744 -0.79517,0.34365 -3.86764,-0.79795 -8.5013,-1.09187 -12.66103,-0.80311 -4.51008,0.31309 -5.41873,0.46573 -9.57078,1.60769 -2.87054,0.78951 -3.97234,0.96266 -3.51287,0.55207 z m -76.874685,-4.26983 c -0.36381,-0.1247 -1.47548,-0.34618 -2.4704,-0.49218 -3.19922,-0.46947 -5.89431,-2.17017 -7.5651,-4.77386 -1.39966,-2.18119 -1.93334,-5.79309 -1.21107,-8.19653 0.5624,-1.87147 1.15563,-3.20965 1.42287,-3.20965 0.1131,0 0.2009,0.98226 0.1951,2.18281 -0.006,1.20055 0.13705,2.68234 0.31743,3.29288 0.48564,1.64375 2.67604,3.89907 4.8502,4.99396 l 1.80192,0.90743 h 4.06389 4.0639 l 2.59825,-1.05719 c 1.42904,-0.58146 3.14537,-1.37693 3.81407,-1.76771 1.65183,-0.96532 6.08934,-4.00467 6.90435,-4.72895 0.90414,-0.80348 2.22612,-1.44198 2.98555,-1.44198 0.72725,0 2.83529,1.82167 2.83529,2.45012 0,0.23332 -0.72341,0.82099 -1.65365,1.34339 -1.51047,0.84824 -3.8169,2.49593 -5.48833,3.92082 -1.22534,1.04461 -3.45056,2.35861 -6.88094,4.06324 -3.0775,1.52927 -5.1443,2.12661 -9.12813,2.6382 -0.43656,0.0561 -1.0914,-1e-4 -1.4552,-0.1248 z m 100.055015,-0.65788 c -0.60683,-0.66685 -0.83627,-1.175 -0.83627,-1.85208 0,-0.51321 0.09,-0.9331 0.19999,-0.9331 0.10999,0 0.47481,0.59908 0.81072,1.33128 0.3359,0.7322 0.84122,1.47521 1.12293,1.65114 0.64592,0.40338 0.65719,0.72175 0.0255,0.72175 -0.26766,0 -0.86297,-0.41355 -1.32292,-0.91899 z m 10.4272,-3.70149 c 0.0663,-2.17746 0.21545,-4.05385 0.33134,-4.16974 0.28416,-0.28416 0.13791,4.8517 -0.19003,6.67355 -0.20739,1.15217 -0.23682,0.63076 -0.14131,-2.50381 z m -9.50267,2.54913 c -0.54426,-0.60141 -0.55936,-1.20262 -0.041,-1.63282 0.75469,-0.62633 1.8289,0.95073 1.18009,1.73249 -0.41632,0.50163 -0.61026,0.48466 -1.13908,-0.0997 z m 4.74892,-1.19267 c 0.27596,-0.37846 0.60556,-0.69184 0.73245,-0.69642 0.32836,-0.0118 -0.47001,1.12979 -0.88738,1.26892 -0.21606,0.072 -0.15765,-0.14382 0.15493,-0.5725 z m -2.54097,-1.61345 c -2.4395,-0.92803 -6.95201,-1.91852 -9.63008,-2.11377 -1.1492,-0.0838 -2.23544,-0.2735 -2.41386,-0.42158 -0.17842,-0.14807 -0.51809,-0.1949 -0.75481,-0.10406 -0.35842,0.13753 -0.43041,-0.0351 -0.43041,-1.03213 0,-0.65851 -0.072,-1.38494 -0.16002,-1.61429 -0.27262,-0.71044 -0.63373,-0.17716 -0.63373,0.93589 0,0.58307 -0.12325,1.29041 -0.27389,1.57189 -0.27543,0.51464 -1.42378,0.71109 -1.6851,0.28826 -0.097,-0.15699 0.399,-8.48659 0.62874,-10.55826 0.004,-0.0364 2.20659,-0.0662 4.89458,-0.0662 4.58384,0 4.97641,0.0394 6.32342,0.63515 1.11721,0.49408 1.589,0.8959 2.12422,1.80918 0.64017,1.09238 0.68831,1.40248 0.69208,4.45809 0.004,3.33651 0.22284,4.35361 0.80996,3.76649 0.47999,-0.47999 0.20203,-7.13832 -0.34068,-8.16086 -0.61702,-1.16254 -1.65138,-2.11246 -3.06612,-2.81579 -1.13497,-0.56424 -1.68305,-0.62984 -6.27075,-0.75058 l -5.02709,-0.1323 -0.0402,-1.32292 c -0.0221,-0.7276 0.12671,-1.72441 0.33073,-2.21512 0.20402,-0.49072 0.37094,-1.41345 0.37094,-2.05052 0,-0.63708 0.0893,-1.16014 0.19844,-1.16237 0.10914,-0.002 0.37645,-0.11659 0.59402,-0.25414 0.34777,-0.21985 0.34402,-0.29132 -0.031,-0.59126 -0.38386,-0.307 -0.39278,-0.64591 -0.089,-3.383882 0.18567,-1.673489 0.44557,-3.459427 0.57755,-3.968749 0.21616,-0.834195 0.32277,-0.919483 1.07491,-0.859915 1.10585,0.08758 6.10244,2.134061 8.26108,3.383537 2.3232,1.344726 4.97381,3.467938 7.63559,6.116329 1.83318,1.82395 2.18553,2.30604 2.04713,2.80088 -0.0919,0.32874 -0.29731,1.49068 -0.45637,2.58209 -0.15906,1.0914 -0.38795,2.2225 -0.50865,2.51354 -0.1207,0.29104 -0.29881,1.3626 -0.39579,2.38125 -0.097,1.01864 -0.25353,1.97114 -0.34786,2.11667 -0.0943,0.14552 -0.32213,1.27661 -0.50621,2.51354 -0.18409,1.23692 -0.38277,2.54661 -0.44153,2.91041 -0.0588,0.36381 -0.11649,0.93476 -0.12832,1.2688 -0.0236,0.66705 -1.11954,1.91419 -1.66311,1.89257 -0.18852,-0.007 -0.75947,-0.17216 -1.2688,-0.36592 z m -5.55625,-4.77982 c 0,-1.38963 -0.42288,-1.60511 -0.576,-0.29351 -0.11955,1.02398 -0.0162,1.48413 0.33347,1.48413 0.13339,0 0.24253,-0.53578 0.24253,-1.19062 z m 0.53137,-5.94902 c -0.41492,-0.77528 -0.99217,-0.65308 -1.19099,0.25213 l -0.1725,0.7854 -2.42821,-0.13753 c -2.35236,-0.13322 -2.48144,-0.11023 -4.13216,0.73596 -1.7141,0.87867 -2.32801,1.53767 -1.42695,1.53175 0.26679,-0.002 1.02085,-0.32488 1.67569,-0.71806 1.02884,-0.61773 1.47825,-0.71496 3.3073,-0.71558 2.38543,-7.9e-4 3.27596,0.39665 4.04841,1.80684 l 0.4495,0.82061 0.0777,-1.91412 c 0.0427,-1.05277 -0.0508,-2.1541 -0.20775,-2.4474 z m 1.5853,2.77402 c 0,-0.50932 -0.11906,-0.92604 -0.26458,-0.92604 -0.14552,0 -0.26459,0.41672 -0.26459,0.92604 0,0.50932 0.11907,0.92604 0.26459,0.92604 0.14552,0 0.26458,-0.41672 0.26458,-0.92604 z m 2.82892,-5.04682 c 0.11413,-0.34283 -1.71185,-0.95081 -1.90705,-0.63498 -0.18213,0.2947 0.961,1.08316 1.43745,0.99146 0.20623,-0.0397 0.41755,-0.2001 0.4696,-0.35648 z m -0.24901,-1.50162 c -0.0605,-0.1819 -0.76427,-0.41318 -1.5639,-0.51395 -0.79963,-0.10077 -1.56371,-0.20416 -1.69796,-0.22977 -0.54929,-0.10475 -0.92679,0.0323 -0.77326,0.2807 0.0899,0.14552 0.48392,0.26641 0.87551,0.26863 0.3916,0.002 0.89059,0.11947 1.10887,0.26054 0.59747,0.38612 2.18417,0.33494 2.05074,-0.0662 z m -0.0664,-1.25677 c -0.0899,-0.14552 -0.54345,-0.26276 -1.0078,-0.26053 -0.64243,0.003 -0.74939,0.0654 -0.44741,0.26053 0.52474,0.33911 1.66479,0.33911 1.45521,0 z m -0.92604,-1.30087 c 0,-0.13339 -0.14883,-0.30259 -0.33073,-0.37598 -0.1819,-0.0734 0.0562,-0.14286 0.52917,-0.15434 1.27294,-0.0309 1.08285,-0.6904 -0.31825,-1.1041 -0.94894,-0.28019 -1.11975,-0.41822 -0.87801,-0.7095 0.24663,-0.29717 0.11579,-0.34648 -0.73412,-0.27665 -0.89445,0.0735 -1.03407,0.17145 -1.03287,0.72463 0.001,0.51414 0.20759,0.70336 1.05237,0.96444 l 1.05098,0.3248 -0.85989,0.0277 c -0.85748,0.0277 -1.15667,0.39306 -0.52917,0.64626 0.57788,0.23318 2.05052,0.18484 2.05052,-0.0673 z m 0.52917,-2.25539 c 0,-0.0642 -0.11907,-0.19026 -0.26459,-0.2802 -0.14552,-0.0899 -0.26458,-0.0374 -0.26458,0.11668 0,0.15411 0.11906,0.2802 0.26458,0.2802 0.14552,0 0.26459,-0.0525 0.26459,-0.11668 z m 0.52916,-1.46403 c 0,-0.3685 -1.32444,-1.00321 -2.2532,-1.07981 -1.45946,-0.12037 -3.03846,0.0127 -3.03846,0.25601 0,0.13273 0.50601,0.32473 1.12448,0.42667 0.61846,0.10193 1.30307,0.28737 1.52135,0.41208 0.54824,0.31323 2.64583,0.30138 2.64583,-0.0149 z m -2.91041,-2.12346 c 0,-0.14552 -0.23813,-0.264585 -0.52917,-0.264585 -0.29104,0 -0.52917,0.119065 -0.52917,0.264585 0,0.14552 0.23813,0.26458 0.52917,0.26458 0.29104,0 0.52917,-0.11906 0.52917,-0.26458 z m 8.58471,20.87903 c -0.27266,-0.44117 0.34057,-0.94708 0.70557,-0.58208 0.3053,0.30531 0.11422,0.86972 -0.29445,0.86972 -0.12834,0 -0.31335,-0.12944 -0.41112,-0.28764 z M 55.206665,117.63727 c -4.57505,-1.29212 -7.77066,-4.70075 -7.77066,-8.28863 0,-1.4264 0.43696,-1.8314 0.81278,-0.75332 1.10071,3.15748 3.28214,4.55706 7.10279,4.55706 3.62966,0 6.27143,-1.15594 11.85825,-5.18877 0.88704,-0.64031 1.3055,-0.31124 1.44456,1.13597 0.0755,0.78595 0.39983,1.70082 0.83718,2.36171 0.39265,0.59333 0.64718,1.24632 0.56562,1.45109 -0.13943,0.35005 -1.42634,1.38472 -3.00505,2.41606 -1.40156,0.91561 -3.63757,1.98058 -4.79946,2.28589 -1.92964,0.50706 -5.29311,0.51802 -7.04601,0.0229 z m 106.532255,-0.13249 c 0.005,-1.25723 0.31179,-2.7649 0.56319,-2.7649 0.2852,0 -0.0145,2.94473 -0.3353,3.29407 -0.13595,0.14805 -0.2296,-0.0694 -0.22789,-0.52917 z m -32.23596,-1.78976 c -0.69906,-0.74412 -0.79038,-2.57433 -0.15991,-3.2048 1.17728,-1.17728 3.23444,-0.47439 3.66676,1.25284 0.22206,0.88717 0.17278,1.05764 -0.51252,1.77293 -0.95157,0.99323 -2.16146,1.06557 -2.99433,0.17903 z m -52.830495,-0.97514 c -0.20002,-0.63019 0.0601,-1.5875 0.43136,-1.5875 0.14488,0 0.9227,-0.32282 1.7285,-0.71738 1.12222,-0.5495 1.73461,-1.09508 2.61671,-2.33123 0.63339,-0.88762 1.27335,-1.93401 1.42212,-2.32532 0.31911,-0.83934 0.68874,-0.90845 1.06804,-0.19971 0.38847,0.72586 0.33657,1.87535 -0.12461,2.75962 -0.21738,0.41681 -0.39524,1.01961 -0.39524,1.33956 0,0.80954 -1.21746,1.89212 -3.16216,2.81182 -1.97172,0.93247 -3.3379,1.02781 -3.58472,0.25014 z m -4.23333,-2.86852 c -1.01965,-0.62342 -1.31456,-0.99295 -2.24611,-2.81444 -0.77603,-1.51742 -0.80112,-2.25454 -0.0767,-2.25454 0.86528,0 2.508,-1.22869 3.42731,-2.56348 0.53231,-0.7729 1.0228,-1.40527 1.08997,-1.40527 0.0672,0 0.047,0.46982 -0.0448,1.04404 -0.17668,1.10488 0.22943,2.39555 0.75375,2.39555 0.51732,0 1.67014,-1.39118 2.26205,-2.72977 0.72147,-1.63158 0.52546,-2.98637 -0.70001,-4.838247 -0.98708,-1.491639 -1.05264,-1.692405 -0.55262,-1.692405 1.43697,0 4.67502,2.798895 5.17721,4.475072 0.41014,1.36894 0.14291,5.36493 -0.43504,6.50514 -1.15263,2.27398 -2.77879,3.58214 -5.06151,4.07169 -1.90783,0.40916 -2.67559,0.36785 -3.59347,-0.19334 z m 12.30312,0.22909 c 0,-0.14201 0.23768,-0.64802 0.52818,-1.12448 0.72448,-1.18826 0.77194,-5.82608 0.0721,-7.04548 -0.53761,-0.93672 -0.35202,-1.26581 0.46674,-0.82762 1.14989,0.6154 5.28379,4.53667 5.44037,5.16054 0.0959,0.38223 -0.0358,1.02771 -0.32952,1.61493 -0.42386,0.84732 -0.75485,1.07663 -2.47371,1.71379 -2.01306,0.74622 -3.70416,0.97828 -3.70416,0.50832 z m 51.240385,-3.69653 c -0.22407,-3.15672 -0.22833,-12.927493 -0.007,-15.049261 0.38872,-3.719092 0.62337,-0.785127 0.60593,7.576361 -0.0188,9.03355 -0.26805,12.14055 -0.59936,7.4729 z m -39.764925,0.87453 c -0.2415,-0.41595 -1.08752,-1.22939 -1.88004,-1.80765 -1.48237,-1.08158 -2.33416,-2.28477 -2.08224,-2.94126 0.2486,-0.64784 0.99298,-0.41314 3.18711,1.00489 4.834125,3.12422 5.158045,3.76043 2.19742,4.31585 -0.89148,0.16724 -1.02411,0.11391 -1.42225,-0.57183 z m 11.146425,-1.07299 c -2.15875,-0.31654 -3.55479,-0.92315 -4.47917,-1.94633 -0.51964,-0.57517 -0.94479,-1.2159 -0.94479,-1.42384 0,-0.3234 -0.32299,-1.03869 -1.88786,-4.18088 -0.125855,-0.25269 -0.228815,-0.64019 -0.228815,-0.861124 0,-0.509442 -2.66454,-5.627669 -3.89416,-7.480175 -2.2524,-3.39339 -5.61908,-5.949058 -9.11686,-6.920666 -3.22213,-0.89504 -7.90683,0.785984 -10.81643,3.881291 -0.85494,0.909505 -1.63095,1.653646 -1.72447,1.653646 -0.35592,0 0.21753,-1.508516 1.05608,-2.778125 2.0813,-3.151157 5.79032,-6.117627 9.24825,-7.39673 1.68393,-0.622896 8.09167,-0.730148 10.08822,-0.168855 2.87394,0.807957 5.858735,2.82338 8.534435,5.762701 1.40763,1.546326 2.42178,2.400316 3.4001,2.863136 1.54826,0.732443 3.21414,0.871865 3.43828,0.287761 0.35963,-0.937168 -2.16764,-7.910351 -3.84477,-10.608429 -1.8084,-2.909248 -2.93094,-5.128732 -3.06581,-6.061736 -0.16572,-1.146386 0.26256,-7.68861 0.55284,-8.445086 0.29392,-0.765932 1.40649,-0.862369 1.91697,-0.166162 0.9741,1.328489 1.70833,2.816013 2.20646,4.470207 0.28754,0.954861 0.92199,2.510017 1.40989,3.455902 0.4879,0.945886 1.13621,2.352829 1.44069,3.12654 0.30448,0.773712 0.929,2.202462 1.38784,3.175 0.45884,0.972538 0.98298,2.363564 1.16476,3.091168 0.18178,0.727604 0.58432,2.275417 0.89454,3.439583 0.80982,3.039092 0.81153,8.946303 0.004,12.832291 -0.88727,4.268212 -0.9389,4.478032 -1.69265,6.879172 -1.11805,3.56165 -1.12188,3.56657 -2.80714,3.604 -0.79552,0.0177 -1.80359,-0.0203 -2.24015,-0.0843 z m 10.78177,-0.0884 c -0.57225,-0.23002 -0.59532,-0.36573 -0.59532,-3.50219 0,-2.18503 0.10489,-3.36779 0.3175,-3.5804 0.18002,-0.18002 1.04215,-0.3175 1.99093,-0.3175 1.56919,0 1.69012,0.0439 1.94153,0.70516 0.21297,0.56017 0.21123,3.29303 -0.004,6.76932 -0.0171,0.27643 -2.92495,0.21717 -3.65032,-0.0744 z m 43.3076,-1.61273 c -0.61898,-1.15658 0.66019,-2.39342 1.5525,-1.50111 0.48607,0.48607 0.37779,1.4837 -0.19427,1.78986 -0.74651,0.39951 -1.02112,0.34113 -1.35823,-0.28875 z m -94.990375,-0.74856 c -1.89015,-0.57282 -3.05464,-2.07583 -2.74017,-3.53676 0.2671,-1.24087 0.87083,-2.295795 1.31387,-2.295795 0.21412,0 0.84304,-0.409908 1.39758,-0.910908 l 1.00827,-0.91091 0.31439,1.175494 c 0.17292,0.64652 0.40865,1.175489 0.52385,1.175489 0.11519,0 0.62167,-0.3444 1.12549,-0.76534 0.8943,-0.747167 0.91588,-0.811567 0.90895,-2.711979 -0.006,-1.661528 -0.11263,-2.110563 -0.72761,-3.065859 -0.99797,-1.550247 -0.92056,-2.988665 0.095,-1.765004 0.19311,0.232685 1.04299,0.95545 1.88862,1.606145 1.99444,1.534687 2.63219,2.763994 2.55848,4.931645 -0.0826,2.430182 -0.65322,3.810122 -2.2255,5.382412 -1.7494,1.74939 -3.47734,2.28652 -5.4412,1.69137 z m 30.68338,-0.47613 c -0.38095,-0.2539 -1.15485,-0.77648 -1.7198,-1.16129 -1.55814,-1.06134 -2.67362,-1.1579 -4.17207,-0.36117 -1.44765,0.76972 -1.67514,0.70598 -3.60573,-1.01025 -0.65691,-0.58398 -1.96512,-1.36972 -2.90713,-1.74608 -2.25329,-0.90027 -2.36353,-1.410854 -0.48301,-2.237209 0.77524,-0.340661 2.00484,-0.72023 2.73244,-0.843488 1.51173,-0.256091 1.36287,-0.255149 3.37344,-0.02133 1.1404,0.132622 1.52093,0.09353 1.51968,-0.156112 -0.005,-0.916101 -4.99175,-2.468954 -6.61291,-2.059069 -5.54943,1.403082 -5.53878,1.401458 -6.22629,0.950986 -1.28424,-0.841465 -0.52077,-1.895279 2.29507,-3.167893 3.11254,-1.406708 3.96513,-1.599663 6.68101,-1.512035 2.56742,0.08284 4.65748,1.204195 6.48645,3.480104 0.81664,1.016198 2.12542,4.277844 2.54422,6.340486 0.10341,0.50933 0.26235,1.04512 0.3532,1.19064 0.25969,0.41596 0.82253,2.08175 0.82694,2.44739 0.005,0.44739 -0.26333,0.4143 -1.08551,-0.13368 z m 66.147245,-3.41337 c -7.28609,-7.649339 -7.32659,-7.688654 -9.20661,-8.938884 -0.95912,-0.637821 -2.27963,-1.585717 -2.93447,-2.106438 -0.65485,-0.520718 -1.31182,-0.94792 -1.45994,-0.94933 -0.14812,-0.0013 -0.70735,-0.300225 -1.24273,-0.664028 -0.53539,-0.363802 -1.1881,-0.663614 -1.45048,-0.666252 -0.26239,-0.0026 -1.13191,-0.372692 -1.93227,-0.822349 -0.80036,-0.449654 -1.99099,-0.973225 -2.64583,-1.163492 -1.19667,-0.347689 -2.58864,-0.818779 -3.57188,-1.208841 -1.41416,-0.561017 -8.73705,-2.211154 -9.4266,-2.124186 -0.23692,0.02988 -1.07035,-0.233534 -1.85208,-0.585367 -1.42621,-0.641898 -2.79665,-0.98274 -4.39706,-1.093593 -0.5525,-0.03827 -1.66103,-0.616981 -3.10631,-1.62167 -1.23598,-0.859191 -2.93167,-2.038416 -3.7682,-2.620499 l -1.52097,-1.058333 4.62728,-0.08565 c 4.8631,-0.09001 7.73664,0.184247 11.10957,1.060333 1.0914,0.283483 2.46062,0.632998 3.04271,0.7767 1.29882,0.32065 3.25706,0.954203 3.96875,1.284023 0.29104,0.134878 1.07723,0.422476 1.74709,0.639107 2.86929,0.927918 5.28655,2.163915 9.88957,5.056735 2.29754,1.443916 6.58677,5.039561 8.7825,7.362351 2.05335,2.172158 6.70063,7.884903 6.70063,8.236853 0,0.0907 0.22807,0.48753 0.50684,0.88182 0.27876,0.39429 0.58444,0.98479 0.67928,1.31221 0.14523,0.50134 0.071,0.59531 -0.47043,0.59531 -0.43701,0 -1.09939,-0.47925 -2.06836,-1.49653 z m -37.83929,0.79455 c -0.47112,-0.56766 -0.65457,-4.327325 -0.2482,-5.086637 0.28131,-0.525631 0.50868,-0.561385 3.57012,-0.561385 2.73744,0 3.29582,0.06813 3.43027,0.418516 0.29934,0.780071 0.17506,5.017446 -0.1569,5.349406 -0.20907,0.20907 -1.32747,0.3175 -3.2749,0.3175 -2.42777,0 -3.0224,-0.0783 -3.32039,-0.4374 z M 59.391495,99.663884 c -1.31147,-0.950027 -1.80319,-1.666783 -2.04269,-2.977571 -0.16859,-0.922697 -0.1,-1.066204 1.03876,-2.172941 0.70507,-0.685249 1.21928,-1.425313 1.21928,-1.754825 0,-0.514829 -0.10853,-0.472651 -1.12448,0.436997 -0.61847,0.553751 -1.16417,1.103386 -1.21268,1.221412 -0.0485,0.118025 -0.89494,0.214593 -1.88097,0.214593 -1.71976,0 -1.84259,-0.04384 -3.01539,-1.076177 -1.54745,-1.36212 -2.04608,-2.742692 -1.36566,-3.781142 0.25187,-0.384413 0.54709,-0.698931 0.65603,-0.698931 0.10894,0 0.51575,-0.31768 0.90403,-0.705956 0.79129,-0.791289 1.13197,-0.637291 1.26407,0.571402 0.11091,1.014764 0.84515,1.177806 1.69761,0.376962 0.92604,-0.869968 0.91372,-3.205265 -0.0236,-4.475741 -0.61709,-0.836424 -0.85859,-1.5875 -0.51043,-1.5875 0.0831,0 0.92905,0.555187 1.87997,1.23375 2.22811,1.589952 2.80706,2.793036 2.69131,5.592701 -0.0584,1.412115 0.0169,1.991473 0.27996,2.154046 0.23409,0.144675 0.34929,0.690346 0.32966,1.561571 -0.0326,1.445662 0.19534,1.762501 1.09925,1.52812 0.96923,-0.25132 1.82953,-1.820114 1.86869,-3.407651 0.0294,-1.191382 -0.093,-1.572397 -0.82539,-2.569263 -0.77906,-1.060415 -1.08806,-1.859941 -0.71881,-1.859941 0.51042,0 2.95451,1.508098 3.7769,2.330489 1.30387,1.303872 1.73671,2.780231 1.50157,5.121677 -0.2486,2.475413 -1.47153,4.21091 -3.51125,4.982919 -1.90071,0.719396 -2.69669,0.667536 -3.97573,-0.259 z m 95.215315,-2.031222 c -0.48793,-0.6203 -0.50982,-0.768234 -0.18603,-1.256771 0.48707,-0.734891 1.15401,-0.836626 1.77866,-0.27132 0.648,0.586428 0.64174,0.931069 -0.03,1.652088 -0.69398,0.744905 -0.89149,0.729234 -1.56264,-0.123997 z m -36.52705,-1.413614 c -0.2692,-0.173974 0.56567,-0.257783 2.5953,-0.260532 1.92839,-0.0026 2.93405,0.09001 2.82866,0.260532 -0.20979,0.339453 -4.89869,0.339453 -5.42396,0 z m 28.44271,-5.792017 c -0.58208,-0.271153 -1.77271,-0.737661 -2.64583,-1.036682 -0.87313,-0.299022 -2.24235,-0.791335 -3.04271,-1.094028 -0.80037,-0.302694 -2.11005,-0.666298 -2.91042,-0.808011 -0.80036,-0.141711 -2.34818,-0.437783 -3.43958,-0.65794 -1.09141,-0.220154 -2.32053,-0.40042 -2.73138,-0.400592 -0.56129,-2.36e-4 -0.72542,-0.112416 -0.66017,-0.451229 0.0715,-0.371207 0.34347,-0.437295 1.53857,-0.373864 2.1771,0.115552 6.7647,1.202029 9.4206,2.231067 1.29484,0.501693 2.65191,1.001028 3.01571,1.109631 1.08038,0.322525 2.92219,1.484313 2.76257,1.742591 -0.1832,0.296415 -0.0567,0.321667 -1.30736,-0.260943 z m -23.71134,-1.585187 c -0.89159,-0.891593 -1.0272,-1.185818 -1.0272,-2.228607 0,-3.146581 4.34925,-4.054936 5.8668,-1.225301 0.67187,1.252781 0.41591,2.528131 -0.72678,3.621217 -0.71754,0.68639 -1.11953,0.859896 -1.99226,0.859896 -0.91727,0 -1.25877,-0.165423 -2.12056,-1.027205 z m -75.258025,-0.23545 c -0.64988,-0.545756 -1.17543,-1.695114 -1.17543,-2.570639 0,-0.758568 -0.0978,-0.829543 -1.4352,-1.041224 -1.41535,-0.224027 -1.76701,-0.579572 -1.68037,-1.698931 0.0712,-0.920332 0.047,-0.945795 -1.08867,-1.145185 -1.51338,-0.265695 -2.15509,-0.856175 -2.07556,-1.909848 0.0585,-0.774909 0.004,-0.827375 -0.94708,-0.905689 -1.02191,-0.08418 -2.03354,-0.812158 -2.03354,-1.463363 0,-0.195727 0.23861,-0.571806 0.53024,-0.83573 0.42041,-0.380457 0.65582,-0.422646 1.13645,-0.20366 0.45082,0.205408 0.78962,0.180094 1.32184,-0.09876 0.83258,-0.436236 0.8733,-0.66523 0.27944,-1.571583 -0.73378,-1.119882 -0.0576,-1.352848 1.06518,-0.367007 1.10245,0.967966 1.17051,1.450663 0.41369,2.934146 -0.58862,1.153796 -0.38893,1.82138 0.54483,1.82138 0.82918,0 1.12471,-0.672206 0.92712,-2.108843 -0.10066,-0.731907 -0.10641,-1.33074 -0.0128,-1.33074 0.43643,0 1.68474,0.81949 1.83171,1.202479 0.38391,1.000452 0.15389,2.869922 -0.48784,3.964961 -0.98271,1.676856 -0.25198,1.998174 1.46021,0.642093 0.98288,-0.778457 1.01147,-0.847193 0.86535,-2.080893 -0.184,-1.553581 0.18635,-1.892975 1.085,-0.99432 0.82415,0.824142 1.13466,2.3916 0.68697,3.467787 -0.61103,1.468819 -0.6257,2.364975 -0.0473,2.888428 0.79288,0.71755 1.4458,0.448818 1.84595,-0.759774 0.26334,-0.795345 0.2796,-1.289999 0.0661,-2.011458 -0.4378,-1.479755 -0.37113,-1.87091 0.30233,-1.773643 0.36798,0.05315 0.88386,0.568644 1.38906,1.388047 1.03948,1.685966 1.04829,3.53391 0.0246,5.155583 -1.07319,1.700038 -3.5701,2.432796 -4.79235,1.406388 z M 35.728195,76.089523 c -0.62261,-0.362639 -0.58653,-1.217003 0.0661,-1.566307 0.75445,-0.40377 0.65898,-0.836411 -0.14031,-0.635802 -0.58384,0.146533 -1.00693,-0.169416 -3.30729,-2.469782 -1.4508,-1.450795 -2.63781,-2.774296 -2.63781,-2.941113 0,-0.602839 0.78338,-0.277419 2.61376,1.08576 2.21022,1.646069 5.50851,3.75113 5.94241,3.792616 0.16905,0.01616 0.47108,0.04752 0.67117,0.06969 0.52525,0.05818 0.17043,1.579771 -0.54629,2.342684 -0.61042,0.649765 -1.84323,0.799018 -2.66178,0.322256 z"
       id="path3726"
       inkscape:connector-curvature="0" />
    <path
       style="fill:#000000;stroke-width:0.26458332"
       d=""
       id="path3724"
       inkscape:connector-curvature="0" />
  </g>
</svg>
